<svg width="138" height="21" viewBox="0 0 138 21" fill="none" xmlns="http://www.w3.org/2000/svg">
<path d="M17 9.97988C15.9867 9.95321 14.94 9.93988 13.86 9.93988C12.78 9.93988 11.68 9.94654 10.56 9.95988L10.54 10.2999C10.5133 10.6065 10.4733 10.9132 10.42 11.2199C10.3667 11.5265 10.2867 11.8065 10.18 12.0599C9.96667 12.5932 9.64 12.8599 9.2 12.8599C8.96 12.8599 8.76 12.7065 8.6 12.3999C8.44 12.0932 8.34667 11.6265 8.32 10.9999L8.28 10.0199C7.69334 10.0465 7.13334 10.0799 6.6 10.1199C6.06667 10.1465 5.56667 10.1732 5.1 10.1999C4.72667 10.2265 4.44667 10.2599 4.26 10.2999C4.07334 10.3399 3.88667 10.3999 3.7 10.4799C3.54 10.5465 3.38667 10.6065 3.24 10.6599C3.10667 10.6999 2.98 10.7199 2.86 10.7199C2.68667 10.7199 2.53334 10.6999 2.4 10.6599C2.26667 10.6199 2.12667 10.5599 1.98 10.4799C1.7 10.3332 1.4 10.1599 1.08 9.95988C0.773337 9.75988 0.50667 9.57988 0.280004 9.41988C0.10667 9.28654 0.053337 9.13321 0.120004 8.95988C0.18667 8.78654 0.333337 8.71321 0.560004 8.73988C0.98667 8.79321 1.43334 8.83988 1.9 8.87988C2.36667 8.91988 2.82667 8.94654 3.28 8.95988C4 8.97321 4.77334 8.97988 5.6 8.97988C6.44 8.97988 7.28667 8.97321 8.14 8.95988C9.00667 8.93321 9.86 8.90654 10.7 8.87988C11.5533 8.83988 12.3667 8.79988 13.14 8.75988C13.4067 8.73321 13.6467 8.69988 13.86 8.65988C14.0733 8.61988 14.2533 8.56654 14.4 8.49988C14.6267 8.39321 14.8133 8.31321 14.96 8.25988C15.12 8.19321 15.3 8.15988 15.5 8.15988C15.8333 8.15988 16.1667 8.17321 16.5 8.19988C16.8333 8.22654 17.1067 8.25988 17.32 8.29988C17.9067 8.41988 18.2 8.72654 18.2 9.21988C18.2 9.44654 18.0933 9.63321 17.88 9.77988C17.68 9.92654 17.3867 9.99321 17 9.97988ZM12.28 14.1399C11.5867 14.1399 10.9067 14.1532 10.24 14.1799C9.58667 14.2065 8.96 14.2465 8.36 14.2999C7.96 14.3265 7.63334 14.3665 7.38 14.4199C7.12667 14.4732 6.9 14.5532 6.7 14.6599C6.40667 14.8065 6.10667 14.8799 5.8 14.8799C5.54667 14.8799 5.29334 14.8132 5.04 14.6799C4.8 14.5599 4.54 14.4199 4.26 14.2599C3.99334 14.0865 3.74667 13.9132 3.52 13.7399C3.34667 13.6199 3.29334 13.4799 3.36 13.3199C3.42667 13.1465 3.56 13.0665 3.76 13.0799C4 13.1065 4.28667 13.1332 4.62 13.1599C4.96667 13.1865 5.31334 13.2065 5.66 13.2199C6.20667 13.2332 6.72 13.2399 7.2 13.2399C7.69334 13.2399 8.17334 13.2265 8.64 13.1999C9.14667 13.1732 9.70667 13.1465 10.32 13.1199C10.9333 13.0932 11.5267 13.0599 12.1 13.0199L12.92 12.4599L14.24 12.7399C14.7867 12.8465 15.06 13.0465 15.06 13.3399C15.06 13.4865 15.02 13.6265 14.94 13.7599C14.8733 13.8932 14.7867 14.0265 14.68 14.1599L14.56 16.3399C14.5333 16.7265 14.48 17.1399 14.4 17.5799C14.3333 18.0199 14.24 18.3932 14.12 18.6999C14.0133 18.9799 13.8733 19.1999 13.7 19.3599C13.54 19.5199 13.3467 19.5999 13.12 19.5999C12.8533 19.5999 12.6533 19.4065 12.52 19.0199C12.3867 18.6332 12.3133 17.9599 12.3 16.9999L12.28 14.1399ZM12.26 7.41988C12.3267 6.81988 12.4 6.20654 12.48 5.57988C12.5733 4.95321 12.6267 4.35321 12.64 3.77988C12.28 3.77988 11.8733 3.78654 11.42 3.79988C10.9667 3.81321 10.5067 3.83321 10.04 3.85988C9.57334 3.87321 9.12 3.89321 8.68 3.91988C8.25334 3.94654 7.88667 3.97321 7.58 3.99988C7.14 4.03988 6.77334 4.13321 6.48 4.27988C6.33334 4.35988 6.19334 4.42654 6.06 4.47988C5.92667 4.51988 5.78667 4.53988 5.64 4.53988C5.49334 4.53988 5.36 4.52654 5.24 4.49988C5.13334 4.45988 5.00667 4.39321 4.86 4.29988C4.63334 4.16654 4.38 4.01321 4.1 3.83988C3.83334 3.66654 3.58667 3.48654 3.36 3.29988C3.2 3.16654 3.14667 3.01988 3.2 2.85988C3.25334 2.69988 3.39334 2.63321 3.62 2.65988C3.9 2.68654 4.22 2.71321 4.58 2.73988C4.94 2.76654 5.29334 2.79321 5.64 2.81988C6.08 2.84654 6.53334 2.85988 7 2.85988C7.46667 2.85988 7.89334 2.85321 8.28 2.83988C8.56 2.83988 8.88 2.83321 9.24 2.81988C9.61334 2.80654 9.98667 2.79321 10.36 2.77988C10.7467 2.76654 11.12 2.75321 11.48 2.73988C11.84 2.72654 12.1533 2.70654 12.42 2.67988L13.38 2.01988L14.74 2.35988C15.0867 2.43988 15.32 2.53321 15.44 2.63988C15.56 2.73321 15.62 2.85988 15.62 3.01988C15.62 3.20654 15.5667 3.37988 15.46 3.53988C15.3533 3.69988 15.2267 3.84654 15.08 3.97988C15.0133 4.25988 14.9333 4.56654 14.84 4.89988C14.7467 5.21988 14.6333 5.55321 14.5 5.89988C14.38 6.23321 14.2467 6.56654 14.1 6.89988C13.9533 7.21988 13.8067 7.52654 13.66 7.81988C13.58 7.96654 13.4733 8.07988 13.34 8.15988C13.22 8.23988 13.0933 8.27988 12.96 8.27988C12.7733 8.27988 12.6 8.20654 12.44 8.05988C12.2933 7.89988 12.2333 7.68654 12.26 7.41988ZM35.56 17.2799C35.5333 17.9199 35.4067 18.4199 35.18 18.7799C34.9533 19.1532 34.6667 19.3399 34.32 19.3399C33.9067 19.3399 33.6533 19.1132 33.56 18.6599L29.02 18.7999C28.9533 18.9865 28.82 19.1599 28.62 19.3199C28.42 19.4932 28.1867 19.5799 27.92 19.5799C27.3867 19.5799 27.1133 19.1799 27.1 18.3799L26.96 14.0999C26.7867 13.9932 26.58 13.8865 26.34 13.7799C26.1 13.6732 25.8467 13.5732 25.58 13.4799C25.3533 13.3999 25.24 13.2732 25.24 13.0999C25.24 12.9665 25.3067 12.8599 25.44 12.7799C25.5867 12.6865 25.7667 12.6265 25.98 12.5999C26.1 12.5865 26.2333 12.5799 26.38 12.5799C26.5267 12.5799 26.6933 12.5932 26.88 12.6199C27.2133 12.6465 27.5467 12.6999 27.88 12.7799C28.2133 12.8465 28.5133 12.9265 28.78 13.0199C29.0067 13.0865 29.1467 13.1665 29.2 13.2599C29.2667 13.3532 29.3 13.4799 29.3 13.6399C29.3 13.6932 29.2933 13.7732 29.28 13.8799C29.28 13.9732 29.2733 14.0599 29.26 14.1399C29.2467 14.2465 29.2333 14.3465 29.22 14.4399C29.22 14.5332 29.22 14.6199 29.22 14.6999V15.0199L33.42 14.9399L33.4 13.4399C33.2267 13.3065 33.0333 13.1799 32.82 13.0599C32.6067 12.9399 32.38 12.8332 32.14 12.7399C31.9133 12.6599 31.8 12.5265 31.8 12.3399C31.8 12.2199 31.86 12.1199 31.98 12.0399C32.1133 11.9465 32.2933 11.8999 32.52 11.8999C32.64 11.8999 32.7667 11.9065 32.9 11.9199C33.0467 11.9332 33.2133 11.9532 33.4 11.9799C33.7067 12.0332 34.0333 12.1065 34.38 12.1999C34.7267 12.2799 35.0333 12.3732 35.3 12.4799C35.5133 12.5732 35.6467 12.6665 35.7 12.7599C35.7667 12.8399 35.7933 12.9599 35.78 13.1199C35.78 13.1732 35.7733 13.2399 35.76 13.3199C35.7467 13.3999 35.7333 13.4799 35.72 13.5599C35.6933 13.7465 35.6733 13.9132 35.66 14.0599C35.6467 14.2065 35.64 14.3399 35.64 14.4599L35.56 17.2799ZM22.76 7.85988C22.5733 7.76654 22.3467 7.67988 22.08 7.59988C21.8133 7.51988 21.5667 7.44654 21.34 7.37988C21.0733 7.31321 20.94 7.16654 20.94 6.93988C20.94 6.81988 21.0267 6.71321 21.2 6.61988C21.3867 6.51321 21.6333 6.45321 21.94 6.43988C22.46 6.42654 22.98 6.44654 23.5 6.49988C24.0333 6.55321 24.52 6.63321 24.96 6.73988L27.66 6.59988L27.86 4.65988L26.04 4.73988C25.72 4.75321 25.4467 4.79321 25.22 4.85988C24.9933 4.91321 24.7733 4.98654 24.56 5.07988C24.4133 5.14654 24.2667 5.19988 24.12 5.23988C23.9867 5.27988 23.8533 5.29988 23.72 5.29988C23.5867 5.29988 23.4533 5.27988 23.32 5.23988C23.2 5.19988 23.08 5.14654 22.96 5.07988C22.4933 4.83988 22.06 4.55988 21.66 4.23988C21.4867 4.10654 21.4333 3.95988 21.5 3.79988C21.5667 3.63988 21.7 3.56654 21.9 3.57988C22.14 3.60654 22.4267 3.63321 22.76 3.65988C23.1067 3.68654 23.4533 3.70654 23.8 3.71988C24.3067 3.73321 24.7733 3.73321 25.2 3.71988C25.6267 3.70654 26.06 3.68654 26.5 3.65988L27.64 3.61988L28.52 3.03988L29.84 3.29988C30.1467 3.36654 30.3667 3.45321 30.5 3.55988C30.6333 3.65321 30.7 3.79321 30.7 3.97988C30.7 4.28654 30.5267 4.57988 30.18 4.85988L29.52 6.43988C29.7333 6.46654 29.9067 6.53321 30.04 6.63988C30.1867 6.73321 30.26 6.87321 30.26 7.05988C30.26 7.13988 30.24 7.21988 30.2 7.29988C30.1733 7.36654 30.1067 7.42654 30 7.47988C29.9067 7.51988 29.7667 7.55988 29.58 7.59988C29.3933 7.62654 29.14 7.64654 28.82 7.65988L25.24 7.83988C25.2133 7.91988 25.1933 7.99988 25.18 8.07988C25.1667 8.15988 25.16 8.25321 25.16 8.35988V9.45988C25.16 9.75321 25.3 9.88654 25.58 9.85988C26.0333 9.81988 26.5333 9.75321 27.08 9.65988C27.64 9.56654 28.2067 9.46654 28.78 9.35988C29.3667 9.23988 29.94 9.11321 30.5 8.97988C31.0733 8.83321 31.6133 8.68654 32.12 8.53988C32.28 8.48654 32.42 8.49321 32.54 8.55988C32.66 8.62654 32.74 8.71988 32.78 8.83988C32.82 8.94654 32.82 9.06654 32.78 9.19988C32.74 9.31988 32.6533 9.41321 32.52 9.47988C32.28 9.59988 32 9.72654 31.68 9.85988C31.3733 9.99321 31.04 10.1265 30.68 10.2599C30.32 10.3932 29.9533 10.5265 29.58 10.6599C29.2067 10.7799 28.8467 10.8932 28.5 10.9999C27.7133 11.2265 26.9467 11.4199 26.2 11.5799C25.4667 11.7399 24.8467 11.8399 24.34 11.8799C24.2067 11.8932 24.0533 11.8465 23.88 11.7399C23.7067 11.6332 23.54 11.4999 23.38 11.3399C23.22 11.1799 23.08 11.0065 22.96 10.8199C22.8533 10.6199 22.8 10.4332 22.8 10.2599L22.76 7.85988ZM35.92 8.17988C35.9067 8.56654 35.8667 8.97988 35.8 9.41988C35.7333 9.84654 35.6467 10.2132 35.54 10.5199C35.4333 10.7865 35.2933 11.0265 35.12 11.2399C34.96 11.4399 34.7667 11.5399 34.54 11.5399C34.38 11.5399 34.2467 11.4999 34.14 11.4199C34.0467 11.3399 33.9667 11.1999 33.9 10.9999C33.8467 10.7999 33.8 10.5332 33.76 10.1999C33.7333 9.86654 33.72 9.44654 33.72 8.93988L33.66 2.63988C33.4867 2.49321 33.26 2.33988 32.98 2.17988C32.7133 2.00654 32.46 1.85988 32.22 1.73988C31.9933 1.63321 31.88 1.49321 31.88 1.31988C31.88 1.21321 31.9467 1.11988 32.08 1.03988C32.2267 0.946544 32.42 0.899877 32.66 0.899877C32.9133 0.899877 33.22 0.939877 33.58 1.01988C33.8867 1.08654 34.2267 1.17988 34.6 1.29988C34.9867 1.40654 35.3133 1.53321 35.58 1.67988C35.8067 1.79988 35.9533 1.90654 36.02 1.99988C36.1 2.09321 36.14 2.21988 36.14 2.37988C36.14 2.43321 36.1333 2.51321 36.12 2.61988C36.1067 2.71321 36.0933 2.79988 36.08 2.87988C36.0533 3.06654 36.0333 3.22654 36.02 3.35988C36.0067 3.47988 36 3.59988 36 3.71988L35.92 8.17988ZM29.2 17.7599L33.48 17.6399L33.44 15.9599L29.2 16.0399V17.7599ZM46.8 16.4999C46.8 15.6199 47.12 14.8999 47.76 14.3399C48.4 13.7665 49.26 13.4199 50.34 13.2999C50.4067 13.2332 50.46 13.1665 50.5 13.0999C50.54 13.0199 50.56 12.9532 50.56 12.8999C50.56 12.7932 50.54 12.7065 50.5 12.6399C50.4733 12.5599 50.3867 12.4865 50.24 12.4199C50.1733 12.3799 50.1133 12.3399 50.06 12.2999C50.02 12.2599 50 12.1932 50 12.0999C50 12.0065 50.0533 11.9332 50.16 11.8799C50.28 11.8132 50.4067 11.7799 50.54 11.7799C51.0733 11.7799 51.5333 11.8732 51.92 12.0599C52.2133 12.2065 52.3867 12.3399 52.44 12.4599C52.5067 12.5665 52.5133 12.6932 52.46 12.8399C52.4333 12.9199 52.3867 13.0065 52.32 13.0999C52.2533 13.1799 52.1867 13.2532 52.12 13.3199C52.6133 13.3865 53.0667 13.5132 53.48 13.6999C53.9067 13.8732 54.2733 14.0999 54.58 14.3799C54.8867 14.6465 55.1267 14.9599 55.3 15.3199C55.4733 15.6799 55.56 16.0732 55.56 16.4999C55.56 16.9932 55.4533 17.4399 55.24 17.8399C55.04 18.2399 54.7467 18.5799 54.36 18.8599C53.9733 19.1532 53.5067 19.3732 52.96 19.5199C52.4267 19.6799 51.8333 19.7599 51.18 19.7599C50.5133 19.7599 49.9133 19.6799 49.38 19.5199C48.8467 19.3732 48.3867 19.1532 48 18.8599C47.6133 18.5799 47.3133 18.2399 47.1 17.8399C46.9 17.4399 46.8 16.9932 46.8 16.4999ZM56 8.73988C55.9867 9.32654 55.9467 9.87321 55.88 10.3799C55.8133 10.8865 55.7267 11.3532 55.62 11.7799C55.5133 12.1532 55.3733 12.4332 55.2 12.6199C55.0267 12.8065 54.8333 12.8999 54.62 12.8999C54.5133 12.8999 54.4067 12.8665 54.3 12.7999C54.2067 12.7332 54.1267 12.6132 54.06 12.4399C53.9933 12.2665 53.9333 12.0265 53.88 11.7199C53.84 11.4132 53.82 11.0199 53.82 10.5399L53.8 9.65988C53.56 9.68654 53.3267 9.71988 53.1 9.75988C52.8867 9.79988 52.6867 9.83321 52.5 9.85988C52.4067 9.88654 52.3133 9.91988 52.22 9.95988C52.14 9.99988 52.06 10.0465 51.98 10.0999C51.82 10.1932 51.66 10.2399 51.5 10.2399C51.3133 10.2399 51.1067 10.1865 50.88 10.0799C50.68 9.97321 50.4667 9.84654 50.24 9.69988C50.0133 9.55321 49.8133 9.41321 49.64 9.27988C49.4667 9.14654 49.4067 8.99988 49.46 8.83988C49.5133 8.67988 49.6533 8.61321 49.88 8.63988C50.12 8.66654 50.4 8.69321 50.72 8.71988C51.0533 8.73321 51.34 8.73988 51.58 8.73988C51.9267 8.73988 52.2867 8.72654 52.66 8.69988C53.0467 8.67321 53.4267 8.63321 53.8 8.57988L53.78 6.47988L53.1 6.59988C53.0067 6.62654 52.9133 6.65988 52.82 6.69988C52.74 6.73988 52.66 6.78654 52.58 6.83988C52.42 6.93321 52.26 6.97988 52.1 6.97988C51.9133 6.97988 51.7067 6.92654 51.48 6.81988C51.28 6.71321 51.0667 6.58654 50.84 6.43988C50.6133 6.29321 50.4133 6.15321 50.24 6.01988C50.0667 5.88654 50.0067 5.73988 50.06 5.57988C50.1133 5.41988 50.2533 5.35321 50.48 5.37988C50.72 5.40654 51 5.43321 51.32 5.45988C51.6533 5.47321 51.94 5.47988 52.18 5.47988C52.4333 5.47988 52.6933 5.47321 52.96 5.45988C53.2267 5.44654 53.4933 5.42654 53.76 5.39988L53.74 2.63988C53.5667 2.49321 53.34 2.33988 53.06 2.17988C52.7933 2.00654 52.54 1.85988 52.3 1.73988C52.0733 1.63321 51.96 1.49321 51.96 1.31988C51.96 1.21321 52.0267 1.11988 52.16 1.03988C52.3067 0.946544 52.5 0.899877 52.74 0.899877C52.9933 0.899877 53.3 0.939877 53.66 1.01988C53.9667 1.08654 54.3067 1.17988 54.68 1.29988C55.0667 1.40654 55.3933 1.53321 55.66 1.67988C55.8867 1.79988 56.0333 1.90654 56.1 1.99988C56.18 2.09321 56.22 2.21988 56.22 2.37988C56.22 2.43321 56.2133 2.51321 56.2 2.61988C56.1867 2.71321 56.1733 2.79988 56.16 2.87988C56.1333 3.06654 56.1133 3.22654 56.1 3.35988C56.0867 3.47988 56.08 3.59988 56.08 3.71988L56 8.73988ZM40.66 12.5599C41.4067 12.1199 42.1267 11.6265 42.82 11.0799C43.5267 10.5332 44.1733 9.93988 44.76 9.29988C45.36 8.64654 45.88 7.95988 46.32 7.23988C46.7733 6.51988 47.12 5.77321 47.36 4.99988C47.0133 4.98654 46.66 4.99988 46.3 5.03988C45.94 5.06654 45.6067 5.11321 45.3 5.17988C45.1933 5.20654 45.08 5.24654 44.96 5.29988C44.84 5.33988 44.7267 5.38654 44.62 5.43988C44.38 5.55988 44.1533 5.61988 43.94 5.61988C43.7533 5.61988 43.54 5.57321 43.3 5.47988C43.0467 5.37321 42.7733 5.24654 42.48 5.09988C42.2 4.93988 41.9467 4.79321 41.72 4.65988C41.6133 4.60654 41.54 4.53321 41.5 4.43988C41.4733 4.34654 41.4733 4.25988 41.5 4.17988C41.5267 4.09988 41.58 4.03988 41.66 3.99988C41.74 3.94654 41.84 3.92654 41.96 3.93988C42.2267 3.96654 42.4933 3.99321 42.76 4.01988C43.04 4.03321 43.3133 4.03988 43.58 4.03988C44.2867 4.03988 44.96 4.01988 45.6 3.97988L47.42 3.85988L48.18 3.33988L49.5 3.57988C50.1 3.68654 50.4 3.91321 50.4 4.25988C50.4 4.44654 50.3533 4.61988 50.26 4.77988C50.1667 4.92654 50.0467 5.07321 49.9 5.21988C49.58 6.25988 49.1067 7.20654 48.48 8.05988C47.8667 8.91321 47.16 9.67988 46.36 10.3599C45.56 11.0399 44.7067 11.6399 43.8 12.1599C42.9067 12.6665 42.02 13.0932 41.14 13.4399C40.98 13.5065 40.8333 13.5132 40.7 13.4599C40.58 13.4065 40.4933 13.3265 40.44 13.2199C40.3867 13.1132 40.3733 12.9999 40.4 12.8799C40.4267 12.7465 40.5133 12.6399 40.66 12.5599ZM49.12 16.4999C49.12 17.1399 49.3 17.6532 49.66 18.0399C50.0333 18.4399 50.54 18.6399 51.18 18.6399C51.82 18.6399 52.32 18.4399 52.68 18.0399C53.0533 17.6532 53.24 17.1399 53.24 16.4999C53.24 15.8599 53.0533 15.3465 52.68 14.9599C52.32 14.5599 51.82 14.3599 51.18 14.3599C50.54 14.3599 50.0333 14.5599 49.66 14.9599C49.3 15.3465 49.12 15.8599 49.12 16.4999ZM73.9 3.63988C73.2067 3.63988 72.5 3.65321 71.78 3.67988C71.06 3.69321 70.34 3.71321 69.62 3.73988C69.94 3.92654 70.2 4.10654 70.4 4.27988C70.6133 4.45321 70.72 4.61321 70.72 4.75988C70.72 4.98654 70.6 5.23321 70.36 5.49988L69.88 5.95988L70.74 6.25988C71.0467 6.36654 71.36 6.45321 71.68 6.51988C72 6.57321 72.3333 6.59988 72.68 6.59988C73 6.58654 73.26 6.59988 73.46 6.63988C73.6733 6.67988 73.8733 6.75321 74.06 6.85988C74.34 7.00654 74.5733 7.17321 74.76 7.35988C74.96 7.54654 75.1133 7.71988 75.22 7.87988C75.4333 8.22654 75.4867 8.52654 75.38 8.77988C75.3 8.96654 75.14 9.07988 74.9 9.11988C74.6733 9.15988 74.4333 9.11988 74.18 8.99988L68.86 6.75988C67.8733 7.45321 66.7667 8.07321 65.54 8.61988C64.3133 9.16654 63.1 9.59988 61.9 9.91988C61.74 9.95988 61.6 9.95321 61.48 9.89988C61.3733 9.83321 61.3 9.74654 61.26 9.63988C61.22 9.53321 61.22 9.41988 61.26 9.29988C61.3133 9.17988 61.4133 9.08654 61.56 9.01988C62.16 8.75321 62.7533 8.45321 63.34 8.11988C63.9267 7.78654 64.4867 7.44654 65.02 7.09988C65.5533 6.73988 66.04 6.37988 66.48 6.01988C66.9333 5.65988 67.3133 5.31321 67.62 4.97988C67.8067 4.76654 67.9133 4.59321 67.94 4.45988C67.98 4.31321 67.9667 4.10654 67.9 3.83988L66.32 3.95988C66.0933 3.98654 65.9133 4.01988 65.78 4.05988C65.66 4.09988 65.5333 4.15321 65.4 4.21988C65.2667 4.28654 65.1467 4.33321 65.04 4.35988C64.9333 4.38654 64.8267 4.39988 64.72 4.39988C64.52 4.39988 64.2933 4.34654 64.04 4.23988C63.7733 4.11988 63.4867 3.97988 63.18 3.81988C62.8867 3.64654 62.6067 3.46654 62.34 3.27988C62.2467 3.22654 62.1867 3.15988 62.16 3.07988C62.1333 2.98654 62.1333 2.90654 62.16 2.83988C62.1867 2.75988 62.2333 2.69988 62.3 2.65988C62.38 2.60654 62.4733 2.58654 62.58 2.59988C62.8867 2.63988 63.2267 2.67988 63.6 2.71988C63.9733 2.74654 64.3333 2.76654 64.68 2.77988C65.12 2.79321 65.6 2.79988 66.12 2.79988C66.6533 2.78654 67.1867 2.77321 67.72 2.75988C68.2533 2.73321 68.78 2.70654 69.3 2.67988C69.8333 2.65321 70.32 2.61988 70.76 2.57988C71.1333 2.53988 71.4467 2.44654 71.7 2.29988C71.8733 2.20654 72.0333 2.13988 72.18 2.09988C72.34 2.04654 72.5133 2.02654 72.7 2.03988C72.9933 2.05321 73.2667 2.07988 73.52 2.11988C73.7867 2.14654 73.9867 2.17321 74.12 2.19988C74.3467 2.25321 74.5133 2.34654 74.62 2.47988C74.74 2.59988 74.8 2.75321 74.8 2.93988C74.8 3.13988 74.7267 3.30654 74.58 3.43988C74.4333 3.57321 74.2067 3.63988 73.9 3.63988ZM76.34 12.2999C75.3267 12.2732 74.28 12.2532 73.2 12.2399C72.1333 12.2265 71.04 12.2265 69.92 12.2399L69.88 15.9799C69.8667 16.5665 69.8267 17.1132 69.76 17.6199C69.7067 18.1265 69.62 18.5932 69.5 19.0199C69.2733 19.7665 68.9267 20.1399 68.46 20.1399C68.3 20.1399 68.16 20.0799 68.04 19.9599C67.9333 19.8532 67.84 19.6665 67.76 19.3999C67.6933 19.1465 67.64 18.7999 67.6 18.3599C67.5733 17.9332 67.56 17.3932 67.56 16.7399L67.54 12.2999C66.9667 12.3265 66.42 12.3532 65.9 12.3799C65.38 12.4065 64.8933 12.4332 64.44 12.4599C64.0667 12.4865 63.7867 12.5199 63.6 12.5599C63.4133 12.5999 63.2267 12.6599 63.04 12.7399C62.88 12.8065 62.7267 12.8665 62.58 12.9199C62.4467 12.9599 62.32 12.9799 62.2 12.9799C62.0267 12.9799 61.8733 12.9599 61.74 12.9199C61.6067 12.8799 61.4667 12.8199 61.32 12.7399C61.04 12.5932 60.74 12.4199 60.42 12.2199C60.1133 12.0199 59.8467 11.8399 59.62 11.6799C59.4467 11.5465 59.3933 11.3932 59.46 11.2199C59.5267 11.0465 59.6733 10.9732 59.9 10.9999C60.3267 11.0532 60.7733 11.0999 61.24 11.1399C61.7067 11.1799 62.1667 11.2065 62.62 11.2199C63.34 11.2332 64.1133 11.2399 64.94 11.2399C65.78 11.2399 66.6267 11.2332 67.48 11.2199C68.3467 11.2065 69.2 11.1865 70.04 11.1599C70.8933 11.1199 71.7067 11.0799 72.48 11.0399C72.7467 11.0132 72.9867 10.9799 73.2 10.9399C73.4133 10.8999 73.5933 10.8465 73.74 10.7799C73.9667 10.6732 74.1533 10.5932 74.3 10.5399C74.46 10.4732 74.64 10.4399 74.84 10.4399C75.1733 10.4399 75.5067 10.4532 75.84 10.4799C76.1733 10.5065 76.4467 10.5399 76.66 10.5799C77.2467 10.6999 77.54 11.0132 77.54 11.5199C77.54 11.7465 77.4333 11.9399 77.22 12.0999C77.02 12.2465 76.7267 12.3132 76.34 12.2999ZM81.44 5.17988C81.28 5.07321 81.0667 4.96654 80.8 4.85988C80.5333 4.73988 80.2667 4.64654 80 4.57988C79.7733 4.51321 79.66 4.38654 79.66 4.19988C79.66 4.06654 79.7267 3.96654 79.86 3.89988C80.0067 3.81988 80.1867 3.76654 80.4 3.73988C80.52 3.72654 80.6533 3.71988 80.8 3.71988C80.96 3.71988 81.1333 3.73321 81.32 3.75988C81.64 3.78654 81.9733 3.83988 82.32 3.91988C82.6667 3.98654 82.9733 4.06654 83.24 4.15988C83.4667 4.22654 83.6067 4.30654 83.66 4.39988C83.7267 4.49321 83.76 4.61988 83.76 4.77988C83.76 4.83321 83.7533 4.91321 83.74 5.01988C83.74 5.11321 83.7333 5.20654 83.72 5.29988C83.7067 5.37988 83.7 5.47321 83.7 5.57988C83.7 5.68654 83.7 5.77988 83.7 5.85988V6.23988L87.48 6.11988L87.46 4.15988C87.3 4.03988 87.0933 3.91988 86.84 3.79988C86.6 3.67988 86.36 3.57988 86.12 3.49988C85.8933 3.43321 85.78 3.29321 85.78 3.07988C85.78 2.83988 86.02 2.70654 86.5 2.67988C86.62 2.66654 86.76 2.66654 86.92 2.67988C87.0933 2.67988 87.2733 2.69321 87.46 2.71988C87.7933 2.77321 88.1267 2.84654 88.46 2.93988C88.7933 3.03321 89.0933 3.13321 89.36 3.23988C89.5733 3.33321 89.7067 3.42654 89.76 3.51988C89.8267 3.59988 89.8533 3.71988 89.84 3.87988C89.84 3.93321 89.8333 3.99988 89.82 4.07988C89.8067 4.15988 89.7933 4.23988 89.78 4.31988C89.7533 4.50654 89.7333 4.67321 89.72 4.81988C89.7067 4.96654 89.7 5.09988 89.7 5.21988L89.62 9.43988C89.6067 9.66654 89.58 9.89988 89.54 10.1399C89.5 10.3665 89.4467 10.5732 89.38 10.7599C89.3133 10.9599 89.2 11.1332 89.04 11.2799C88.8933 11.4265 88.6867 11.4999 88.42 11.4999C88.22 11.4999 88.04 11.4332 87.88 11.2999C87.72 11.1532 87.62 10.9199 87.58 10.5999L83.54 10.7599C83.5267 10.8532 83.4933 10.9465 83.44 11.0399C83.36 11.2399 83.24 11.4132 83.08 11.5599C82.9333 11.7065 82.7267 11.7799 82.46 11.7799C82.2333 11.7799 82.0333 11.6865 81.86 11.4999C81.7 11.3132 81.6133 11.0065 81.6 10.5799L81.44 5.17988ZM94.36 6.89988L94.66 6.87988C94.82 6.86654 94.96 6.83988 95.08 6.79988C95.2 6.75988 95.3267 6.69988 95.46 6.61988C95.6067 6.52654 95.74 6.45988 95.86 6.41988C95.98 6.36654 96.1267 6.33988 96.3 6.33988C96.5267 6.33988 96.7333 6.35321 96.92 6.37988C97.12 6.40654 97.2867 6.43321 97.42 6.45988C97.6733 6.52654 97.8467 6.62654 97.94 6.75988C98.0467 6.89321 98.1 7.05321 98.1 7.23988C98.1 7.46654 98.0267 7.64654 97.88 7.77988C97.7467 7.91321 97.5267 7.97988 97.22 7.97988L94.32 8.01988C94.2933 8.52654 94.2533 9.00654 94.2 9.45988C94.1467 9.89988 94.0667 10.3065 93.96 10.6799C93.8533 11.0532 93.7133 11.3332 93.54 11.5199C93.3667 11.7065 93.1733 11.7999 92.96 11.7999C92.8533 11.7999 92.7467 11.7665 92.64 11.6999C92.5467 11.6332 92.4667 11.5132 92.4 11.3399C92.3333 11.1665 92.2733 10.9265 92.22 10.6199C92.18 10.3132 92.16 9.91988 92.16 9.43988L92.1 2.63988C91.9267 2.49321 91.7 2.33988 91.42 2.17988C91.1533 2.00654 90.9 1.85988 90.66 1.73988C90.4333 1.63321 90.32 1.49321 90.32 1.31988C90.32 1.21321 90.3867 1.11988 90.52 1.03988C90.6667 0.946544 90.86 0.899877 91.1 0.899877C91.3533 0.899877 91.66 0.939877 92.02 1.01988C92.3267 1.08654 92.6667 1.17988 93.04 1.29988C93.4267 1.40654 93.7533 1.53321 94.02 1.67988C94.2467 1.79988 94.3933 1.90654 94.46 1.99988C94.54 2.09321 94.58 2.21988 94.58 2.37988C94.58 2.43321 94.5733 2.51321 94.56 2.61988C94.5467 2.71321 94.5333 2.79988 94.52 2.87988C94.4933 3.06654 94.4733 3.22654 94.46 3.35988C94.4467 3.47988 94.44 3.59988 94.44 3.71988L94.36 6.89988ZM91.8 13.9399L88.76 14.0999C88.3867 14.1265 88.08 14.1665 87.84 14.2199C87.6 14.2732 87.3867 14.3532 87.2 14.4599C86.92 14.6065 86.6733 14.6799 86.46 14.6799C86.2067 14.6799 85.9733 14.6265 85.76 14.5199C85.4933 14.3865 85.2133 14.2465 84.92 14.0999C84.64 13.9399 84.38 13.7799 84.14 13.6199C84.06 13.5665 84.0067 13.4999 83.98 13.4199C83.9533 13.3265 83.9467 13.2465 83.96 13.1799C83.9867 13.0999 84.0333 13.0399 84.1 12.9999C84.1667 12.9465 84.2533 12.9265 84.36 12.9399C84.6667 12.9665 85.0067 12.9932 85.38 13.0199C85.7533 13.0465 86.1133 13.0665 86.46 13.0799C87.0067 13.0932 87.52 13.0932 88 13.0799C88.4933 13.0665 88.9733 13.0465 89.44 13.0199L91.62 12.8799L92.44 12.3199L93.76 12.5999C94.3067 12.6932 94.58 12.8932 94.58 13.1999C94.58 13.3465 94.54 13.4865 94.46 13.6199C94.3933 13.7532 94.3067 13.8865 94.2 14.0199L94.08 16.3399C94.0533 16.7265 94 17.1399 93.92 17.5799C93.8533 18.0199 93.76 18.3932 93.64 18.6999C93.5333 18.9799 93.3933 19.1999 93.22 19.3599C93.06 19.5199 92.8667 19.5999 92.64 19.5999C92.3733 19.5999 92.1733 19.4065 92.04 19.0199C91.9067 18.6332 91.8333 17.9599 91.82 16.9999L91.8 13.9399ZM83.7 9.69988L87.54 9.57988L87.5 7.15988L83.7 7.25988V9.69988ZM110.4 2.27988L111.36 1.61988L112.72 1.95988C113.053 2.03988 113.287 2.13321 113.42 2.23988C113.567 2.33321 113.64 2.45988 113.64 2.61988C113.64 2.80654 113.593 2.97321 113.5 3.11988C113.407 3.26654 113.287 3.41321 113.14 3.55988L112.3 6.19988C112.54 6.22654 112.74 6.29321 112.9 6.39988C113.06 6.50654 113.14 6.65988 113.14 6.85988C113.14 6.96654 113.12 7.05988 113.08 7.13988C113.04 7.20654 112.967 7.27321 112.86 7.33988C112.753 7.39321 112.593 7.43988 112.38 7.47988C112.18 7.50654 111.92 7.51988 111.6 7.51988L105.86 7.59988C105.78 7.82654 105.64 8.01321 105.44 8.15988C105.253 8.30654 105.02 8.38654 104.74 8.39988C104.473 8.41321 104.253 8.32654 104.08 8.13988C103.907 7.95321 103.8 7.64654 103.76 7.21988L103.4 3.53988C103.173 3.43321 102.933 3.34654 102.68 3.27988C102.44 3.19988 102.207 3.12654 101.98 3.05988C101.713 2.99321 101.58 2.85988 101.58 2.65988C101.58 2.51321 101.66 2.39321 101.82 2.29988C101.993 2.19321 102.253 2.13321 102.6 2.11988C103.093 2.10654 103.627 2.13321 104.2 2.19988C104.773 2.25321 105.313 2.33321 105.82 2.43988L110.4 2.27988ZM107.4 13.5599C107.027 13.5865 106.72 13.6265 106.48 13.6799C106.24 13.7332 106.027 13.8132 105.84 13.9199C105.56 14.0665 105.313 14.1399 105.1 14.1399C104.86 14.1399 104.627 14.0932 104.4 13.9999C104.133 13.8799 103.853 13.7399 103.56 13.5799C103.267 13.4199 103.007 13.2665 102.78 13.1199C102.687 13.0665 102.627 12.9999 102.6 12.9199C102.573 12.8265 102.573 12.7465 102.6 12.6799C102.627 12.5999 102.673 12.5399 102.74 12.4999C102.807 12.4465 102.893 12.4265 103 12.4399C103.307 12.4665 103.647 12.4932 104.02 12.5199C104.393 12.5465 104.753 12.5665 105.1 12.5799C106.167 12.5932 107.16 12.5732 108.08 12.5199L110.68 12.4199L111.5 11.8599L112.74 12.1199C113.287 12.2265 113.56 12.4332 113.56 12.7399C113.56 12.8865 113.52 13.0332 113.44 13.1799C113.36 13.3265 113.267 13.4665 113.16 13.5999L112.78 15.1399C113.167 15.2065 113.36 15.3932 113.36 15.6999C113.36 15.8732 113.287 16.0065 113.14 16.0999C113.007 16.1799 112.727 16.2265 112.3 16.2399L106.46 16.3599C106.46 16.4132 106.46 16.4599 106.46 16.4999C106.46 16.5399 106.453 16.5932 106.44 16.6599C106.427 16.7265 106.413 16.7865 106.4 16.8399C106.4 16.8932 106.4 16.9465 106.4 16.9999L106.42 17.6799C106.42 18.0665 106.62 18.2599 107.02 18.2599C107.193 18.2599 107.42 18.2599 107.7 18.2599C107.993 18.2599 108.293 18.2532 108.6 18.2399C108.92 18.2399 109.227 18.2332 109.52 18.2199C109.813 18.2199 110.053 18.2132 110.24 18.1999C110.4 18.1865 110.573 18.1599 110.76 18.1199C110.947 18.0799 111.133 18.0065 111.32 17.8999C111.467 17.8199 111.607 17.7532 111.74 17.6999C111.887 17.6599 112.047 17.6332 112.22 17.6199C112.5 17.6065 112.787 17.6065 113.08 17.6199C113.387 17.6465 113.68 17.6932 113.96 17.7599C114.373 17.8532 114.58 18.0999 114.58 18.4999C114.58 18.7265 114.5 18.8999 114.34 19.0199C114.18 19.1532 113.947 19.2199 113.64 19.2199L106.28 19.2799C105.48 19.2932 104.92 19.1999 104.6 18.9999C104.28 18.7999 104.113 18.4332 104.1 17.8999L104.08 16.4799C103.893 16.3732 103.673 16.2865 103.42 16.2199C103.18 16.1399 102.927 16.0665 102.66 15.9999C102.393 15.9332 102.26 15.7865 102.26 15.5599C102.26 15.4399 102.347 15.3265 102.52 15.2199C102.693 15.1132 102.94 15.0599 103.26 15.0599C104.367 15.0599 105.393 15.1599 106.34 15.3599L109.76 15.2799C109.947 15.2799 110.127 15.2732 110.3 15.2599C110.473 15.2332 110.64 15.2065 110.8 15.1799L110.84 13.4599L107.4 13.5599ZM115.9 10.0199C114.9 9.99321 113.86 9.97988 112.78 9.97988C111.713 9.97988 110.627 9.98654 109.52 9.99988V10.0999C109.52 10.3665 109.487 10.6265 109.42 10.8799C109.353 11.1199 109.26 11.3332 109.14 11.5199C109.033 11.7065 108.893 11.8599 108.72 11.9799C108.56 12.0999 108.373 12.1599 108.16 12.1599C107.88 12.1599 107.653 12.0532 107.48 11.8399C107.32 11.6132 107.227 11.2665 107.2 10.7999L107.16 10.0599C106.573 10.0865 106.013 10.1199 105.48 10.1599C104.947 10.1865 104.453 10.2132 104 10.2399C103.627 10.2665 103.347 10.2999 103.16 10.3399C102.973 10.3799 102.787 10.4399 102.6 10.5199C102.44 10.5865 102.287 10.6465 102.14 10.6999C102.007 10.7399 101.88 10.7599 101.76 10.7599C101.587 10.7599 101.433 10.7399 101.3 10.6999C101.167 10.6599 101.027 10.5999 100.88 10.5199C100.6 10.3732 100.3 10.1999 99.98 9.99988C99.6733 9.79988 99.4067 9.61988 99.18 9.45988C99.0067 9.32654 98.9533 9.17321 99.02 8.99988C99.0867 8.82654 99.2333 8.75321 99.46 8.77988C99.8867 8.83321 100.333 8.87988 100.8 8.91988C101.267 8.95988 101.727 8.98654 102.18 8.99988C102.9 9.01321 103.673 9.01988 104.5 9.01988C105.34 9.01988 106.187 9.01321 107.04 8.99988C107.907 8.97321 108.76 8.94654 109.6 8.91988C110.453 8.87988 111.267 8.83988 112.04 8.79988C112.307 8.77321 112.547 8.73988 112.76 8.69988C112.973 8.65988 113.153 8.60654 113.3 8.53988C113.527 8.43321 113.713 8.35321 113.86 8.29988C114.02 8.23321 114.2 8.19988 114.4 8.19988C114.733 8.19988 115.067 8.21321 115.4 8.23988C115.733 8.26654 116.007 8.29988 116.22 8.33988C116.807 8.45988 117.1 8.76654 117.1 9.25988C117.1 9.48654 116.993 9.67321 116.78 9.81988C116.58 9.96654 116.287 10.0332 115.9 10.0199ZM110.7 3.37988L105.82 3.53988L105.92 6.53988L109.44 6.49988C109.707 6.49988 109.94 6.46654 110.14 6.39988L110.54 6.25988L110.7 3.37988ZM134.12 7.73988L134.34 7.71988C134.5 7.70654 134.64 7.67988 134.76 7.63988C134.88 7.59988 135.007 7.53988 135.14 7.45988C135.287 7.36654 135.42 7.29988 135.54 7.25988C135.66 7.20654 135.807 7.17988 135.98 7.17988C136.207 7.17988 136.413 7.19321 136.6 7.21988C136.8 7.24654 136.967 7.27321 137.1 7.29988C137.353 7.36654 137.527 7.46654 137.62 7.59988C137.727 7.73321 137.78 7.89988 137.78 8.09988C137.78 8.32654 137.707 8.51321 137.56 8.65988C137.427 8.79321 137.207 8.85988 136.9 8.85988L134.1 8.89988L134.06 10.6599C134.047 11.2465 134.013 11.8132 133.96 12.3599C133.907 12.8932 133.827 13.3732 133.72 13.7999C133.507 14.6132 133.173 15.0199 132.72 15.0199C132.613 15.0199 132.513 14.9799 132.42 14.8999C132.327 14.8199 132.247 14.6799 132.18 14.4799C132.113 14.2799 132.06 14.0199 132.02 13.6999C131.98 13.3665 131.96 12.9532 131.96 12.4599L131.9 2.63988C131.727 2.49321 131.5 2.33988 131.22 2.17988C130.953 2.00654 130.7 1.85988 130.46 1.73988C130.233 1.63321 130.12 1.49321 130.12 1.31988C130.12 1.21321 130.187 1.11988 130.32 1.03988C130.467 0.946544 130.66 0.899877 130.9 0.899877C131.153 0.899877 131.46 0.939877 131.82 1.01988C132.127 1.08654 132.46 1.17988 132.82 1.29988C133.193 1.40654 133.513 1.53321 133.78 1.67988C134.007 1.79988 134.153 1.90654 134.22 1.99988C134.3 2.09321 134.34 2.21988 134.34 2.37988C134.34 2.43321 134.333 2.51321 134.32 2.61988C134.307 2.71321 134.293 2.79988 134.28 2.87988C134.253 3.06654 134.233 3.22654 134.22 3.35988C134.207 3.47988 134.2 3.59988 134.2 3.71988L134.12 7.73988ZM131.06 11.1599C130.473 11.3465 129.78 11.5332 128.98 11.7199C128.18 11.8932 127.42 12.0399 126.7 12.1599L123.54 12.6799C123.167 12.7465 122.82 12.8532 122.5 12.9999C122.367 13.0665 122.233 13.1265 122.1 13.1799C121.967 13.2199 121.833 13.2399 121.7 13.2399C121.46 13.2399 121.207 13.1732 120.94 13.0399C120.633 12.8932 120.3 12.7199 119.94 12.5199C119.593 12.3199 119.26 12.1065 118.94 11.8799C118.86 11.8265 118.807 11.7599 118.78 11.6799C118.753 11.5865 118.753 11.4999 118.78 11.4199C118.807 11.3399 118.853 11.2799 118.92 11.2399C119 11.1865 119.1 11.1665 119.22 11.1799C119.727 11.2465 120.24 11.2865 120.76 11.2999C121.28 11.3132 121.713 11.3132 122.06 11.2999C122.327 11.2865 122.6 11.2732 122.88 11.2599C123.173 11.2465 123.453 11.2265 123.72 11.1999L123.62 8.23988C123.513 8.17321 123.347 8.10654 123.12 8.03988C122.907 7.95988 122.667 7.89321 122.4 7.83988C122.213 7.79988 122.12 7.69321 122.12 7.51988C122.12 7.37321 122.193 7.25321 122.34 7.15988C122.487 7.06654 122.707 7.01321 123 6.99988C123.427 6.98654 123.867 6.99321 124.32 7.01988C124.787 7.04654 125.193 7.09321 125.54 7.15988C125.767 7.19988 125.907 7.27321 125.96 7.37988C126.013 7.48654 126.027 7.63321 126 7.81988C125.973 7.96654 125.953 8.10654 125.94 8.23988C125.94 8.37321 125.933 8.51321 125.92 8.65988L125.84 10.9599C126.76 10.8399 127.653 10.7132 128.52 10.5799C129.387 10.4332 130.16 10.2932 130.84 10.1599C131 10.1332 131.133 10.1599 131.24 10.2399C131.347 10.3199 131.407 10.4199 131.42 10.5399C131.447 10.6599 131.433 10.7799 131.38 10.8999C131.327 11.0199 131.22 11.1065 131.06 11.1599ZM127.86 17.4999C127.86 17.7132 127.907 17.8532 128 17.9199C128.093 17.9999 128.227 18.0465 128.4 18.0599C128.827 18.0865 129.313 18.0932 129.86 18.0799C130.407 18.0665 130.92 18.0465 131.4 18.0199C131.56 18.0065 131.713 17.9799 131.86 17.9399C132.02 17.9132 132.173 17.8599 132.32 17.7799C132.467 17.6999 132.633 17.6265 132.82 17.5599C133.007 17.5065 133.187 17.4799 133.36 17.4799C133.6 17.4799 133.873 17.4932 134.18 17.5199C134.487 17.5465 134.713 17.5732 134.86 17.5999C135.127 17.6532 135.32 17.7465 135.44 17.8799C135.56 18.0265 135.62 18.1932 135.62 18.3799C135.62 18.6065 135.54 18.7865 135.38 18.9199C135.233 19.0532 134.993 19.1199 134.66 19.1199L127.72 19.1799C126.88 19.1932 126.3 19.0399 125.98 18.7199C125.66 18.4132 125.487 17.9399 125.46 17.2999L125.4 15.3799C125.213 15.2865 124.987 15.1999 124.72 15.1199C124.453 15.0399 124.207 14.9665 123.98 14.8999C123.713 14.8332 123.58 14.6865 123.58 14.4599C123.58 14.3399 123.667 14.2265 123.84 14.1199C124.027 14.0132 124.273 13.9599 124.58 13.9599C124.753 13.9599 124.96 13.9665 125.2 13.9799C125.453 13.9932 125.7 14.0132 125.94 14.0399C126.193 14.0532 126.44 14.0732 126.68 14.0999C126.92 14.1265 127.12 14.1532 127.28 14.1799C127.547 14.2332 127.72 14.3132 127.8 14.4199C127.893 14.5132 127.94 14.6465 127.94 14.8199C127.94 14.9265 127.933 15.0265 127.92 15.1199C127.92 15.2132 127.913 15.3132 127.9 15.4199C127.887 15.5265 127.873 15.6399 127.86 15.7599C127.86 15.8665 127.86 15.9865 127.86 16.1199V17.4999ZM128.44 3.01988L129.92 3.43988C130.373 3.55988 130.6 3.75321 130.6 4.01988C130.6 4.16654 130.567 4.29321 130.5 4.39988C130.433 4.50654 130.333 4.62654 130.2 4.75988C130.053 5.59988 129.873 6.39321 129.66 7.13988C129.46 7.87321 129.253 8.49988 129.04 9.01988C128.96 9.21988 128.84 9.36654 128.68 9.45988C128.533 9.55321 128.38 9.59988 128.22 9.59988C128.033 9.59988 127.86 9.53321 127.7 9.39988C127.553 9.26654 127.493 9.06654 127.52 8.79988C127.573 8.15988 127.62 7.46654 127.66 6.71988C127.7 5.97321 127.733 5.29988 127.76 4.69988C127.28 4.71321 126.76 4.73988 126.2 4.77988C125.653 4.80654 125.08 4.85321 124.48 4.91988C124.253 4.94654 124.067 4.97988 123.92 5.01988C123.787 5.04654 123.647 5.09321 123.5 5.15988C123.313 5.22654 123.16 5.27988 123.04 5.31988C122.92 5.35988 122.807 5.37988 122.7 5.37988C122.593 5.37988 122.48 5.36654 122.36 5.33988C122.253 5.31321 122.127 5.25988 121.98 5.17988C121.74 5.05988 121.473 4.91321 121.18 4.73988C120.9 4.56654 120.64 4.38654 120.4 4.19988C120.24 4.07988 120.187 3.93321 120.24 3.75988C120.307 3.58654 120.453 3.51321 120.68 3.53988C121.107 3.60654 121.527 3.65988 121.94 3.69988C122.367 3.72654 122.753 3.73988 123.1 3.73988C123.593 3.75321 124.253 3.73988 125.08 3.69988C125.92 3.65988 126.8 3.60654 127.72 3.53988L128.44 3.01988Z" fill="#404040"/>
</svg>
