<svg width="251" height="67" viewBox="0 0 251 67" fill="none" xmlns="http://www.w3.org/2000/svg">
<path d="M33.1608 41.264C31.3368 41.216 29.4528 41.192 27.5088 41.192C25.5648 41.192 23.5848 41.204 21.5688 41.228L21.5328 41.84C21.4848 42.392 21.4128 42.944 21.3168 43.496C21.2208 44.048 21.0768 44.552 20.8848 45.008C20.5008 45.968 19.9128 46.448 19.1208 46.448C18.6888 46.448 18.3288 46.172 18.0408 45.62C17.7528 45.068 17.5848 44.228 17.5368 43.1L17.4648 41.336C16.4088 41.384 15.4008 41.444 14.4408 41.516C13.4808 41.564 12.5808 41.612 11.7408 41.66C11.0688 41.708 10.5648 41.768 10.2288 41.84C9.89284 41.912 9.55684 42.02 9.22084 42.164C8.93284 42.284 8.65684 42.392 8.39284 42.488C8.15284 42.56 7.92484 42.596 7.70884 42.596C7.39684 42.596 7.12084 42.56 6.88084 42.488C6.64084 42.416 6.38884 42.308 6.12484 42.164C5.62084 41.9 5.08084 41.588 4.50484 41.228C3.95284 40.868 3.47284 40.544 3.06484 40.256C2.75284 40.016 2.65684 39.74 2.77684 39.428C2.89684 39.116 3.16084 38.984 3.56884 39.032C4.33684 39.128 5.14084 39.212 5.98084 39.284C6.82084 39.356 7.64884 39.404 8.46484 39.428C9.76084 39.452 11.1528 39.464 12.6408 39.464C14.1528 39.464 15.6768 39.452 17.2128 39.428C18.7728 39.38 20.3088 39.332 21.8208 39.284C23.3568 39.212 24.8208 39.14 26.2128 39.068C26.6928 39.02 27.1248 38.96 27.5088 38.888C27.8928 38.816 28.2168 38.72 28.4808 38.6C28.8888 38.408 29.2248 38.264 29.4888 38.168C29.7768 38.048 30.1008 37.988 30.4608 37.988C31.0608 37.988 31.6608 38.012 32.2608 38.06C32.8608 38.108 33.3528 38.168 33.7368 38.24C34.7928 38.456 35.3208 39.008 35.3208 39.896C35.3208 40.304 35.1288 40.64 34.7448 40.904C34.3848 41.168 33.8568 41.288 33.1608 41.264ZM24.6648 48.752C23.4168 48.752 22.1928 48.776 20.9928 48.824C19.8168 48.872 18.6888 48.944 17.6088 49.04C16.8888 49.088 16.3008 49.16 15.8448 49.256C15.3888 49.352 14.9808 49.496 14.6208 49.688C14.0928 49.952 13.5528 50.084 13.0008 50.084C12.5448 50.084 12.0888 49.964 11.6328 49.724C11.2008 49.508 10.7328 49.256 10.2288 48.968C9.74884 48.656 9.30484 48.344 8.89684 48.032C8.58484 47.816 8.48884 47.564 8.60884 47.276C8.72884 46.964 8.96884 46.82 9.32884 46.844C9.76084 46.892 10.2768 46.94 10.8768 46.988C11.5008 47.036 12.1248 47.072 12.7488 47.096C13.7328 47.12 14.6568 47.132 15.5208 47.132C16.4088 47.132 17.2728 47.108 18.1128 47.06C19.0248 47.012 20.0328 46.964 21.1368 46.916C22.2408 46.868 23.3088 46.808 24.3408 46.736L25.8168 45.728L28.1928 46.232C29.1768 46.424 29.6688 46.784 29.6688 47.312C29.6688 47.576 29.5968 47.828 29.4528 48.068C29.3328 48.308 29.1768 48.548 28.9848 48.788L28.7688 52.712C28.7208 53.408 28.6248 54.152 28.4808 54.944C28.3608 55.736 28.1928 56.408 27.9768 56.96C27.7848 57.464 27.5328 57.86 27.2208 58.148C26.9328 58.436 26.5848 58.58 26.1768 58.58C25.6968 58.58 25.3368 58.232 25.0968 57.536C24.8568 56.84 24.7248 55.628 24.7008 53.9L24.6648 48.752ZM24.6288 36.656C24.7488 35.576 24.8808 34.472 25.0248 33.344C25.1928 32.216 25.2888 31.136 25.3128 30.104C24.6648 30.104 23.9328 30.116 23.1168 30.14C22.3008 30.164 21.4728 30.2 20.6328 30.248C19.7928 30.272 18.9768 30.308 18.1848 30.356C17.4168 30.404 16.7568 30.452 16.2048 30.5C15.4128 30.572 14.7528 30.74 14.2248 31.004C13.9608 31.148 13.7088 31.268 13.4688 31.364C13.2288 31.436 12.9768 31.472 12.7128 31.472C12.4488 31.472 12.2088 31.448 11.9928 31.4C11.8008 31.328 11.5728 31.208 11.3088 31.04C10.9008 30.8 10.4448 30.524 9.94084 30.212C9.46084 29.9 9.01684 29.576 8.60884 29.24C8.32084 29 8.22484 28.736 8.32084 28.448C8.41684 28.16 8.66884 28.04 9.07684 28.088C9.58084 28.136 10.1568 28.184 10.8048 28.232C11.4528 28.28 12.0888 28.328 12.7128 28.376C13.5048 28.424 14.3208 28.448 15.1608 28.448C16.0008 28.448 16.7688 28.436 17.4648 28.412C17.9688 28.412 18.5448 28.4 19.1928 28.376C19.8648 28.352 20.5368 28.328 21.2088 28.304C21.9048 28.28 22.5768 28.256 23.2248 28.232C23.8728 28.208 24.4368 28.172 24.9168 28.124L26.6448 26.936L29.0928 27.548C29.7168 27.692 30.1368 27.86 30.3528 28.052C30.5688 28.22 30.6768 28.448 30.6768 28.736C30.6768 29.072 30.5808 29.384 30.3888 29.672C30.1968 29.96 29.9688 30.224 29.7048 30.464C29.5848 30.968 29.4408 31.52 29.2728 32.12C29.1048 32.696 28.9008 33.296 28.6608 33.92C28.4448 34.52 28.2048 35.12 27.9408 35.72C27.6768 36.296 27.4128 36.848 27.1488 37.376C27.0048 37.64 26.8128 37.844 26.5728 37.988C26.3568 38.132 26.1288 38.204 25.8888 38.204C25.5528 38.204 25.2408 38.072 24.9528 37.808C24.6888 37.52 24.5808 37.136 24.6288 36.656ZM66.5688 54.404C66.5208 55.556 66.2928 56.456 65.8848 57.104C65.4768 57.776 64.9608 58.112 64.3368 58.112C63.5928 58.112 63.1368 57.704 62.9688 56.888L54.7968 57.14C54.6768 57.476 54.4368 57.788 54.0768 58.076C53.7168 58.388 53.2968 58.544 52.8168 58.544C51.8568 58.544 51.3648 57.824 51.3408 56.384L51.0888 48.68C50.7768 48.488 50.4048 48.296 49.9728 48.104C49.5408 47.912 49.0848 47.732 48.6048 47.564C48.1968 47.42 47.9928 47.192 47.9928 46.88C47.9928 46.64 48.1128 46.448 48.3528 46.304C48.6168 46.136 48.9408 46.028 49.3248 45.98C49.5408 45.956 49.7808 45.944 50.0448 45.944C50.3088 45.944 50.6088 45.968 50.9448 46.016C51.5448 46.064 52.1448 46.16 52.7448 46.304C53.3448 46.424 53.8848 46.568 54.3648 46.736C54.7728 46.856 55.0248 47 55.1208 47.168C55.2408 47.336 55.3008 47.564 55.3008 47.852C55.3008 47.948 55.2888 48.092 55.2648 48.284C55.2648 48.452 55.2528 48.608 55.2288 48.752C55.2048 48.944 55.1808 49.124 55.1568 49.292C55.1568 49.46 55.1568 49.616 55.1568 49.76V50.336L62.7168 50.192L62.6808 47.492C62.3688 47.252 62.0208 47.024 61.6368 46.808C61.2528 46.592 60.8448 46.4 60.4128 46.232C60.0048 46.088 59.8008 45.848 59.8008 45.512C59.8008 45.296 59.9088 45.116 60.1248 44.972C60.3648 44.804 60.6888 44.72 61.0968 44.72C61.3128 44.72 61.5408 44.732 61.7808 44.756C62.0448 44.78 62.3448 44.816 62.6808 44.864C63.2328 44.96 63.8208 45.092 64.4448 45.26C65.0688 45.404 65.6208 45.572 66.1008 45.764C66.4848 45.932 66.7248 46.1 66.8208 46.268C66.9408 46.412 66.9888 46.628 66.9648 46.916C66.9648 47.012 66.9528 47.132 66.9288 47.276C66.9048 47.42 66.8808 47.564 66.8568 47.708C66.8088 48.044 66.7728 48.344 66.7488 48.608C66.7248 48.872 66.7128 49.112 66.7128 49.328L66.5688 54.404ZM43.5288 37.448C43.1928 37.28 42.7848 37.124 42.3048 36.98C41.8248 36.836 41.3808 36.704 40.9728 36.584C40.4928 36.464 40.2528 36.2 40.2528 35.792C40.2528 35.576 40.4088 35.384 40.7208 35.216C41.0568 35.024 41.5008 34.916 42.0528 34.892C42.9888 34.868 43.9248 34.904 44.8608 35C45.8208 35.096 46.6968 35.24 47.4888 35.432L52.3488 35.18L52.7088 31.688L49.4328 31.832C48.8568 31.856 48.3648 31.928 47.9568 32.048C47.5488 32.144 47.1528 32.276 46.7688 32.444C46.5048 32.564 46.2408 32.66 45.9768 32.732C45.7368 32.804 45.4968 32.84 45.2568 32.84C45.0168 32.84 44.7768 32.804 44.5368 32.732C44.3208 32.66 44.1048 32.564 43.8888 32.444C43.0488 32.012 42.2688 31.508 41.5488 30.932C41.2368 30.692 41.1408 30.428 41.2608 30.14C41.3808 29.852 41.6208 29.72 41.9808 29.744C42.4128 29.792 42.9288 29.84 43.5288 29.888C44.1528 29.936 44.7768 29.972 45.4008 29.996C46.3128 30.02 47.1528 30.02 47.9208 29.996C48.6888 29.972 49.4688 29.936 50.2608 29.888L52.3128 29.816L53.8968 28.772L56.2728 29.24C56.8248 29.36 57.2208 29.516 57.4608 29.708C57.7008 29.876 57.8208 30.128 57.8208 30.464C57.8208 31.016 57.5088 31.544 56.8848 32.048L55.6968 34.892C56.0808 34.94 56.3928 35.06 56.6328 35.252C56.8968 35.42 57.0288 35.672 57.0288 36.008C57.0288 36.152 56.9928 36.296 56.9208 36.44C56.8728 36.56 56.7528 36.668 56.5608 36.764C56.3928 36.836 56.1408 36.908 55.8048 36.98C55.4688 37.028 55.0128 37.064 54.4368 37.088L47.9928 37.412C47.9448 37.556 47.9088 37.7 47.8848 37.844C47.8608 37.988 47.8488 38.156 47.8488 38.348V40.328C47.8488 40.856 48.1008 41.096 48.6048 41.048C49.4208 40.976 50.3208 40.856 51.3048 40.688C52.3128 40.52 53.3328 40.34 54.3648 40.148C55.4208 39.932 56.4528 39.704 57.4608 39.464C58.4928 39.2 59.4648 38.936 60.3768 38.672C60.6648 38.576 60.9168 38.588 61.1328 38.708C61.3488 38.828 61.4928 38.996 61.5648 39.212C61.6368 39.404 61.6368 39.62 61.5648 39.86C61.4928 40.076 61.3368 40.244 61.0968 40.364C60.6648 40.58 60.1608 40.808 59.5848 41.048C59.0328 41.288 58.4328 41.528 57.7848 41.768C57.1368 42.008 56.4768 42.248 55.8048 42.488C55.1328 42.704 54.4848 42.908 53.8608 43.1C52.4448 43.508 51.0648 43.856 49.7208 44.144C48.4008 44.432 47.2848 44.612 46.3728 44.684C46.1328 44.708 45.8568 44.624 45.5448 44.432C45.2328 44.24 44.9328 44 44.6448 43.712C44.3568 43.424 44.1048 43.112 43.8888 42.776C43.6968 42.416 43.6008 42.08 43.6008 41.768L43.5288 37.448ZM67.2168 38.024C67.1928 38.72 67.1208 39.464 67.0008 40.256C66.8808 41.024 66.7248 41.684 66.5328 42.236C66.3408 42.716 66.0888 43.148 65.7768 43.532C65.4888 43.892 65.1408 44.072 64.7328 44.072C64.4448 44.072 64.2048 44 64.0128 43.856C63.8448 43.712 63.7008 43.46 63.5808 43.1C63.4848 42.74 63.4008 42.26 63.3288 41.66C63.2808 41.06 63.2568 40.304 63.2568 39.392L63.1488 28.052C62.8368 27.788 62.4288 27.512 61.9248 27.224C61.4448 26.912 60.9888 26.648 60.5568 26.432C60.1488 26.24 59.9448 25.988 59.9448 25.676C59.9448 25.484 60.0648 25.316 60.3048 25.172C60.5688 25.004 60.9168 24.92 61.3488 24.92C61.8048 24.92 62.3568 24.992 63.0048 25.136C63.5568 25.256 64.1688 25.424 64.8408 25.64C65.5368 25.832 66.1248 26.06 66.6048 26.324C67.0128 26.54 67.2768 26.732 67.3968 26.9C67.5408 27.068 67.6128 27.296 67.6128 27.584C67.6128 27.68 67.6008 27.824 67.5768 28.016C67.5528 28.184 67.5288 28.34 67.5048 28.484C67.4568 28.82 67.4208 29.108 67.3968 29.348C67.3728 29.564 67.3608 29.78 67.3608 29.996L67.2168 38.024ZM55.1208 55.268L62.8248 55.052L62.7528 52.028L55.1208 52.172V55.268ZM86.8008 53C86.8008 51.416 87.3768 50.12 88.5288 49.112C89.6808 48.08 91.2288 47.456 93.1728 47.24C93.2928 47.12 93.3888 47 93.4608 46.88C93.5328 46.736 93.5688 46.616 93.5688 46.52C93.5688 46.328 93.5328 46.172 93.4608 46.052C93.4128 45.908 93.2568 45.776 92.9928 45.656C92.8728 45.584 92.7648 45.512 92.6688 45.44C92.5968 45.368 92.5608 45.248 92.5608 45.08C92.5608 44.912 92.6568 44.78 92.8488 44.684C93.0648 44.564 93.2928 44.504 93.5328 44.504C94.4928 44.504 95.3208 44.672 96.0168 45.008C96.5448 45.272 96.8568 45.512 96.9528 45.728C97.0728 45.92 97.0848 46.148 96.9888 46.412C96.9408 46.556 96.8568 46.712 96.7368 46.88C96.6168 47.024 96.4968 47.156 96.3768 47.276C97.2648 47.396 98.0808 47.624 98.8248 47.96C99.5928 48.272 100.253 48.68 100.805 49.184C101.357 49.664 101.789 50.228 102.101 50.876C102.413 51.524 102.569 52.232 102.569 53C102.569 53.888 102.377 54.692 101.993 55.412C101.633 56.132 101.105 56.744 100.409 57.248C99.7128 57.776 98.8728 58.172 97.8888 58.436C96.9288 58.724 95.8608 58.868 94.6848 58.868C93.4848 58.868 92.4048 58.724 91.4448 58.436C90.4848 58.172 89.6568 57.776 88.9608 57.248C88.2648 56.744 87.7248 56.132 87.3408 55.412C86.9808 54.692 86.8008 53.888 86.8008 53ZM103.361 39.032C103.337 40.088 103.265 41.072 103.145 41.984C103.025 42.896 102.869 43.736 102.677 44.504C102.485 45.176 102.233 45.68 101.921 46.016C101.609 46.352 101.261 46.52 100.877 46.52C100.685 46.52 100.493 46.46 100.301 46.34C100.133 46.22 99.9888 46.004 99.8688 45.692C99.7488 45.38 99.6408 44.948 99.5448 44.396C99.4728 43.844 99.4368 43.136 99.4368 42.272L99.4008 40.688C98.9688 40.736 98.5488 40.796 98.1408 40.868C97.7568 40.94 97.3968 41 97.0608 41.048C96.8928 41.096 96.7248 41.156 96.5568 41.228C96.4128 41.3 96.2688 41.384 96.1248 41.48C95.8368 41.648 95.5488 41.732 95.2608 41.732C94.9248 41.732 94.5528 41.636 94.1448 41.444C93.7848 41.252 93.4008 41.024 92.9928 40.76C92.5848 40.496 92.2248 40.244 91.9128 40.004C91.6008 39.764 91.4928 39.5 91.5888 39.212C91.6848 38.924 91.9368 38.804 92.3448 38.852C92.7768 38.9 93.2808 38.948 93.8568 38.996C94.4568 39.02 94.9728 39.032 95.4048 39.032C96.0288 39.032 96.6768 39.008 97.3488 38.96C98.0448 38.912 98.7288 38.84 99.4008 38.744L99.3648 34.964L98.1408 35.18C97.9728 35.228 97.8048 35.288 97.6368 35.36C97.4928 35.432 97.3488 35.516 97.2048 35.612C96.9168 35.78 96.6288 35.864 96.3408 35.864C96.0048 35.864 95.6328 35.768 95.2248 35.576C94.8648 35.384 94.4808 35.156 94.0728 34.892C93.6648 34.628 93.3048 34.376 92.9928 34.136C92.6808 33.896 92.5728 33.632 92.6688 33.344C92.7648 33.056 93.0168 32.936 93.4248 32.984C93.8568 33.032 94.3608 33.08 94.9368 33.128C95.5368 33.152 96.0528 33.164 96.4848 33.164C96.9408 33.164 97.4088 33.152 97.8888 33.128C98.3688 33.104 98.8488 33.068 99.3288 33.02L99.2928 28.052C98.9808 27.788 98.5728 27.512 98.0688 27.224C97.5888 26.912 97.1328 26.648 96.7008 26.432C96.2928 26.24 96.0888 25.988 96.0888 25.676C96.0888 25.484 96.2088 25.316 96.4488 25.172C96.7128 25.004 97.0608 24.92 97.4928 24.92C97.9488 24.92 98.5008 24.992 99.1488 25.136C99.7008 25.256 100.313 25.424 100.985 25.64C101.681 25.832 102.269 26.06 102.749 26.324C103.157 26.54 103.421 26.732 103.541 26.9C103.685 27.068 103.757 27.296 103.757 27.584C103.757 27.68 103.745 27.824 103.721 28.016C103.697 28.184 103.673 28.34 103.649 28.484C103.601 28.82 103.565 29.108 103.541 29.348C103.517 29.564 103.505 29.78 103.505 29.996L103.361 39.032ZM75.7488 45.908C77.0928 45.116 78.3888 44.228 79.6368 43.244C80.9088 42.26 82.0728 41.192 83.1288 40.04C84.2088 38.864 85.1448 37.628 85.9368 36.332C86.7528 35.036 87.3768 33.692 87.8088 32.3C87.1848 32.276 86.5488 32.3 85.9008 32.372C85.2528 32.42 84.6528 32.504 84.1008 32.624C83.9088 32.672 83.7048 32.744 83.4888 32.84C83.2728 32.912 83.0688 32.996 82.8768 33.092C82.4448 33.308 82.0368 33.416 81.6528 33.416C81.3168 33.416 80.9328 33.332 80.5008 33.164C80.0448 32.972 79.5528 32.744 79.0248 32.48C78.5208 32.192 78.0648 31.928 77.6568 31.688C77.4648 31.592 77.3328 31.46 77.2608 31.292C77.2128 31.124 77.2128 30.968 77.2608 30.824C77.3088 30.68 77.4048 30.572 77.5488 30.5C77.6928 30.404 77.8728 30.368 78.0888 30.392C78.5688 30.44 79.0488 30.488 79.5288 30.536C80.0328 30.56 80.5248 30.572 81.0048 30.572C82.2768 30.572 83.4888 30.536 84.6408 30.464L87.9168 30.248L89.2848 29.312L91.6608 29.744C92.7408 29.936 93.2808 30.344 93.2808 30.968C93.2808 31.304 93.1968 31.616 93.0288 31.904C92.8608 32.168 92.6448 32.432 92.3808 32.696C91.8048 34.568 90.9528 36.272 89.8248 37.808C88.7208 39.344 87.4488 40.724 86.0088 41.948C84.5688 43.172 83.0328 44.252 81.4008 45.188C79.7928 46.1 78.1968 46.868 76.6128 47.492C76.3248 47.612 76.0608 47.624 75.8208 47.528C75.6048 47.432 75.4488 47.288 75.3528 47.096C75.2568 46.904 75.2328 46.7 75.2808 46.484C75.3288 46.244 75.4848 46.052 75.7488 45.908ZM90.9768 53C90.9768 54.152 91.3008 55.076 91.9488 55.772C92.6208 56.492 93.5328 56.852 94.6848 56.852C95.8368 56.852 96.7368 56.492 97.3848 55.772C98.0568 55.076 98.3928 54.152 98.3928 53C98.3928 51.848 98.0568 50.924 97.3848 50.228C96.7368 49.508 95.8368 49.148 94.6848 49.148C93.5328 49.148 92.6208 49.508 91.9488 50.228C91.3008 50.924 90.9768 51.848 90.9768 53ZM135.581 29.852C134.333 29.852 133.061 29.876 131.765 29.924C130.469 29.948 129.173 29.984 127.877 30.032C128.453 30.368 128.921 30.692 129.281 31.004C129.665 31.316 129.857 31.604 129.857 31.868C129.857 32.276 129.641 32.72 129.209 33.2L128.345 34.028L129.893 34.568C130.445 34.76 131.009 34.916 131.585 35.036C132.161 35.132 132.761 35.18 133.385 35.18C133.961 35.156 134.429 35.18 134.789 35.252C135.173 35.324 135.533 35.456 135.869 35.648C136.373 35.912 136.793 36.212 137.129 36.548C137.489 36.884 137.765 37.196 137.957 37.484C138.341 38.108 138.437 38.648 138.245 39.104C138.101 39.44 137.813 39.644 137.381 39.716C136.973 39.788 136.541 39.716 136.085 39.5L126.509 35.468C124.733 36.716 122.741 37.832 120.533 38.816C118.325 39.8 116.141 40.58 113.981 41.156C113.693 41.228 113.441 41.216 113.225 41.12C113.033 41 112.901 40.844 112.829 40.652C112.757 40.46 112.757 40.256 112.829 40.04C112.925 39.824 113.105 39.656 113.369 39.536C114.449 39.056 115.517 38.516 116.573 37.916C117.629 37.316 118.637 36.704 119.597 36.08C120.557 35.432 121.433 34.784 122.225 34.136C123.041 33.488 123.725 32.864 124.277 32.264C124.613 31.88 124.805 31.568 124.853 31.328C124.925 31.064 124.901 30.692 124.781 30.212L121.937 30.428C121.529 30.476 121.205 30.536 120.965 30.608C120.749 30.68 120.521 30.776 120.281 30.896C120.041 31.016 119.825 31.1 119.633 31.148C119.441 31.196 119.249 31.22 119.057 31.22C118.697 31.22 118.289 31.124 117.833 30.932C117.353 30.716 116.837 30.464 116.285 30.176C115.757 29.864 115.253 29.54 114.773 29.204C114.605 29.108 114.497 28.988 114.449 28.844C114.401 28.676 114.401 28.532 114.449 28.412C114.497 28.268 114.581 28.16 114.701 28.088C114.845 27.992 115.013 27.956 115.205 27.98C115.757 28.052 116.369 28.124 117.041 28.196C117.713 28.244 118.361 28.28 118.985 28.304C119.777 28.328 120.641 28.34 121.577 28.34C122.537 28.316 123.497 28.292 124.457 28.268C125.417 28.22 126.365 28.172 127.301 28.124C128.261 28.076 129.137 28.016 129.929 27.944C130.601 27.872 131.165 27.704 131.621 27.44C131.933 27.272 132.221 27.152 132.485 27.08C132.773 26.984 133.085 26.948 133.421 26.972C133.949 26.996 134.441 27.044 134.897 27.116C135.377 27.164 135.737 27.212 135.977 27.26C136.385 27.356 136.685 27.524 136.877 27.764C137.093 27.98 137.201 28.256 137.201 28.592C137.201 28.952 137.069 29.252 136.805 29.492C136.541 29.732 136.133 29.852 135.581 29.852ZM139.973 45.44C138.149 45.392 136.265 45.356 134.321 45.332C132.401 45.308 130.433 45.308 128.417 45.332L128.345 52.064C128.321 53.12 128.249 54.104 128.129 55.016C128.033 55.928 127.877 56.768 127.661 57.536C127.253 58.88 126.629 59.552 125.789 59.552C125.501 59.552 125.249 59.444 125.033 59.228C124.841 59.036 124.673 58.7 124.529 58.22C124.409 57.764 124.313 57.14 124.241 56.348C124.193 55.58 124.169 54.608 124.169 53.432L124.133 45.44C123.101 45.488 122.117 45.536 121.181 45.584C120.245 45.632 119.369 45.68 118.553 45.728C117.881 45.776 117.377 45.836 117.041 45.908C116.705 45.98 116.369 46.088 116.033 46.232C115.745 46.352 115.469 46.46 115.205 46.556C114.965 46.628 114.737 46.664 114.521 46.664C114.209 46.664 113.933 46.628 113.693 46.556C113.453 46.484 113.201 46.376 112.937 46.232C112.433 45.968 111.893 45.656 111.317 45.296C110.765 44.936 110.285 44.612 109.877 44.324C109.565 44.084 109.469 43.808 109.589 43.496C109.709 43.184 109.973 43.052 110.381 43.1C111.149 43.196 111.953 43.28 112.793 43.352C113.633 43.424 114.461 43.472 115.277 43.496C116.573 43.52 117.965 43.532 119.453 43.532C120.965 43.532 122.489 43.52 124.025 43.496C125.585 43.472 127.121 43.436 128.633 43.388C130.169 43.316 131.633 43.244 133.025 43.172C133.505 43.124 133.937 43.064 134.321 42.992C134.705 42.92 135.029 42.824 135.293 42.704C135.701 42.512 136.037 42.368 136.301 42.272C136.589 42.152 136.913 42.092 137.273 42.092C137.873 42.092 138.473 42.116 139.073 42.164C139.673 42.212 140.165 42.272 140.549 42.344C141.605 42.56 142.133 43.124 142.133 44.036C142.133 44.444 141.941 44.792 141.557 45.08C141.197 45.344 140.669 45.464 139.973 45.44ZM149.153 32.624C148.865 32.432 148.481 32.24 148.001 32.048C147.521 31.832 147.041 31.664 146.561 31.544C146.153 31.424 145.949 31.196 145.949 30.86C145.949 30.62 146.069 30.44 146.309 30.32C146.573 30.176 146.897 30.08 147.281 30.032C147.497 30.008 147.737 29.996 148.001 29.996C148.289 29.996 148.601 30.02 148.937 30.068C149.513 30.116 150.113 30.212 150.737 30.356C151.361 30.476 151.913 30.62 152.393 30.788C152.801 30.908 153.053 31.052 153.149 31.22C153.269 31.388 153.329 31.616 153.329 31.904C153.329 32 153.317 32.144 153.293 32.336C153.293 32.504 153.281 32.672 153.257 32.84C153.233 32.984 153.221 33.152 153.221 33.344C153.221 33.536 153.221 33.704 153.221 33.848V34.532L160.025 34.316L159.989 30.788C159.701 30.572 159.329 30.356 158.873 30.14C158.441 29.924 158.009 29.744 157.577 29.6C157.169 29.48 156.965 29.228 156.965 28.844C156.965 28.412 157.397 28.172 158.261 28.124C158.477 28.1 158.729 28.1 159.017 28.124C159.329 28.124 159.653 28.148 159.989 28.196C160.589 28.292 161.189 28.424 161.789 28.592C162.389 28.76 162.929 28.94 163.409 29.132C163.793 29.3 164.033 29.468 164.129 29.636C164.249 29.78 164.297 29.996 164.273 30.284C164.273 30.38 164.261 30.5 164.237 30.644C164.213 30.788 164.189 30.932 164.165 31.076C164.117 31.412 164.081 31.712 164.057 31.976C164.033 32.24 164.021 32.48 164.021 32.696L163.877 40.292C163.853 40.7 163.805 41.12 163.733 41.552C163.661 41.96 163.565 42.332 163.445 42.668C163.325 43.028 163.121 43.34 162.833 43.604C162.569 43.868 162.197 44 161.717 44C161.357 44 161.033 43.88 160.745 43.64C160.457 43.376 160.277 42.956 160.205 42.38L152.933 42.668C152.909 42.836 152.849 43.004 152.753 43.172C152.609 43.532 152.393 43.844 152.105 44.108C151.841 44.372 151.469 44.504 150.989 44.504C150.581 44.504 150.221 44.336 149.909 44C149.621 43.664 149.465 43.112 149.441 42.344L149.153 32.624ZM172.409 35.72L172.949 35.684C173.237 35.66 173.489 35.612 173.705 35.54C173.921 35.468 174.149 35.36 174.389 35.216C174.653 35.048 174.893 34.928 175.109 34.856C175.325 34.76 175.589 34.712 175.901 34.712C176.309 34.712 176.681 34.736 177.017 34.784C177.377 34.832 177.677 34.88 177.917 34.928C178.373 35.048 178.685 35.228 178.853 35.468C179.045 35.708 179.141 35.996 179.141 36.332C179.141 36.74 179.009 37.064 178.745 37.304C178.505 37.544 178.109 37.664 177.557 37.664L172.337 37.736C172.289 38.648 172.217 39.512 172.121 40.328C172.025 41.12 171.881 41.852 171.689 42.524C171.497 43.196 171.245 43.7 170.933 44.036C170.621 44.372 170.273 44.54 169.889 44.54C169.697 44.54 169.505 44.48 169.313 44.36C169.145 44.24 169.001 44.024 168.881 43.712C168.761 43.4 168.653 42.968 168.557 42.416C168.485 41.864 168.449 41.156 168.449 40.292L168.341 28.052C168.029 27.788 167.621 27.512 167.117 27.224C166.637 26.912 166.181 26.648 165.749 26.432C165.341 26.24 165.137 25.988 165.137 25.676C165.137 25.484 165.257 25.316 165.497 25.172C165.761 25.004 166.109 24.92 166.541 24.92C166.997 24.92 167.549 24.992 168.197 25.136C168.749 25.256 169.361 25.424 170.033 25.64C170.729 25.832 171.317 26.06 171.797 26.324C172.205 26.54 172.469 26.732 172.589 26.9C172.733 27.068 172.805 27.296 172.805 27.584C172.805 27.68 172.793 27.824 172.769 28.016C172.745 28.184 172.721 28.34 172.697 28.484C172.649 28.82 172.613 29.108 172.589 29.348C172.565 29.564 172.553 29.78 172.553 29.996L172.409 35.72ZM167.801 48.392L162.329 48.68C161.657 48.728 161.105 48.8 160.673 48.896C160.241 48.992 159.857 49.136 159.521 49.328C159.017 49.592 158.573 49.724 158.189 49.724C157.733 49.724 157.313 49.628 156.929 49.436C156.449 49.196 155.945 48.944 155.417 48.68C154.913 48.392 154.445 48.104 154.013 47.816C153.869 47.72 153.773 47.6 153.725 47.456C153.677 47.288 153.665 47.144 153.689 47.024C153.737 46.88 153.821 46.772 153.941 46.7C154.061 46.604 154.217 46.568 154.409 46.592C154.961 46.64 155.573 46.688 156.245 46.736C156.917 46.784 157.565 46.82 158.189 46.844C159.173 46.868 160.097 46.868 160.961 46.844C161.849 46.82 162.713 46.784 163.553 46.736L167.477 46.484L168.953 45.476L171.329 45.98C172.313 46.148 172.805 46.508 172.805 47.06C172.805 47.324 172.733 47.576 172.589 47.816C172.469 48.056 172.313 48.296 172.121 48.536L171.905 52.712C171.857 53.408 171.761 54.152 171.617 54.944C171.497 55.736 171.329 56.408 171.113 56.96C170.921 57.464 170.669 57.86 170.357 58.148C170.069 58.436 169.721 58.58 169.313 58.58C168.833 58.58 168.473 58.232 168.233 57.536C167.993 56.84 167.861 55.628 167.837 53.9L167.801 48.392ZM153.221 40.76L160.133 40.544L160.061 36.188L153.221 36.368V40.76ZM201.281 27.404L203.009 26.216L205.457 26.828C206.057 26.972 206.477 27.14 206.717 27.332C206.981 27.5 207.113 27.728 207.113 28.016C207.113 28.352 207.029 28.652 206.861 28.916C206.693 29.18 206.477 29.444 206.213 29.708L204.701 34.46C205.133 34.508 205.493 34.628 205.781 34.82C206.069 35.012 206.213 35.288 206.213 35.648C206.213 35.84 206.177 36.008 206.105 36.152C206.033 36.272 205.901 36.392 205.709 36.512C205.517 36.608 205.229 36.692 204.845 36.764C204.485 36.812 204.017 36.836 203.441 36.836L193.109 36.98C192.965 37.388 192.713 37.724 192.353 37.988C192.017 38.252 191.597 38.396 191.093 38.42C190.613 38.444 190.217 38.288 189.905 37.952C189.593 37.616 189.401 37.064 189.329 36.296L188.681 29.672C188.273 29.48 187.841 29.324 187.385 29.204C186.953 29.06 186.533 28.928 186.125 28.808C185.645 28.688 185.405 28.448 185.405 28.088C185.405 27.824 185.549 27.608 185.837 27.44C186.149 27.248 186.617 27.14 187.241 27.116C188.129 27.092 189.089 27.14 190.121 27.26C191.153 27.356 192.125 27.5 193.037 27.692L201.281 27.404ZM195.881 47.708C195.209 47.756 194.657 47.828 194.225 47.924C193.793 48.02 193.409 48.164 193.073 48.356C192.569 48.62 192.125 48.752 191.741 48.752C191.309 48.752 190.889 48.668 190.481 48.5C190.001 48.284 189.497 48.032 188.969 47.744C188.441 47.456 187.973 47.18 187.565 46.916C187.397 46.82 187.289 46.7 187.241 46.556C187.193 46.388 187.193 46.244 187.241 46.124C187.289 45.98 187.373 45.872 187.493 45.8C187.613 45.704 187.769 45.668 187.961 45.692C188.513 45.74 189.125 45.788 189.797 45.836C190.469 45.884 191.117 45.92 191.741 45.944C193.661 45.968 195.449 45.932 197.105 45.836L201.785 45.656L203.261 44.648L205.493 45.116C206.477 45.308 206.969 45.68 206.969 46.232C206.969 46.496 206.897 46.76 206.753 47.024C206.609 47.288 206.441 47.54 206.249 47.78L205.565 50.552C206.261 50.672 206.609 51.008 206.609 51.56C206.609 51.872 206.477 52.112 206.213 52.28C205.973 52.424 205.469 52.508 204.701 52.532L194.189 52.748C194.189 52.844 194.189 52.928 194.189 53C194.189 53.072 194.177 53.168 194.153 53.288C194.129 53.408 194.105 53.516 194.081 53.612C194.081 53.708 194.081 53.804 194.081 53.9L194.117 55.124C194.117 55.82 194.477 56.168 195.197 56.168C195.509 56.168 195.917 56.168 196.421 56.168C196.949 56.168 197.489 56.156 198.041 56.132C198.617 56.132 199.169 56.12 199.697 56.096C200.225 56.096 200.657 56.084 200.993 56.06C201.281 56.036 201.593 55.988 201.929 55.916C202.265 55.844 202.601 55.712 202.937 55.52C203.201 55.376 203.453 55.256 203.693 55.16C203.957 55.088 204.245 55.04 204.557 55.016C205.061 54.992 205.577 54.992 206.105 55.016C206.657 55.064 207.185 55.148 207.689 55.268C208.433 55.436 208.805 55.88 208.805 56.6C208.805 57.008 208.661 57.32 208.373 57.536C208.085 57.776 207.665 57.896 207.113 57.896L193.865 58.004C192.425 58.028 191.417 57.86 190.841 57.5C190.265 57.14 189.965 56.48 189.941 55.52L189.905 52.964C189.569 52.772 189.173 52.616 188.717 52.496C188.285 52.352 187.829 52.22 187.349 52.1C186.869 51.98 186.629 51.716 186.629 51.308C186.629 51.092 186.785 50.888 187.097 50.696C187.409 50.504 187.853 50.408 188.429 50.408C190.421 50.408 192.269 50.588 193.973 50.948L200.129 50.804C200.465 50.804 200.789 50.792 201.101 50.768C201.413 50.72 201.713 50.672 202.001 50.624L202.073 47.528L195.881 47.708ZM211.181 41.336C209.381 41.288 207.509 41.264 205.565 41.264C203.645 41.264 201.689 41.276 199.697 41.3V41.48C199.697 41.96 199.637 42.428 199.517 42.884C199.397 43.316 199.229 43.7 199.013 44.036C198.821 44.372 198.569 44.648 198.257 44.864C197.969 45.08 197.633 45.188 197.249 45.188C196.745 45.188 196.337 44.996 196.025 44.612C195.737 44.204 195.569 43.58 195.521 42.74L195.449 41.408C194.393 41.456 193.385 41.516 192.425 41.588C191.465 41.636 190.577 41.684 189.761 41.732C189.089 41.78 188.585 41.84 188.249 41.912C187.913 41.984 187.577 42.092 187.241 42.236C186.953 42.356 186.677 42.464 186.413 42.56C186.173 42.632 185.945 42.668 185.729 42.668C185.417 42.668 185.141 42.632 184.901 42.56C184.661 42.488 184.409 42.38 184.145 42.236C183.641 41.972 183.101 41.66 182.525 41.3C181.973 40.94 181.493 40.616 181.085 40.328C180.773 40.088 180.677 39.812 180.797 39.5C180.917 39.188 181.181 39.056 181.589 39.104C182.357 39.2 183.161 39.284 184.001 39.356C184.841 39.428 185.669 39.476 186.485 39.5C187.781 39.524 189.173 39.536 190.661 39.536C192.173 39.536 193.697 39.524 195.233 39.5C196.793 39.452 198.329 39.404 199.841 39.356C201.377 39.284 202.841 39.212 204.233 39.14C204.713 39.092 205.145 39.032 205.529 38.96C205.913 38.888 206.237 38.792 206.501 38.672C206.909 38.48 207.245 38.336 207.509 38.24C207.797 38.12 208.121 38.06 208.481 38.06C209.081 38.06 209.681 38.084 210.281 38.132C210.881 38.18 211.373 38.24 211.757 38.312C212.813 38.528 213.341 39.08 213.341 39.968C213.341 40.376 213.149 40.712 212.765 40.976C212.405 41.24 211.877 41.36 211.181 41.336ZM201.821 29.384L193.037 29.672L193.217 35.072L199.553 35C200.033 35 200.453 34.94 200.813 34.82L201.533 34.568L201.821 29.384ZM243.977 37.232L244.373 37.196C244.661 37.172 244.913 37.124 245.129 37.052C245.345 36.98 245.573 36.872 245.813 36.728C246.077 36.56 246.317 36.44 246.533 36.368C246.749 36.272 247.013 36.224 247.325 36.224C247.733 36.224 248.105 36.248 248.441 36.296C248.801 36.344 249.101 36.392 249.341 36.44C249.797 36.56 250.109 36.74 250.277 36.98C250.469 37.22 250.565 37.52 250.565 37.88C250.565 38.288 250.433 38.624 250.169 38.888C249.929 39.128 249.533 39.248 248.981 39.248L243.941 39.32L243.869 42.488C243.845 43.544 243.785 44.564 243.689 45.548C243.593 46.508 243.449 47.372 243.257 48.14C242.873 49.604 242.273 50.336 241.457 50.336C241.265 50.336 241.085 50.264 240.917 50.12C240.749 49.976 240.605 49.724 240.485 49.364C240.365 49.004 240.269 48.536 240.197 47.96C240.125 47.36 240.089 46.616 240.089 45.728L239.981 28.052C239.669 27.788 239.261 27.512 238.757 27.224C238.277 26.912 237.821 26.648 237.389 26.432C236.981 26.24 236.777 25.988 236.777 25.676C236.777 25.484 236.897 25.316 237.137 25.172C237.401 25.004 237.749 24.92 238.181 24.92C238.637 24.92 239.189 24.992 239.837 25.136C240.389 25.256 240.989 25.424 241.637 25.64C242.309 25.832 242.885 26.06 243.365 26.324C243.773 26.54 244.037 26.732 244.157 26.9C244.301 27.068 244.373 27.296 244.373 27.584C244.373 27.68 244.361 27.824 244.337 28.016C244.313 28.184 244.289 28.34 244.265 28.484C244.217 28.82 244.181 29.108 244.157 29.348C244.133 29.564 244.121 29.78 244.121 29.996L243.977 37.232ZM238.469 43.388C237.413 43.724 236.165 44.06 234.725 44.396C233.285 44.708 231.917 44.972 230.621 45.188L224.933 46.124C224.261 46.244 223.637 46.436 223.061 46.7C222.821 46.82 222.581 46.928 222.341 47.024C222.101 47.096 221.861 47.132 221.621 47.132C221.189 47.132 220.733 47.012 220.253 46.772C219.701 46.508 219.101 46.196 218.453 45.836C217.829 45.476 217.229 45.092 216.653 44.684C216.509 44.588 216.413 44.468 216.365 44.324C216.317 44.156 216.317 44 216.365 43.856C216.413 43.712 216.497 43.604 216.617 43.532C216.761 43.436 216.941 43.4 217.157 43.424C218.069 43.544 218.993 43.616 219.929 43.64C220.865 43.664 221.645 43.664 222.269 43.64C222.749 43.616 223.241 43.592 223.745 43.568C224.273 43.544 224.777 43.508 225.257 43.46L225.077 38.132C224.885 38.012 224.585 37.892 224.177 37.772C223.793 37.628 223.361 37.508 222.881 37.412C222.545 37.34 222.377 37.148 222.377 36.836C222.377 36.572 222.509 36.356 222.773 36.188C223.037 36.02 223.433 35.924 223.961 35.9C224.729 35.876 225.521 35.888 226.337 35.936C227.177 35.984 227.909 36.068 228.533 36.188C228.941 36.26 229.193 36.392 229.289 36.584C229.385 36.776 229.409 37.04 229.361 37.376C229.313 37.64 229.277 37.892 229.253 38.132C229.253 38.372 229.241 38.624 229.217 38.888L229.073 43.028C230.729 42.812 232.337 42.584 233.897 42.344C235.457 42.08 236.849 41.828 238.073 41.588C238.361 41.54 238.601 41.588 238.793 41.732C238.985 41.876 239.093 42.056 239.117 42.272C239.165 42.488 239.141 42.704 239.045 42.92C238.949 43.136 238.757 43.292 238.469 43.388ZM232.709 54.8C232.709 55.184 232.793 55.436 232.961 55.556C233.129 55.7 233.369 55.784 233.681 55.808C234.449 55.856 235.325 55.868 236.309 55.844C237.293 55.82 238.217 55.784 239.081 55.736C239.369 55.712 239.645 55.664 239.909 55.592C240.197 55.544 240.473 55.448 240.737 55.304C241.001 55.16 241.301 55.028 241.637 54.908C241.973 54.812 242.297 54.764 242.609 54.764C243.041 54.764 243.533 54.788 244.085 54.836C244.637 54.884 245.045 54.932 245.309 54.98C245.789 55.076 246.137 55.244 246.353 55.484C246.569 55.748 246.677 56.048 246.677 56.384C246.677 56.792 246.533 57.116 246.245 57.356C245.981 57.596 245.549 57.716 244.949 57.716L232.457 57.824C230.945 57.848 229.901 57.572 229.325 56.996C228.749 56.444 228.437 55.592 228.389 54.44L228.281 50.984C227.945 50.816 227.537 50.66 227.057 50.516C226.577 50.372 226.133 50.24 225.725 50.12C225.245 50 225.005 49.736 225.005 49.328C225.005 49.112 225.161 48.908 225.473 48.716C225.809 48.524 226.253 48.428 226.805 48.428C227.117 48.428 227.489 48.44 227.921 48.464C228.377 48.488 228.821 48.524 229.253 48.572C229.709 48.596 230.153 48.632 230.585 48.68C231.017 48.728 231.377 48.776 231.665 48.824C232.145 48.92 232.457 49.064 232.601 49.256C232.769 49.424 232.853 49.664 232.853 49.976C232.853 50.168 232.841 50.348 232.817 50.516C232.817 50.684 232.805 50.864 232.781 51.056C232.757 51.248 232.733 51.452 232.709 51.668C232.709 51.86 232.709 52.076 232.709 52.316V54.8ZM233.753 28.736L236.417 29.492C237.233 29.708 237.641 30.056 237.641 30.536C237.641 30.8 237.581 31.028 237.461 31.22C237.341 31.412 237.161 31.628 236.921 31.868C236.657 33.38 236.333 34.808 235.949 36.152C235.589 37.472 235.217 38.6 234.833 39.536C234.689 39.896 234.473 40.16 234.185 40.328C233.921 40.496 233.645 40.58 233.357 40.58C233.021 40.58 232.709 40.46 232.421 40.22C232.157 39.98 232.049 39.62 232.097 39.14C232.193 37.988 232.277 36.74 232.349 35.396C232.421 34.052 232.481 32.84 232.529 31.76C231.665 31.784 230.729 31.832 229.721 31.904C228.737 31.952 227.705 32.036 226.625 32.156C226.217 32.204 225.881 32.264 225.617 32.336C225.377 32.384 225.125 32.468 224.861 32.588C224.525 32.708 224.249 32.804 224.033 32.876C223.817 32.948 223.613 32.984 223.421 32.984C223.229 32.984 223.025 32.96 222.809 32.912C222.617 32.864 222.389 32.768 222.125 32.624C221.693 32.408 221.213 32.144 220.685 31.832C220.181 31.52 219.713 31.196 219.281 30.86C218.993 30.644 218.897 30.38 218.993 30.068C219.113 29.756 219.377 29.624 219.785 29.672C220.553 29.792 221.309 29.888 222.053 29.96C222.821 30.008 223.517 30.032 224.141 30.032C225.029 30.056 226.217 30.032 227.705 29.96C229.217 29.888 230.801 29.792 232.457 29.672L233.753 28.736Z" fill="#404040"/>
<path d="M105.368 8.96178V10.36H100.363V12.3323H98.7474V10.36H93.6519V8.96178H105.368ZM94.5938 7.66066V2.74762H104.426V7.64889L94.5938 7.66066ZM96.1805 11.2608V13.7335H104.585V15.1318H94.5938V11.249L96.1805 11.2608ZM102.854 4.10467H96.154V6.33305H102.854V4.10467Z" fill="#404040"/>
<path d="M115.011 14.0632H106.651V12.6767H110.01V11.0901C109.863 11.0568 109.719 11.0095 109.58 10.9488C109.214 10.8047 108.875 10.5975 108.579 10.3365C108.299 10.0744 108.072 9.76055 107.911 9.41217C107.748 9.0663 107.664 8.68796 107.667 8.30534C107.663 7.92453 107.747 7.54796 107.911 7.20439C108.073 6.85913 108.3 6.54829 108.579 6.2889C108.87 6.02183 109.207 5.81119 109.574 5.66778C109.959 5.51918 110.369 5.44429 110.781 5.447C111.191 5.44319 111.598 5.51814 111.979 5.66778C112.341 5.81005 112.672 6.02096 112.954 6.2889C113.236 6.5462 113.469 6.8536 113.64 7.19556C113.807 7.53823 113.893 7.9151 113.89 8.29651C113.892 8.67972 113.807 9.05835 113.64 9.40334C113.473 9.75088 113.244 10.0643 112.963 10.3277C112.678 10.5889 112.347 10.7964 111.988 10.94C111.838 11.0074 111.681 11.0606 111.52 11.0989V12.6679H115.02L115.011 14.0632ZM109.895 3.86034V2.5033H111.612V3.86034H114.711V5.22033H106.796V3.86034H109.895ZM112.339 8.2759C112.337 8.0765 112.295 7.87948 112.215 7.69681C112.135 7.51413 112.019 7.34961 111.873 7.21322C111.574 6.92435 111.174 6.76293 110.758 6.76293C110.342 6.76293 109.942 6.92435 109.642 7.21322C109.497 7.35207 109.381 7.51932 109.302 7.70463C109.224 7.88994 109.184 8.08938 109.186 8.29062C109.186 8.70752 109.352 9.10735 109.646 9.40215C109.941 9.69694 110.341 9.86256 110.758 9.86256C111.175 9.86256 111.575 9.69694 111.869 9.40215C112.164 9.10735 112.33 8.70752 112.33 8.29062L112.339 8.2759ZM117.484 15.3202H115.912V2.58866H117.484V8.11988H119.112V9.64767H117.484V15.3202Z" fill="#404040"/>
<path d="M119.821 5.22033V3.86034H122.521V2.5033H124.193V3.86034H126.736V5.22033H123.848L126.886 13.2331L125.5 13.707L123.354 7.93443L121.226 13.8071L119.795 13.3508L122.839 5.22033H119.821ZM127.793 2.60338H129.265V15.2613H127.793V9.10602H126.136V7.66361H127.793V2.60338ZM130.466 2.60338H131.997V15.3496H130.466V2.60338Z" fill="#404040"/>
<path d="M144.316 11.4345V15.3643H142.729V12.7886H134.193V11.4345H136.221L136.235 9.94788H133.548V8.57612H145.267V9.94788H142.564V11.4345H144.316ZM142.55 5.20558C142.552 5.59607 142.464 5.98184 142.294 6.33301C142.125 6.68313 141.898 7.00176 141.622 7.275C141.327 7.53931 140.989 7.75046 140.622 7.89906C140.236 8.0554 139.824 8.13442 139.409 8.13162C138.989 8.13414 138.573 8.05516 138.184 7.89906C137.815 7.75122 137.474 7.54003 137.177 7.275C136.902 7.00097 136.675 6.68251 136.506 6.33301C136.336 5.98108 136.247 5.59513 136.247 5.2041C136.247 4.81308 136.336 4.42713 136.506 4.07519C136.677 3.72646 136.903 3.40819 137.177 3.13321C137.468 2.85693 137.807 2.6373 138.178 2.48559C138.567 2.3271 138.983 2.24706 139.403 2.2501C139.819 2.24682 140.231 2.32689 140.616 2.48559C140.982 2.63894 141.318 2.85847 141.605 3.13321C141.879 3.40756 142.106 3.72595 142.276 4.07519C142.451 4.42653 142.542 4.81325 142.544 5.20558H142.55ZM137.672 11.4345H141.101V9.94788H137.687L137.672 11.4345ZM140.99 5.20558C140.992 5.00073 140.953 4.79752 140.873 4.60896C140.792 4.42039 140.674 4.25063 140.524 4.11052C140.377 3.96516 140.201 3.85072 140.009 3.77389C139.816 3.69707 139.61 3.65939 139.403 3.66307C139.194 3.65975 138.987 3.69784 138.793 3.77515C138.599 3.85245 138.422 3.96744 138.272 4.11346C138.122 4.25305 138.002 4.42258 137.921 4.61117C137.84 4.79976 137.799 5.00324 137.801 5.20852C137.799 5.41466 137.84 5.61898 137.921 5.80851C138.002 5.99804 138.122 6.16864 138.272 6.30946C138.421 6.45682 138.598 6.57306 138.792 6.6514C138.986 6.72975 139.194 6.76862 139.403 6.76574C139.611 6.76898 139.817 6.73053 140.01 6.65266C140.202 6.5748 140.377 6.4591 140.524 6.31241C140.674 6.17017 140.793 5.99835 140.873 5.80782C140.953 5.61729 140.993 5.41221 140.99 5.20558Z" fill="#404040"/>
<path d="M154.504 8.6908V10.0773H146.903V8.6908H149.476V5.92077H150.974V8.6908H154.504ZM152.52 7.51332V4.25169H147.245V2.83872H154.062V7.51921L152.52 7.51332ZM149.046 11.084V13.6715H157.877V15.0728H147.46V11.0899L149.046 11.084ZM157.518 10.513H155.935V2.5885H157.518V5.70588H159.149V7.21895H157.518V10.513Z" fill="#404040"/>
<path d="M162.799 8.06085V5.57636H164.301V8.06085H167.833V9.3914H160.235V8.06085H162.799ZM165.858 6.91869V4.25169H160.592V2.84755H167.406V6.91869H165.858ZM169.717 12.8061C169.72 13.1998 169.631 13.5888 169.458 13.9424C169.285 14.2918 169.053 14.6085 168.772 14.8785C168.492 15.1489 168.163 15.3646 167.804 15.5143C167.014 15.8284 166.135 15.8284 165.346 15.5143C164.605 15.2252 164.003 14.6624 163.665 13.9424C163.497 13.5872 163.411 13.1989 163.415 12.8061C163.413 12.4088 163.498 12.016 163.665 11.6551C163.831 11.3008 164.061 10.9797 164.342 10.7072C164.638 10.4435 164.978 10.2324 165.346 10.0832C166.135 9.76905 167.014 9.76905 167.804 10.0832C168.54 10.3746 169.138 10.9371 169.473 11.6551C169.641 12.0151 169.727 12.4085 169.723 12.8061H169.717ZM168.157 12.8061C168.16 12.5971 168.119 12.3898 168.039 12.1969C167.958 12.004 167.839 11.8296 167.689 11.6845C167.541 11.5353 167.365 11.4175 167.171 11.338C166.977 11.2586 166.768 11.2193 166.558 11.2224C166.348 11.2195 166.139 11.2589 165.943 11.3383C165.748 11.4177 165.571 11.5354 165.422 11.6845C165.273 11.8268 165.154 11.9981 165.073 12.1879C164.992 12.3777 164.95 12.5821 164.951 12.7884C164.948 12.9961 164.989 13.2021 165.071 13.3929C165.153 13.5837 165.275 13.7549 165.428 13.8953C165.732 14.19 166.141 14.352 166.564 14.3457C166.773 14.349 166.981 14.3109 167.175 14.2336C167.369 14.1563 167.545 14.0413 167.695 13.8953C167.846 13.7541 167.966 13.5825 168.047 13.3918C168.127 13.2011 168.167 12.9955 168.163 12.7884L168.157 12.8061ZM170.859 9.62101H169.275V2.5885H170.862V5.19074H172.49V6.67731H170.865L170.859 9.62101Z" fill="#404040"/>
<path d="M173.361 10.6398H185.077V12.041H180.005V15.3261H178.419V12.041H173.361V10.6398ZM175.861 4.40795H182.563V2.7948H184.132V8.92654H174.303V2.7948H175.861V4.40795ZM182.563 5.78266H175.861V7.54888H182.563V5.78266Z" fill="#404040"/>
<path d="M81.7287 8.68865C80.1442 7.60189 78.1141 8.04963 77.0491 9.67108C76.7061 10.2087 76.2143 10.6352 75.6335 10.8986C75.0528 11.1621 74.408 11.2513 73.7775 11.1553C73.147 11.0593 72.558 10.7823 72.0819 10.3579C71.6059 9.93355 71.2633 9.38007 71.0958 8.76472C71.0968 8.75315 71.0968 8.74151 71.0958 8.72994C71.0966 8.71619 71.0966 8.7024 71.0958 8.68865C70.9725 8.26531 70.916 7.8253 70.9285 7.38453C70.9046 4.42855 73.9345 1.14653 78.2945 1.14653C82.7611 1.14653 85.3172 4.54592 85.9757 6.43688L85.9431 6.3369C85.2177 4.23573 83.7716 2.45935 81.8612 1.32274C79.9509 0.18613 77.6998 -0.237266 75.5071 0.127625C73.3143 0.492516 71.3217 1.62212 69.8824 3.31613C68.4431 5.01015 67.6502 7.15912 67.6443 9.382C67.6443 14.0246 70.9937 18 75.6385 18C79.3335 18 81.833 15.9221 82.9741 13.0596C83.5957 11.4947 83.1523 9.65369 81.7287 8.68865Z" fill="#003863"/>
<path d="M86.0344 5.92896C85.4845 4.08582 82.911 0.460388 78.2945 0.460388C73.9344 0.460388 70.9045 3.7424 70.9045 6.69404C70.8921 7.13481 70.9485 7.57482 71.0719 7.99815C71.0156 7.77866 70.9864 7.55311 70.9849 7.32654C70.9849 4.25318 74.0648 2.12313 77.2273 2.12313C78.2456 2.12284 79.254 2.32317 80.1949 2.71266C81.1358 3.10216 81.9907 3.67319 82.7109 4.39315C83.431 5.1131 84.0023 5.96788 84.392 6.90865C84.7818 7.84942 84.9824 8.85776 84.9824 9.87607C84.9854 11.4674 84.544 13.0279 83.7081 14.3819C82.8721 15.7359 81.6747 16.8296 80.2507 17.5399C82.0681 16.8814 83.6385 15.6789 84.7481 14.096C85.8576 12.5131 86.4525 10.6267 86.4517 8.69368C86.4529 7.75633 86.3122 6.82419 86.0344 5.92896Z" fill="#E4032E"/>
</svg>
