<svg width="32" height="32" viewBox="0 0 32 32" fill="none" xmlns="http://www.w3.org/2000/svg">
<path fill-rule="evenodd" clip-rule="evenodd" d="M25.7388 22.6322C29.8501 17.1486 29.4121 9.33482 24.4249 4.34762C18.9575 -1.11972 10.0932 -1.11972 4.6259 4.34762C-0.841444 9.81496 -0.841444 18.6793 4.6259 24.1466C9.61306 29.1338 17.4267 29.5718 22.9104 25.4606L27.9603 30.5106C28.7414 31.2916 30.0077 31.2916 30.7887 30.5106C31.5698 29.7295 31.5698 28.4632 30.7887 27.6821L25.7388 22.6322ZM21.5965 7.17605C25.5017 11.0813 25.5017 17.4129 21.5965 21.3182C17.6912 25.2234 11.3596 25.2234 7.45432 21.3182C3.54908 17.4129 3.54908 11.0813 7.45432 7.17605C11.3596 3.27081 17.6912 3.27081 21.5965 7.17605Z" fill="white"/>
</svg>
