<svg width="37" height="61" viewBox="0 0 37 61" fill="none" xmlns="http://www.w3.org/2000/svg">
<mask id="path-1-inside-1_351_2" fill="white">
<path fill-rule="evenodd" clip-rule="evenodd" d="M30.7853 36.7334L36.7853 30.7334L36.7853 30.7334L30.7853 24.7334L6.78529 0.733386L0.785294 6.73338L24.7853 30.7334L0.785267 54.7334L6.78526 60.7334L30.7853 36.7334Z"/>
</mask>
<path fill-rule="evenodd" clip-rule="evenodd" d="M30.7853 36.7334L36.7853 30.7334L36.7853 30.7334L30.7853 24.7334L6.78529 0.733386L0.785294 6.73338L24.7853 30.7334L0.785267 54.7334L6.78526 60.7334L30.7853 36.7334Z" fill="#7E803F"/>
<path d="M36.7852 30.7334L36.0944 30.0104L36.0862 30.0183L36.0781 30.0263L36.7852 30.7334ZM30.7853 36.7334L30.0782 36.0263L30.0782 36.0263L30.7853 36.7334ZM36.7853 30.7334L37.4761 31.4564L38.2157 30.7497L37.4924 30.0263L36.7853 30.7334ZM30.7852 24.7334L30.0781 25.4405L30.0781 25.4405L30.7852 24.7334ZM6.78527 0.733392L7.49238 0.0262863L6.78527 -0.680822L6.07817 0.0262854L6.78527 0.733392ZM0.785274 6.73339L0.078167 6.02628L-0.62894 6.73339L0.0781667 7.44049L0.785274 6.73339ZM24.7853 30.7334L25.4924 31.4405L26.1995 30.7334L25.4924 30.0263L24.7853 30.7334ZM0.785247 54.7334L0.0781398 54.0263L-0.628967 54.7334L0.0781397 55.4405L0.785247 54.7334ZM6.78524 60.7334L6.07814 61.4405L6.78524 62.1476L7.49235 61.4405L6.78524 60.7334ZM36.0781 30.0263L30.0782 36.0263L31.4924 37.4405L37.4923 31.4405L36.0781 30.0263ZM36.0944 30.0104L36.0944 30.0104L37.4761 31.4564L37.4761 31.4564L36.0944 30.0104ZM30.0781 25.4405L36.0782 31.4405L37.4924 30.0263L31.4923 24.0263L30.0781 25.4405ZM6.07816 1.4405L30.0781 25.4405L31.4923 24.0263L7.49238 0.0262863L6.07816 1.4405ZM1.49238 7.4405L7.49238 1.4405L6.07817 0.0262854L0.078167 6.02628L1.49238 7.4405ZM25.4924 30.0263L1.49238 6.02628L0.0781667 7.44049L24.0782 31.4405L25.4924 30.0263ZM1.49235 55.4405L25.4924 31.4405L24.0782 30.0263L0.0781398 54.0263L1.49235 55.4405ZM7.49235 60.0263L1.49235 54.0263L0.0781397 55.4405L6.07814 61.4405L7.49235 60.0263ZM30.0782 36.0263L6.07814 60.0263L7.49235 61.4405L31.4924 37.4405L30.0782 36.0263Z" fill="#7E803F" mask="url(#path-1-inside-1_351_2)"/>
</svg>
