<svg width="37" height="61" viewBox="0 0 37 61" fill="none" xmlns="http://www.w3.org/2000/svg">
<mask id="path-1-inside-1_351_9" fill="white">
<path fill-rule="evenodd" clip-rule="evenodd" d="M6.78527 24.7334L0.785293 30.7334L0.785273 30.7334L6.78529 36.7334L30.7853 60.7334L36.7853 54.7334L12.7853 30.7334L36.7853 6.7334L30.7853 0.733404L6.78527 24.7334Z"/>
</mask>
<path fill-rule="evenodd" clip-rule="evenodd" d="M6.78527 24.7334L0.785293 30.7334L0.785273 30.7334L6.78529 36.7334L30.7853 60.7334L36.7853 54.7334L12.7853 30.7334L36.7853 6.7334L30.7853 0.733404L6.78527 24.7334Z" fill="#7E803F"/>
<path d="M0.785313 30.7334L1.47616 31.4564L1.48438 31.4485L1.49242 31.4405L0.785313 30.7334ZM6.78529 24.7334L7.4924 25.4405L7.4924 25.4405L6.78529 24.7334ZM0.785293 30.7334L0.0944503 30.0104L-0.645191 30.7171L0.0781884 31.4405L0.785293 30.7334ZM6.78531 36.7334L7.49242 36.0263L7.49242 36.0263L6.78531 36.7334ZM30.7853 60.7334L30.0782 61.4405L30.7853 62.1476L31.4924 61.4405L30.7853 60.7334ZM36.7853 54.7334L37.4924 55.4405L38.1995 54.7334L37.4924 54.0263L36.7853 54.7334ZM12.7853 30.7334L12.0782 30.0263L11.3711 30.7334L12.0782 31.4405L12.7853 30.7334ZM36.7853 6.7334L37.4924 7.4405L38.1995 6.7334L37.4924 6.02629L36.7853 6.7334ZM30.7853 0.733398L31.4924 0.0262912L30.7853 -0.680816L30.0782 0.0262909L30.7853 0.733398ZM1.49242 31.4405L7.4924 25.4405L6.07819 24.0263L0.0782064 30.0263L1.49242 31.4405ZM1.47614 31.4564L1.47616 31.4564L0.0944703 30.0104L0.0944503 30.0104L1.47614 31.4564ZM7.49242 36.0263L1.4924 30.0263L0.0781884 31.4405L6.07821 37.4405L7.49242 36.0263ZM31.4924 60.0263L7.49242 36.0263L6.0782 37.4405L30.0782 61.4405L31.4924 60.0263ZM36.0782 54.0263L30.0782 60.0263L31.4924 61.4405L37.4924 55.4405L36.0782 54.0263ZM12.0782 31.4405L36.0782 55.4405L37.4924 54.0263L13.4924 30.0263L12.0782 31.4405ZM36.0782 6.02629L12.0782 30.0263L13.4924 31.4405L37.4924 7.4405L36.0782 6.02629ZM30.0782 1.4405L36.0782 7.4405L37.4924 6.02629L31.4924 0.0262912L30.0782 1.4405ZM7.4924 25.4405L31.4924 1.4405L30.0782 0.0262909L6.07819 24.0263L7.4924 25.4405Z" fill="#7E803F" mask="url(#path-1-inside-1_351_9)"/>
</svg>
