<svg width="719" height="628" viewBox="0 0 719 628" fill="none" xmlns="http://www.w3.org/2000/svg">
<path d="M139.925 64.855L143.388 52L129 69.8375H136.827L132.45 81.4837L148.283 64.855H139.925Z" fill="white"/>
<path d="M548 59.1677V75.5149C548 75.8246 548.124 76.1216 548.345 76.3406C548.566 76.5596 548.865 76.6826 549.178 76.6826H555.655L553.888 70.2604L558.01 69.0928L557.421 65.006L562.132 62.6706L560.954 60.9192L562.72 58H549.178C548.865 58 548.566 58.123 548.345 58.342C548.124 58.561 548 58.858 548 59.1677ZM570.375 75.5149V59.1677C570.375 58.858 570.251 58.561 570.03 58.342C569.809 58.123 569.51 58 569.197 58H567.431L565.076 61.503L566.842 64.4221L561.543 66.7575L562.132 71.4281L558.01 72.5958L559.188 76.6826H569.197C569.51 76.6826 569.809 76.5596 570.03 76.3406C570.251 76.1216 570.375 75.8246 570.375 75.5149Z" stroke="white" stroke-width="2.5" stroke-linecap="round" stroke-linejoin="round"/>
<path d="M553.594 63.8386C553.828 63.8386 554.053 63.7464 554.219 63.5821C554.384 63.4179 554.477 63.1952 554.477 62.9629C554.477 62.7306 554.384 62.5079 554.219 62.3437C554.053 62.1794 553.828 62.0872 553.594 62.0872C553.36 62.0872 553.135 62.1794 552.97 62.3437C552.804 62.5079 552.711 62.7306 552.711 62.9629C552.711 63.1952 552.804 63.4179 552.97 63.5821C553.135 63.7464 553.36 63.8386 553.594 63.8386Z" stroke="white" stroke-width="2.5" stroke-linecap="round" stroke-linejoin="round"/>
<path d="M278.455 75.6589V77.7321H270.091C268.941 77.7321 268 76.7991 268 75.6589V59.0732C268 57.9329 268.941 57 270.091 57H288.909C290.059 57 291 57.9329 291 59.0732V67.4697L290.791 67.2624C290.268 66.7441 289.641 66.4331 288.909 66.4331V61.1464H270.091V75.6589H278.455ZM289.327 68.7136L290.686 70.0612C290.895 70.2685 290.895 70.6832 290.686 70.8905L289.641 71.9271L287.445 69.7502L288.491 68.7136C288.595 68.61 288.7 68.5063 288.909 68.5063C289.118 68.5063 289.223 68.61 289.327 68.7136ZM289.014 72.4454L282.741 78.7687H280.545V76.5918L286.923 70.2685L289.014 72.4454Z" fill="white"/>
<path d="M419.12 81V76.98H419C416.44 76.98 413.88 76 411.92 74.06C410.292 72.4304 409.276 70.2892 409.043 67.9976C408.809 65.706 409.374 63.4041 410.64 61.48L412.84 63.68C411.42 66.34 411.78 69.7 414.02 71.94C415.42 73.34 417.26 74 419.1 73.96V69.68L424.76 75.34L419.12 81ZM427.34 72.52L425.14 70.32C426.56 67.66 426.2 64.3 423.96 62.06C423.311 61.4054 422.538 60.8862 421.687 60.5326C420.835 60.179 419.922 59.998 419 60H418.88V64.3L413.22 58.66L418.88 53V57.04C421.48 57 424.1 57.94 426.08 59.94C429.48 63.34 429.9 68.64 427.34 72.52Z" fill="white"/>
<path fill-rule="evenodd" clip-rule="evenodd" d="M131.333 124C130.449 124 129.601 124.348 128.976 124.968C128.351 125.588 128 126.429 128 127.305V143.831C128 144.707 128.351 145.548 128.976 146.168C129.601 146.788 130.449 147.136 131.333 147.136H136.75C137.082 147.136 137.399 147.005 137.634 146.773C137.868 146.54 138 146.225 138 145.896C138 145.568 137.868 145.252 137.634 145.02C137.399 144.788 137.082 144.657 136.75 144.657H131.333C131.112 144.657 130.9 144.57 130.744 144.415C130.588 144.26 130.5 144.05 130.5 143.831V127.305C130.5 127.086 130.588 126.876 130.744 126.721C130.9 126.566 131.112 126.479 131.333 126.479H141.333C141.554 126.479 141.766 126.566 141.923 126.721C142.079 126.876 142.167 127.086 142.167 127.305V135.981C142.167 136.31 142.298 136.625 142.533 136.857C142.767 137.09 143.085 137.22 143.417 137.22C143.748 137.22 144.066 137.09 144.301 136.857C144.535 136.625 144.667 136.31 144.667 135.981V129.559L148.317 131.443C148.365 131.468 148.409 131.502 148.444 131.544C148.48 131.586 148.506 131.634 148.523 131.686C148.54 131.738 148.546 131.792 148.541 131.846C148.536 131.901 148.52 131.953 148.495 132.002L146.708 135.409C146.568 135.699 146.546 136.032 146.649 136.338C146.751 136.643 146.97 136.897 147.258 137.046C147.546 137.194 147.881 137.226 148.192 137.134C148.503 137.042 148.766 136.834 148.925 136.553L150.713 133.145C151.07 132.465 151.14 131.672 150.907 130.94C150.674 130.209 150.158 129.599 149.472 129.245L144.618 126.74C144.484 125.973 144.081 125.277 143.48 124.776C142.879 124.275 142.119 124 141.333 124H131.333ZM141.333 143.831C141.333 143.502 141.465 143.187 141.699 142.954C141.934 142.722 142.252 142.591 142.583 142.591H145.083V140.112C145.083 139.784 145.215 139.468 145.449 139.236C145.684 139.004 146.002 138.873 146.333 138.873C146.665 138.873 146.983 139.004 147.217 139.236C147.452 139.468 147.583 139.784 147.583 140.112V142.591H150.083C150.415 142.591 150.733 142.722 150.967 142.954C151.202 143.187 151.333 143.502 151.333 143.831C151.333 144.159 151.202 144.475 150.967 144.707C150.733 144.939 150.415 145.07 150.083 145.07H147.583V147.549C147.583 147.878 147.452 148.193 147.217 148.425C146.983 148.658 146.665 148.788 146.333 148.788C146.002 148.788 145.684 148.658 145.449 148.425C145.215 148.193 145.083 147.878 145.083 147.549V145.07H142.583C142.252 145.07 141.934 144.939 141.699 144.707C141.465 144.475 141.333 144.159 141.333 143.831Z" fill="white"/>
<path d="M268.5 145.831C267.813 145.831 267.224 145.588 266.734 145.102C266.244 144.616 265.999 144.033 266 143.352V128.479C266 127.797 266.245 127.213 266.735 126.728C267.225 126.242 267.813 125.999 268.5 126H276L278.5 128.479H288.5C289.188 128.479 289.776 128.722 290.266 129.208C290.756 129.693 291.001 130.277 291 130.958H277.469L274.969 128.479H268.5V143.352L271.5 133.437H292.875L289.656 144.064C289.49 144.602 289.182 145.03 288.734 145.351C288.285 145.672 287.791 145.831 287.25 145.831H268.5ZM271.125 143.352H287.25L289.5 135.915H273.375L271.125 143.352Z" fill="white"/>
<path d="M410.591 126.798C415.501 122.808 422.757 123.086 427.341 127.63C432.222 132.47 432.222 140.318 427.341 145.158C422.46 149.998 414.545 149.998 409.664 145.158C408.166 143.675 407.073 141.838 406.487 139.821C405.902 137.804 405.843 135.673 406.316 133.627L406.412 133.239L408.83 133.871C408.231 136.129 408.454 138.525 409.462 140.636C410.47 142.747 412.197 144.437 414.338 145.41C416.48 146.382 418.899 146.573 421.169 145.95C423.439 145.327 425.414 143.929 426.747 142.003C428.079 140.078 428.683 137.747 428.453 135.423C428.222 133.099 427.171 130.93 425.486 129.299C423.8 127.667 421.588 126.678 419.239 126.506C416.891 126.333 414.556 126.988 412.646 128.356L412.371 128.561L413.642 129.822L407.897 131.136L409.222 125.439L410.591 126.798ZM419.752 128.958V131.437H422.877V133.916H416.002C415.846 133.915 415.696 133.973 415.58 134.077C415.465 134.182 415.393 134.325 415.379 134.479C415.365 134.633 415.409 134.787 415.504 134.911C415.598 135.034 415.736 135.117 415.89 135.145L416.002 135.155H421.002C421.831 135.155 422.626 135.481 423.212 136.063C423.798 136.644 424.127 137.432 424.127 138.254C424.127 139.075 423.798 139.863 423.212 140.445C422.626 141.026 421.831 141.352 421.002 141.352H419.752V143.831H417.252V141.352H414.127V138.873H421.002C421.159 138.874 421.309 138.816 421.425 138.711C421.54 138.607 421.612 138.464 421.626 138.31C421.64 138.155 421.595 138.001 421.501 137.878C421.406 137.755 421.269 137.671 421.115 137.644L421.002 137.634H416.002C415.174 137.634 414.379 137.307 413.793 136.726C413.207 136.145 412.877 135.357 412.877 134.535C412.877 133.713 413.207 132.925 413.793 132.344C414.379 131.763 415.174 131.437 416.002 131.437H417.252V128.958H419.752Z" fill="white"/>
<path d="M69.925 64.855L73.3875 52L59 69.8375H66.8275L62.45 81.4837L78.2825 64.855H69.925Z" fill="#3B4CCC"/>
<path d="M478 59.1677V75.5149C478 75.8246 478.124 76.1216 478.345 76.3406C478.566 76.5596 478.865 76.6826 479.178 76.6826H485.655L483.888 70.2604L488.01 69.0928L487.421 65.006L492.132 62.6706L490.954 60.9192L492.72 58H479.178C478.865 58 478.566 58.123 478.345 58.342C478.124 58.561 478 58.858 478 59.1677ZM500.375 75.5149V59.1677C500.375 58.858 500.251 58.561 500.03 58.342C499.809 58.123 499.51 58 499.197 58H497.431L495.076 61.503L496.842 64.4221L491.543 66.7575L492.132 71.4281L488.01 72.5958L489.188 76.6826H499.197C499.51 76.6826 499.809 76.5596 500.03 76.3406C500.251 76.1216 500.375 75.8246 500.375 75.5149Z" stroke="#3B4CCC" stroke-width="2.5" stroke-linecap="round" stroke-linejoin="round"/>
<path d="M483.594 63.8386C483.828 63.8386 484.053 63.7464 484.219 63.5821C484.384 63.4179 484.477 63.1952 484.477 62.9629C484.477 62.7306 484.384 62.5079 484.219 62.3437C484.053 62.1794 483.828 62.0872 483.594 62.0872C483.36 62.0872 483.135 62.1794 482.97 62.3437C482.804 62.5079 482.711 62.7306 482.711 62.9629C482.711 63.1952 482.804 63.4179 482.97 63.5821C483.135 63.7464 483.36 63.8386 483.594 63.8386Z" stroke="#3B4CCC" stroke-width="2.5" stroke-linecap="round" stroke-linejoin="round"/>
<path d="M208.455 75.6589V77.7321H200.091C198.941 77.7321 198 76.7991 198 75.6589V59.0732C198 57.9329 198.941 57 200.091 57H218.909C220.059 57 221 57.9329 221 59.0732V67.4697L220.791 67.2624C220.268 66.7441 219.641 66.4331 218.909 66.4331V61.1464H200.091V75.6589H208.455ZM219.327 68.7136L220.686 70.0612C220.895 70.2685 220.895 70.6832 220.686 70.8905L219.641 71.9271L217.445 69.7502L218.491 68.7136C218.595 68.61 218.7 68.5063 218.909 68.5063C219.118 68.5063 219.223 68.61 219.327 68.7136ZM219.014 72.4454L212.741 78.7687H210.545V76.5918L216.923 70.2685L219.014 72.4454Z" fill="#3B4CCC"/>
<path d="M349.12 81V76.98H349C346.44 76.98 343.88 76 341.92 74.06C340.292 72.4304 339.276 70.2892 339.043 67.9976C338.809 65.706 339.374 63.4041 340.64 61.48L342.84 63.68C341.42 66.34 341.78 69.7 344.02 71.94C345.42 73.34 347.26 74 349.1 73.96V69.68L354.76 75.34L349.12 81ZM357.34 72.52L355.14 70.32C356.56 67.66 356.2 64.3 353.96 62.06C353.311 61.4054 352.538 60.8862 351.687 60.5326C350.835 60.179 349.922 59.998 349 60H348.88V64.3L343.22 58.66L348.88 53V57.04C351.48 57 354.1 57.94 356.08 59.94C359.48 63.34 359.9 68.64 357.34 72.52Z" fill="#3B4CCC"/>
<path fill-rule="evenodd" clip-rule="evenodd" d="M61.3333 124C60.4493 124 59.6014 124.348 58.9763 124.968C58.3512 125.588 58 126.429 58 127.305V143.831C58 144.707 58.3512 145.548 58.9763 146.168C59.6014 146.788 60.4493 147.136 61.3333 147.136H66.75C67.0815 147.136 67.3995 147.005 67.6339 146.773C67.8683 146.54 68 146.225 68 145.896C68 145.568 67.8683 145.252 67.6339 145.02C67.3995 144.788 67.0815 144.657 66.75 144.657H61.3333C61.1123 144.657 60.9004 144.57 60.7441 144.415C60.5878 144.26 60.5 144.05 60.5 143.831V127.305C60.5 127.086 60.5878 126.876 60.7441 126.721C60.9004 126.566 61.1123 126.479 61.3333 126.479H71.3333C71.5543 126.479 71.7663 126.566 71.9226 126.721C72.0789 126.876 72.1667 127.086 72.1667 127.305V135.981C72.1667 136.31 72.2984 136.625 72.5328 136.857C72.7672 137.09 73.0851 137.22 73.4167 137.22C73.7482 137.22 74.0661 137.09 74.3005 136.857C74.535 136.625 74.6667 136.31 74.6667 135.981V129.559L78.3167 131.443C78.3655 131.468 78.4088 131.502 78.4442 131.544C78.4796 131.586 78.5064 131.634 78.523 131.686C78.5395 131.738 78.5456 131.792 78.5408 131.846C78.536 131.901 78.5204 131.953 78.495 132.002L76.7083 135.409C76.5676 135.699 76.5463 136.032 76.6489 136.338C76.7514 136.643 76.9699 136.897 77.2579 137.046C77.5459 137.194 77.881 137.226 78.1921 137.134C78.5033 137.042 78.7661 136.834 78.925 136.553L80.7133 133.145C81.0702 132.465 81.1399 131.672 80.9071 130.94C80.6742 130.209 80.1579 129.599 79.4717 129.245L74.6183 126.74C74.484 125.973 74.0808 125.277 73.4799 124.776C72.8789 124.275 72.1187 124 71.3333 124H61.3333ZM71.3333 143.831C71.3333 143.502 71.465 143.187 71.6995 142.954C71.9339 142.722 72.2518 142.591 72.5833 142.591H75.0833V140.112C75.0833 139.784 75.215 139.468 75.4495 139.236C75.6839 139.004 76.0018 138.873 76.3333 138.873C76.6649 138.873 76.9828 139.004 77.2172 139.236C77.4516 139.468 77.5833 139.784 77.5833 140.112V142.591H80.0833C80.4149 142.591 80.7328 142.722 80.9672 142.954C81.2016 143.187 81.3333 143.502 81.3333 143.831C81.3333 144.159 81.2016 144.475 80.9672 144.707C80.7328 144.939 80.4149 145.07 80.0833 145.07H77.5833V147.549C77.5833 147.878 77.4516 148.193 77.2172 148.425C76.9828 148.658 76.6649 148.788 76.3333 148.788C76.0018 148.788 75.6839 148.658 75.4495 148.425C75.215 148.193 75.0833 147.878 75.0833 147.549V145.07H72.5833C72.2518 145.07 71.9339 144.939 71.6995 144.707C71.465 144.475 71.3333 144.159 71.3333 143.831Z" fill="#4356E5"/>
<path d="M198.5 145.831C197.813 145.831 197.224 145.588 196.734 145.102C196.244 144.616 195.999 144.033 196 143.352V128.479C196 127.797 196.245 127.213 196.735 126.728C197.225 126.242 197.813 125.999 198.5 126H206L208.5 128.479H218.5C219.188 128.479 219.776 128.722 220.266 129.208C220.756 129.693 221.001 130.277 221 130.958H207.469L204.969 128.479H198.5V143.352L201.5 133.437H222.875L219.656 144.064C219.49 144.602 219.182 145.03 218.734 145.351C218.285 145.672 217.791 145.831 217.25 145.831H198.5ZM201.125 143.352H217.25L219.5 135.915H203.375L201.125 143.352Z" fill="#4356E5"/>
<path d="M341.091 126.298C346.001 122.308 353.257 122.586 357.841 127.13C362.722 131.97 362.722 139.818 357.841 144.658C352.96 149.498 345.045 149.498 340.164 144.658C338.666 143.175 337.573 141.338 336.987 139.321C336.402 137.304 336.343 135.173 336.816 133.127L336.912 132.739L339.33 133.371C338.731 135.629 338.954 138.025 339.962 140.136C340.97 142.247 342.697 143.937 344.838 144.91C346.98 145.882 349.399 146.073 351.669 145.45C353.939 144.827 355.914 143.429 357.247 141.503C358.579 139.578 359.183 137.247 358.953 134.923C358.722 132.599 357.671 130.43 355.986 128.799C354.3 127.167 352.088 126.178 349.739 126.006C347.391 125.833 345.056 126.488 343.146 127.856L342.871 128.061L344.142 129.322L338.397 130.636L339.722 124.939L341.091 126.298ZM350.252 128.458V130.937H353.377V133.416H346.502C346.346 133.415 346.196 133.473 346.08 133.577C345.965 133.682 345.893 133.825 345.879 133.979C345.865 134.133 345.909 134.287 346.004 134.411C346.098 134.534 346.236 134.617 346.39 134.645L346.502 134.655H351.502C352.331 134.655 353.126 134.981 353.712 135.563C354.298 136.144 354.627 136.932 354.627 137.754C354.627 138.575 354.298 139.363 353.712 139.945C353.126 140.526 352.331 140.852 351.502 140.852H350.252V143.331H347.752V140.852H344.627V138.373H351.502C351.659 138.374 351.809 138.316 351.925 138.211C352.04 138.107 352.112 137.964 352.126 137.81C352.14 137.655 352.095 137.501 352.001 137.378C351.906 137.255 351.769 137.171 351.615 137.144L351.502 137.134H346.502C345.674 137.134 344.879 136.807 344.293 136.226C343.707 135.645 343.377 134.857 343.377 134.035C343.377 133.213 343.707 132.425 344.293 131.844C344.879 131.263 345.674 130.937 346.502 130.937H347.752V128.458H350.252Z" fill="#4356E5"/>
<path d="M196.682 205.197C195.356 205.197 194.229 204.737 193.301 203.817C192.373 202.897 191.909 201.779 191.909 200.465C191.909 199.15 192.373 198.033 193.301 197.113C194.229 196.192 195.356 195.732 196.682 195.732C198.008 195.732 199.134 196.192 200.062 197.113C200.991 198.033 201.455 199.15 201.455 200.465C201.455 201.779 200.991 202.897 200.062 203.817C199.134 204.737 198.008 205.197 196.682 205.197ZM185.545 209.929C184.67 209.929 183.921 209.62 183.298 209.002C182.674 208.383 182.363 207.641 182.364 206.774V194.155C182.364 193.287 182.675 192.544 183.299 191.926C183.923 191.308 184.672 190.999 185.545 191H207.818C208.693 191 209.442 191.309 210.066 191.928C210.69 192.546 211.001 193.288 211 194.155V206.774C211 207.642 210.688 208.385 210.065 209.003C209.441 209.622 208.692 209.93 207.818 209.929H185.545ZM188.727 206.774H204.636C204.636 205.907 204.948 205.164 205.572 204.545C206.195 203.927 206.944 203.618 207.818 203.62V197.31C206.943 197.31 206.194 197.001 205.57 196.382C204.947 195.764 204.635 195.021 204.636 194.155H188.727C188.727 195.022 188.415 195.765 187.792 196.384C187.168 197.002 186.419 197.311 185.545 197.31V203.62C186.42 203.62 187.17 203.929 187.793 204.547C188.417 205.165 188.728 205.908 188.727 206.774ZM179.182 216.239C178.307 216.239 177.558 215.93 176.934 215.311C176.31 214.693 175.999 213.951 176 213.084V197.31C176 196.863 176.153 196.488 176.458 196.185C176.764 195.882 177.141 195.731 177.591 195.732C178.042 195.732 178.42 195.884 178.725 196.187C179.031 196.489 179.183 196.864 179.182 197.31V213.084H204.636C205.087 213.084 205.465 213.236 205.771 213.538C206.076 213.841 206.228 214.216 206.227 214.662C206.227 215.109 206.075 215.483 205.769 215.786C205.464 216.089 205.086 216.24 204.636 216.239H179.182Z" fill="white"/>
<path d="M449.462 202.013L438.692 195.339V208.687H452.154V211.356H438.692C437.952 211.356 437.318 211.094 436.79 210.571C436.263 210.048 435.999 209.42 436 208.687V192.67C436 191.935 436.264 191.307 436.792 190.784C437.319 190.26 437.953 189.999 438.692 190H449.462H460.231C460.971 190 461.605 190.262 462.133 190.785C462.661 191.308 462.924 191.936 462.923 192.67V199.343H460.231V195.339L449.462 202.013ZM449.462 199.343L460.231 192.67H438.692L449.462 199.343ZM438.692 195.339V192.67V208.687V195.339Z" fill="white"/>
<path d="M467.055 199.343C468.307 200.581 469.3 202.052 469.977 203.671C470.654 205.291 471.001 207.027 471 208.78C471 212.464 469.492 215.801 467.055 218.216L465.157 216.334C466.161 215.345 466.956 214.167 467.497 212.87C468.037 211.574 468.313 210.183 468.307 208.78C468.307 205.83 467.109 203.147 465.157 201.225L467.055 199.343ZM463.246 203.12C463.997 203.862 464.593 204.744 465 205.716C465.406 206.687 465.615 207.728 465.615 208.78C465.615 210.982 464.713 212.984 463.246 214.439L461.348 212.557C461.848 212.061 462.245 211.472 462.515 210.824C462.785 210.176 462.924 209.481 462.923 208.78C462.923 207.298 462.317 205.963 461.348 205.002L463.246 203.12ZM457.538 206.11C458.252 206.11 458.937 206.391 459.442 206.892C459.947 207.393 460.23 208.072 460.23 208.78C460.23 209.488 459.947 210.167 459.442 210.667C458.937 211.168 458.252 211.449 457.538 211.449C456.824 211.449 456.139 211.168 455.634 210.667C455.129 210.167 454.846 209.488 454.846 208.78C454.846 208.072 455.129 207.393 455.634 206.892C456.139 206.391 456.824 206.11 457.538 206.11Z" fill="white"/>
<path d="M596.339 193.199C597.818 194.662 598.992 196.4 599.792 198.314C600.592 200.228 601.002 202.28 601 204.352C601 208.706 599.218 212.649 596.339 215.504L594.095 213.28C595.281 212.111 596.221 210.719 596.86 209.186C597.499 207.654 597.825 206.01 597.818 204.352C597.818 200.866 596.402 197.695 594.095 195.424L596.339 193.199ZM591.836 197.663C592.724 198.54 593.429 199.583 593.909 200.731C594.39 201.878 594.637 203.109 594.636 204.352C594.636 206.955 593.57 209.321 591.836 211.04L589.593 208.816C590.185 208.23 590.654 207.534 590.973 206.768C591.292 206.002 591.456 205.181 591.455 204.352C591.455 202.601 590.739 201.023 589.593 199.888L591.836 197.663ZM585.091 201.197C585.935 201.197 586.744 201.529 587.341 202.121C587.937 202.713 588.273 203.515 588.273 204.352C588.273 205.189 587.937 205.991 587.341 206.583C586.744 207.174 585.935 207.507 585.091 207.507C584.247 207.507 583.438 207.174 582.841 206.583C582.244 205.991 581.909 205.189 581.909 204.352C581.909 203.515 582.244 202.713 582.841 202.121C583.438 201.529 584.247 201.197 585.091 201.197ZM582.705 187C583.759 187 584.771 187.415 585.517 188.155C586.263 188.895 586.682 189.898 586.682 190.944V198.042H583.5V191.732H569.182V215.394H583.5V210.662H586.682V217.76C586.682 218.806 586.263 219.809 585.517 220.549C584.771 221.288 583.759 221.704 582.705 221.704H569.977C568.922 221.704 567.911 221.288 567.165 220.549C566.419 219.809 566 218.806 566 217.76V190.944C566 189.898 566.419 188.895 567.165 188.155C567.911 187.415 568.922 187 569.977 187H582.705Z" fill="white"/>
<path d="M52.4312 190.402V200.651V200.609V217.62V190.402ZM57.5781 207.413H61.8671C62.1245 206.761 62.439 206.151 62.8107 205.584C63.1825 205.017 63.6114 204.493 64.0975 204.011H57.5781C57.092 204.011 56.6843 204.174 56.3549 204.501C56.0255 204.827 55.8613 205.231 55.8625 205.712C55.8625 206.194 56.0272 206.598 56.3566 206.925C56.686 207.252 57.0932 207.414 57.5781 207.413ZM57.5781 214.217H61.3096C61.1666 213.65 61.0734 213.083 61.0299 212.516C60.9865 211.949 60.9939 211.382 61.0522 210.815H57.5781C57.092 210.815 56.6843 210.979 56.3549 211.305C56.0255 211.632 55.8613 212.036 55.8625 212.516C55.8625 212.998 56.0272 213.403 56.3566 213.729C56.686 214.056 57.0932 214.219 57.5781 214.217ZM52.4312 221.022C51.4877 221.022 50.6796 220.688 50.0071 220.022C49.3345 219.355 48.9989 218.554 49 217.62V190.402C49 189.467 49.3363 188.665 50.0088 187.999C50.6813 187.332 51.4888 186.999 52.4312 187H64.7408C65.1983 187 65.6346 187.085 66.0498 187.255C66.465 187.425 66.8293 187.666 67.1427 187.978L75.4634 196.228C75.778 196.54 76.021 196.902 76.1926 197.314C76.3641 197.725 76.4499 198.157 76.4499 198.61V201.459C75.9066 201.232 75.3491 201.055 74.7772 200.927C74.2053 200.799 73.6191 200.707 73.0187 200.651V198.908H66.1562C65.6701 198.908 65.2624 198.744 64.933 198.418C64.6036 198.091 64.4394 197.687 64.4406 197.207V190.402H52.4312V217.62H62.7678C63.2253 218.3 63.74 218.931 64.3119 219.513C64.8838 220.095 65.5128 220.598 66.1991 221.022H52.4312ZM72.1609 215.919C73.3618 215.919 74.3769 215.507 75.2061 214.685C76.0353 213.863 76.4499 212.857 76.4499 211.666C76.4499 210.475 76.0353 209.469 75.2061 208.646C74.3769 207.824 73.3618 207.413 72.1609 207.413C70.9599 207.413 69.9449 207.824 69.1156 208.646C68.2864 209.469 67.8718 210.475 67.8718 211.666C67.8718 212.857 68.2864 213.863 69.1156 214.685C69.9449 215.507 70.9599 215.919 72.1609 215.919ZM82.1115 221.532C81.7969 221.844 81.3966 222 80.9105 222C80.4244 222 80.0241 221.844 79.7096 221.532L76.2783 218.13C75.6779 218.527 75.0277 218.825 74.3277 219.023C73.6277 219.222 72.9054 219.321 72.1609 219.321C70.0163 219.321 68.1938 218.576 66.6932 217.087C65.1926 215.598 64.4417 213.791 64.4406 211.666C64.4406 209.539 65.1914 207.732 66.6932 206.243C68.1949 204.754 70.0175 204.01 72.1609 204.011C74.3054 204.011 76.1285 204.755 77.6303 206.244C79.132 207.733 79.8823 209.541 79.8811 211.666C79.8811 212.403 79.7811 213.119 79.5809 213.814C79.3808 214.51 79.0805 215.154 78.6802 215.748L82.1115 219.151C82.426 219.463 82.5832 219.859 82.5832 220.341C82.5832 220.823 82.426 221.22 82.1115 221.532Z" fill="white"/>
<path d="M337.055 198.36C338.307 199.598 339.3 201.069 339.977 202.688C340.654 204.308 341.001 206.044 341 207.797C341 211.481 339.492 214.818 337.055 217.234L335.157 215.352C336.161 214.362 336.956 213.184 337.497 211.888C338.037 210.591 338.313 209.2 338.307 207.797C338.307 204.847 337.109 202.164 335.157 200.242L337.055 198.36ZM333.246 202.137C333.997 202.88 334.593 203.762 335 204.733C335.406 205.704 335.615 206.745 335.615 207.797C335.615 209.999 334.713 212.001 333.246 213.456L331.348 211.574C331.848 211.078 332.245 210.49 332.515 209.841C332.785 209.193 332.924 208.498 332.923 207.797C332.923 206.315 332.317 204.98 331.348 204.019L333.246 202.137ZM327.538 205.127C328.252 205.127 328.937 205.409 329.442 205.909C329.947 206.41 330.23 207.089 330.23 207.797C330.23 208.505 329.947 209.184 329.442 209.684C328.937 210.185 328.252 210.466 327.538 210.466C326.824 210.466 326.139 210.185 325.634 209.684C325.129 209.184 324.846 208.505 324.846 207.797C324.846 207.089 325.129 206.41 325.634 205.909C326.139 205.409 326.824 205.127 327.538 205.127Z" fill="white"/>
<path d="M328.909 191H308.545C307.133 191 306.013 192.128 306.013 193.534L306 208.737C306 210.144 307.133 211.271 308.545 211.271H321.273V208.737H308.545V201.136H331.455V193.534C331.455 192.128 330.322 191 328.909 191ZM328.909 196.068H308.545V193.534H328.909V196.068Z" fill="white"/>
<path d="M261.682 205.197C260.356 205.197 259.229 204.737 258.301 203.817C257.373 202.897 256.909 201.779 256.909 200.465C256.909 199.15 257.373 198.033 258.301 197.113C259.229 196.192 260.356 195.732 261.682 195.732C263.008 195.732 264.134 196.192 265.062 197.113C265.991 198.033 266.455 199.15 266.455 200.465C266.455 201.779 265.991 202.897 265.062 203.817C264.134 204.737 263.008 205.197 261.682 205.197ZM250.545 209.929C249.67 209.929 248.921 209.62 248.298 209.002C247.674 208.383 247.363 207.641 247.364 206.774V194.155C247.364 193.287 247.675 192.544 248.299 191.926C248.923 191.308 249.672 190.999 250.545 191H272.818C273.693 191 274.442 191.309 275.066 191.928C275.69 192.546 276.001 193.288 276 194.155V206.774C276 207.642 275.688 208.385 275.065 209.003C274.441 209.622 273.692 209.93 272.818 209.929H250.545ZM253.727 206.774H269.636C269.636 205.907 269.948 205.164 270.572 204.545C271.195 203.927 271.944 203.618 272.818 203.62V197.31C271.943 197.31 271.194 197.001 270.57 196.382C269.947 195.764 269.635 195.021 269.636 194.155H253.727C253.727 195.022 253.415 195.765 252.792 196.384C252.168 197.002 251.419 197.311 250.545 197.31V203.62C251.42 203.62 252.17 203.929 252.793 204.547C253.417 205.165 253.728 205.908 253.727 206.774ZM244.182 216.239C243.307 216.239 242.558 215.93 241.934 215.311C241.31 214.693 240.999 213.951 241 213.084V197.31C241 196.863 241.153 196.488 241.458 196.185C241.764 195.882 242.141 195.731 242.591 195.732C243.042 195.732 243.42 195.884 243.725 196.187C244.031 196.489 244.183 196.864 244.182 197.31V213.084H269.636C270.087 213.084 270.465 213.236 270.771 213.538C271.076 213.841 271.228 214.216 271.227 214.662C271.227 215.109 271.075 215.483 270.769 215.786C270.464 216.089 270.086 216.24 269.636 216.239H244.182Z" fill="#4356E5"/>
<path d="M514.462 202.013L503.692 195.339V208.687H517.154V211.356H503.692C502.952 211.356 502.318 211.094 501.79 210.571C501.263 210.048 500.999 209.42 501 208.687V192.67C501 191.935 501.264 191.307 501.792 190.784C502.319 190.26 502.953 189.999 503.692 190H514.462H525.231C525.971 190 526.605 190.262 527.133 190.785C527.661 191.308 527.924 191.936 527.923 192.67V199.343H525.231V195.339L514.462 202.013ZM514.462 199.343L525.231 192.67H503.692L514.462 199.343ZM503.692 195.339V192.67V208.687V195.339Z" fill="#4356E5"/>
<path d="M532.055 199.343C533.307 200.581 534.3 202.052 534.977 203.671C535.654 205.291 536.001 207.027 536 208.78C536 212.464 534.492 215.801 532.055 218.216L530.157 216.334C531.161 215.345 531.956 214.167 532.497 212.87C533.037 211.574 533.313 210.183 533.307 208.78C533.307 205.83 532.109 203.147 530.157 201.225L532.055 199.343ZM528.246 203.12C528.997 203.862 529.593 204.744 530 205.716C530.406 206.687 530.615 207.728 530.615 208.78C530.615 210.982 529.713 212.984 528.246 214.439L526.348 212.557C526.848 212.061 527.245 211.472 527.515 210.824C527.785 210.176 527.924 209.481 527.923 208.78C527.923 207.298 527.317 205.963 526.348 205.002L528.246 203.12ZM522.538 206.11C523.252 206.11 523.937 206.391 524.442 206.892C524.947 207.393 525.23 208.072 525.23 208.78C525.23 209.488 524.947 210.167 524.442 210.667C523.937 211.168 523.252 211.449 522.538 211.449C521.824 211.449 521.139 211.168 520.634 210.667C520.129 210.167 519.846 209.488 519.846 208.78C519.846 208.072 520.129 207.393 520.634 206.892C521.139 206.391 521.824 206.11 522.538 206.11Z" fill="#4356E5"/>
<path d="M661.339 193.199C662.818 194.662 663.992 196.4 664.792 198.314C665.592 200.228 666.002 202.28 666 204.352C666 208.706 664.218 212.649 661.339 215.504L659.095 213.28C660.281 212.111 661.221 210.719 661.86 209.186C662.499 207.654 662.825 206.01 662.818 204.352C662.818 200.866 661.402 197.695 659.095 195.424L661.339 193.199ZM656.836 197.663C657.724 198.54 658.429 199.583 658.909 200.731C659.39 201.878 659.637 203.109 659.636 204.352C659.636 206.955 658.57 209.321 656.836 211.04L654.593 208.816C655.185 208.23 655.654 207.534 655.973 206.768C656.292 206.002 656.456 205.181 656.455 204.352C656.455 202.601 655.739 201.023 654.593 199.888L656.836 197.663ZM650.091 201.197C650.935 201.197 651.744 201.529 652.341 202.121C652.937 202.713 653.273 203.515 653.273 204.352C653.273 205.189 652.937 205.991 652.341 206.583C651.744 207.174 650.935 207.507 650.091 207.507C649.247 207.507 648.438 207.174 647.841 206.583C647.244 205.991 646.909 205.189 646.909 204.352C646.909 203.515 647.244 202.713 647.841 202.121C648.438 201.529 649.247 201.197 650.091 201.197ZM647.705 187C648.759 187 649.771 187.415 650.517 188.155C651.263 188.895 651.682 189.898 651.682 190.944V198.042H648.5V191.732H634.182V215.394H648.5V210.662H651.682V217.76C651.682 218.806 651.263 219.809 650.517 220.549C649.771 221.288 648.759 221.704 647.705 221.704H634.977C633.922 221.704 632.911 221.288 632.165 220.549C631.419 219.809 631 218.806 631 217.76V190.944C631 189.898 631.419 188.895 632.165 188.155C632.911 187.415 633.922 187 634.977 187H647.705Z" fill="#4356E5"/>
<path d="M115.73 190.402V200.651V200.609V217.62V190.402ZM120.877 207.413H125.166C125.423 206.761 125.738 206.151 126.11 205.584C126.481 205.017 126.91 204.493 127.396 204.011H120.877C120.391 204.011 119.983 204.174 119.654 204.501C119.324 204.827 119.16 205.231 119.161 205.712C119.161 206.194 119.326 206.598 119.656 206.925C119.985 207.252 120.392 207.414 120.877 207.413ZM120.877 214.217H124.609C124.466 213.65 124.372 213.083 124.329 212.516C124.285 211.949 124.293 211.382 124.351 210.815H120.877C120.391 210.815 119.983 210.979 119.654 211.305C119.324 211.632 119.16 212.036 119.161 212.516C119.161 212.998 119.326 213.403 119.656 213.729C119.985 214.056 120.392 214.219 120.877 214.217ZM115.73 221.022C114.787 221.022 113.979 220.688 113.306 220.022C112.633 219.355 112.298 218.554 112.299 217.62V190.402C112.299 189.467 112.635 188.665 113.308 187.999C113.98 187.332 114.788 186.999 115.73 187H128.04C128.497 187 128.934 187.085 129.349 187.255C129.764 187.425 130.128 187.666 130.442 187.978L138.762 196.228C139.077 196.54 139.32 196.902 139.492 197.314C139.663 197.725 139.749 198.157 139.749 198.61V201.459C139.206 201.232 138.648 201.055 138.076 200.927C137.504 200.799 136.918 200.707 136.318 200.651V198.908H129.455C128.969 198.908 128.561 198.744 128.232 198.418C127.903 198.091 127.738 197.687 127.74 197.207V190.402H115.73V217.62H126.067C126.524 218.3 127.039 218.931 127.611 219.513C128.183 220.095 128.812 220.598 129.498 221.022H115.73ZM135.46 215.919C136.661 215.919 137.676 215.507 138.505 214.685C139.334 213.863 139.749 212.857 139.749 211.666C139.749 210.475 139.334 209.469 138.505 208.646C137.676 207.824 136.661 207.413 135.46 207.413C134.259 207.413 133.244 207.824 132.415 208.646C131.585 209.469 131.171 210.475 131.171 211.666C131.171 212.857 131.585 213.863 132.415 214.685C133.244 215.507 134.259 215.919 135.46 215.919ZM145.41 221.532C145.096 221.844 144.696 222 144.209 222C143.723 222 143.323 221.844 143.009 221.532L139.577 218.13C138.977 218.527 138.327 218.825 137.627 219.023C136.927 219.222 136.204 219.321 135.46 219.321C133.315 219.321 131.493 218.576 129.992 217.087C128.492 215.598 127.741 213.791 127.74 211.666C127.74 209.539 128.49 207.732 129.992 206.243C131.494 204.754 133.316 204.01 135.46 204.011C137.604 204.011 139.427 204.755 140.929 206.244C142.431 207.733 143.181 209.541 143.18 211.666C143.18 212.403 143.08 213.119 142.88 213.814C142.68 214.51 142.379 215.154 141.979 215.748L145.41 219.151C145.725 219.463 145.882 219.859 145.882 220.341C145.882 220.823 145.725 221.22 145.41 221.532Z" fill="#4356E5"/>
<path d="M402.055 198.36C403.307 199.598 404.3 201.069 404.977 202.688C405.654 204.308 406.001 206.044 406 207.797C406 211.481 404.492 214.818 402.055 217.234L400.157 215.352C401.161 214.362 401.956 213.184 402.497 211.888C403.037 210.591 403.313 209.2 403.307 207.797C403.307 204.847 402.109 202.164 400.157 200.242L402.055 198.36ZM398.246 202.137C398.997 202.88 399.593 203.762 400 204.733C400.406 205.704 400.615 206.745 400.615 207.797C400.615 209.999 399.713 212.001 398.246 213.456L396.348 211.574C396.848 211.078 397.245 210.49 397.515 209.841C397.785 209.193 397.924 208.498 397.923 207.797C397.923 206.315 397.317 204.98 396.348 204.019L398.246 202.137ZM392.538 205.127C393.252 205.127 393.937 205.409 394.442 205.909C394.947 206.41 395.23 207.089 395.23 207.797C395.23 208.505 394.947 209.184 394.442 209.684C393.937 210.185 393.252 210.466 392.538 210.466C391.824 210.466 391.139 210.185 390.634 209.684C390.129 209.184 389.846 208.505 389.846 207.797C389.846 207.089 390.129 206.41 390.634 205.909C391.139 205.409 391.824 205.127 392.538 205.127Z" fill="#4356E5"/>
<path d="M393.909 191H373.545C372.133 191 371.013 192.128 371.013 193.534L371 208.737C371 210.144 372.133 211.271 373.545 211.271H386.273V208.737H373.545V201.136H396.455V193.534C396.455 192.128 395.322 191 393.909 191ZM393.909 196.068H373.545V193.534H393.909V196.068Z" fill="#4356E5"/>
<path d="M67.112 296V291.714H81.9768V289.571H73.4826V272.429H81.9768V270.286C81.9768 266.143 80.5257 262.607 77.6236 259.679C74.7214 256.75 71.2175 255.286 67.112 255.286C63.0064 255.286 59.5026 256.75 56.6004 259.679C53.6982 262.607 52.2471 266.143 52.2471 270.286V272.429H60.7413V289.571H52.2471C51.0792 289.571 50.079 289.151 49.2465 288.311C48.4141 287.471 47.9986 286.463 48 285.286V270.286C48 267.643 48.5047 265.151 49.5141 262.811C50.5235 260.471 51.8946 258.427 53.6274 256.679C55.3616 254.929 57.3882 253.544 59.7071 252.526C62.0261 251.507 64.4943 250.999 67.112 251C69.731 251 72.2 251.509 74.5189 252.528C76.8378 253.546 78.8637 254.93 80.5965 256.679C82.3308 258.429 83.7026 260.474 84.712 262.814C85.7214 265.154 86.2253 267.644 86.2239 270.286V291.714C86.2239 292.893 85.8077 293.902 84.9753 294.742C84.1429 295.582 83.1434 296.001 81.9768 296H67.112ZM52.2471 285.286H56.4942V276.714H52.2471V285.286ZM77.7297 285.286H81.9768V276.714H77.7297V285.286Z" fill="#4356E5"/>
<path d="M59.7413 515V512.143H69.6512V510.714H63.9884V499.286H69.6512V497.857C69.6512 495.095 68.6838 492.738 66.749 490.786C64.8142 488.833 62.4783 487.857 59.7413 487.857C57.0043 487.857 54.6684 488.833 52.7336 490.786C50.7988 492.738 49.8314 495.095 49.8314 497.857V499.286H55.4942V510.714H49.8314C49.0528 510.714 48.386 510.434 47.831 509.874C47.2761 509.314 46.9991 508.642 47 507.857V497.857C47 496.095 47.3365 494.434 48.0094 492.874C48.6823 491.314 49.5964 489.951 50.7516 488.786C51.9078 487.619 53.2588 486.696 54.8048 486.017C56.3507 485.338 57.9962 484.999 59.7413 485C61.4873 485 63.1333 485.34 64.6793 486.019C66.2252 486.698 67.5758 487.62 68.731 488.786C69.8872 489.952 70.8017 491.316 71.4746 492.876C72.1476 494.436 72.4836 496.096 72.4826 497.857V512.143C72.4826 512.929 72.2051 513.601 71.6502 514.161C71.0952 514.721 70.4289 515.001 69.6512 515H59.7413ZM49.8314 507.857H52.6628V502.143H49.8314V507.857ZM66.8198 507.857H69.6512V502.143H66.8198V507.857Z" fill="#4356E5"/>
<path d="M136.112 296V291.714H150.977V289.571H142.483V272.429H150.977V270.286C150.977 266.143 149.526 262.607 146.624 259.679C143.721 256.75 140.218 255.286 136.112 255.286C132.006 255.286 128.503 256.75 125.6 259.679C122.698 262.607 121.247 266.143 121.247 270.286V272.429H129.741V289.571H121.247C120.079 289.571 119.079 289.151 118.247 288.311C117.414 287.471 116.999 286.463 117 285.286V270.286C117 267.643 117.505 265.151 118.514 262.811C119.523 260.471 120.895 258.427 122.627 256.679C124.362 254.929 126.388 253.544 128.707 252.526C131.026 251.507 133.494 250.999 136.112 251C138.731 251 141.2 251.509 143.519 252.528C145.838 253.546 147.864 254.93 149.597 256.679C151.331 258.429 152.703 260.474 153.712 262.814C154.721 265.154 155.225 267.644 155.224 270.286V291.714C155.224 292.893 154.808 293.902 153.975 294.742C153.143 295.582 152.143 296.001 150.977 296H136.112ZM121.247 285.286H125.494V276.714H121.247V285.286ZM146.73 285.286H150.977V276.714H146.73V285.286Z" fill="#FF3843"/>
<path fill-rule="evenodd" clip-rule="evenodd" d="M208.314 251C209.328 251 210.151 251.822 210.151 252.837V255.133C210.151 256.147 209.328 256.969 208.314 256.969C207.299 256.969 206.477 256.147 206.477 255.133V252.837C206.477 251.822 207.299 251 208.314 251ZM192.459 257.501C193.18 256.787 194.343 256.793 195.057 257.513L196.65 259.12C197.364 259.841 197.358 261.004 196.638 261.718C195.917 262.432 194.754 262.427 194.04 261.706L192.448 260.099C191.734 259.378 191.739 258.216 192.459 257.501ZM224.168 257.501C224.889 258.216 224.894 259.378 224.18 260.099L222.587 261.706C221.873 262.427 220.71 262.432 219.99 261.718C219.269 261.004 219.264 259.841 219.978 259.12L221.571 257.513C222.285 256.793 223.448 256.787 224.168 257.501ZM208.314 263.857C206.316 263.857 204.367 264.491 202.742 265.673C201.118 266.854 199.901 268.523 199.266 270.446C198.63 272.369 198.611 274.445 199.21 276.38C199.809 278.314 200.995 280.007 202.597 281.219C202.663 281.27 202.727 281.325 202.786 281.384C203.319 281.917 203.788 282.507 204.184 283.143H212.443C212.84 282.507 213.308 281.917 213.842 281.384C213.901 281.325 213.964 281.27 214.031 281.219C215.633 280.007 216.819 278.314 217.418 276.38C218.017 274.445 217.997 272.369 217.362 270.446C216.727 268.523 215.51 266.854 213.885 265.673C212.261 264.491 210.312 263.857 208.314 263.857ZM215.123 285.923C215.188 285.815 215.242 285.7 215.284 285.579C215.564 285.023 215.926 284.512 216.358 284.064C218.52 282.391 220.116 280.087 220.927 277.466C221.752 274.801 221.725 271.942 220.85 269.294C219.975 266.645 218.296 264.338 216.046 262.702C213.796 261.066 211.091 260.184 208.314 260.184C205.537 260.184 202.832 261.066 200.582 262.702C198.332 264.338 196.652 266.645 195.777 269.294C194.902 271.942 194.876 274.801 195.701 277.466C196.512 280.087 198.107 282.391 200.269 284.064C200.702 284.512 201.064 285.023 201.344 285.579C201.386 285.7 201.44 285.815 201.504 285.922C201.575 286.088 201.64 286.257 201.697 286.43C202.002 287.355 202.088 288.34 201.946 289.305C201.933 289.393 201.927 289.482 201.927 289.571C201.927 291.271 202.596 292.904 203.792 294.111C204.988 295.319 206.614 296 208.314 296C210.013 296 211.64 295.319 212.836 294.111C214.032 292.904 214.701 291.271 214.701 289.571C214.701 289.482 214.695 289.393 214.682 289.305C214.54 288.34 214.626 287.355 214.931 286.43C214.988 286.257 215.052 286.088 215.123 285.923ZM211.068 286.816H205.56C205.712 287.762 205.727 288.727 205.602 289.682C205.63 290.378 205.916 291.036 206.401 291.525C206.911 292.04 207.6 292.327 208.314 292.327C209.028 292.327 209.717 292.04 210.227 291.525C210.712 291.036 210.998 290.378 211.025 289.682C210.901 288.727 210.916 287.762 211.068 286.816ZM186 273.5C186 272.486 186.822 271.663 187.837 271.663H190.112C191.126 271.663 191.949 272.486 191.949 273.5C191.949 274.514 191.126 275.337 190.112 275.337H187.837C186.822 275.337 186 274.514 186 273.5ZM224.679 273.5C224.679 272.486 225.501 271.663 226.516 271.663H228.791C229.805 271.663 230.628 272.486 230.628 273.5C230.628 274.514 229.805 275.337 228.791 275.337H226.516C225.501 275.337 224.679 274.514 224.679 273.5Z" fill="#4356E5"/>
<path fill-rule="evenodd" clip-rule="evenodd" d="M119.876 485C120.552 485 121.1 485.548 121.1 486.224V487.755C121.1 488.431 120.552 488.98 119.876 488.98C119.2 488.98 118.651 488.431 118.651 487.755V486.224C118.651 485.548 119.2 485 119.876 485ZM109.306 489.334C109.787 488.858 110.562 488.862 111.038 489.342L112.1 490.414C112.576 490.894 112.572 491.669 112.092 492.145C111.612 492.621 110.836 492.618 110.36 492.137L109.298 491.066C108.822 490.586 108.826 489.81 109.306 489.334ZM130.445 489.334C130.926 489.81 130.929 490.586 130.453 491.066L129.392 492.137C128.916 492.618 128.14 492.621 127.66 492.145C127.18 491.669 127.176 490.894 127.652 490.414L128.714 489.342C129.19 488.862 129.965 488.858 130.445 489.334ZM119.876 493.571C118.544 493.571 117.244 493.994 116.162 494.782C115.079 495.569 114.267 496.682 113.844 497.964C113.42 499.246 113.407 500.63 113.806 501.92C114.206 503.209 114.996 504.338 116.064 505.146C116.109 505.18 116.151 505.217 116.191 505.256C116.546 505.611 116.859 506.005 117.123 506.429H122.629C122.893 506.005 123.206 505.611 123.561 505.256C123.601 505.217 123.643 505.18 123.687 505.146C124.755 504.338 125.546 503.209 125.945 501.92C126.345 500.63 126.332 499.246 125.908 497.964C125.485 496.682 124.673 495.569 123.59 494.782C122.507 493.994 121.208 493.571 119.876 493.571ZM124.416 508.282C124.459 508.21 124.495 508.133 124.522 508.053C124.709 507.682 124.951 507.341 125.239 507.043C126.68 505.928 127.744 504.391 128.285 502.644C128.835 500.867 128.817 498.962 128.234 497.196C127.65 495.43 126.53 493.892 125.031 492.801C123.531 491.71 121.727 491.122 119.876 491.122C118.024 491.122 116.221 491.71 114.721 492.801C113.221 493.892 112.102 495.43 111.518 497.196C110.935 498.962 110.917 500.867 111.467 502.644C112.008 504.391 113.071 505.928 114.513 507.043C114.801 507.341 115.043 507.682 115.229 508.053C115.257 508.133 115.293 508.21 115.336 508.282C115.384 508.392 115.426 508.505 115.464 508.62C115.668 509.236 115.725 509.893 115.631 510.537C115.622 510.595 115.618 510.655 115.618 510.714C115.618 511.847 116.064 512.936 116.861 513.741C117.659 514.546 118.743 515 119.876 515C121.009 515 122.093 514.546 122.891 513.741C123.688 512.936 124.134 511.847 124.134 510.714C124.134 510.655 124.13 510.595 124.121 510.537C124.027 509.893 124.084 509.236 124.287 508.62C124.325 508.505 124.368 508.392 124.416 508.282ZM121.712 508.878H118.04C118.141 509.508 118.151 510.152 118.068 510.788C118.087 511.252 118.277 511.691 118.601 512.017C118.941 512.36 119.4 512.551 119.876 512.551C120.352 512.551 120.811 512.36 121.151 512.017C121.475 511.691 121.665 511.252 121.684 510.788C121.601 510.152 121.61 509.508 121.712 508.878ZM105 500C105 499.324 105.548 498.776 106.224 498.776H107.741C108.418 498.776 108.966 499.324 108.966 500C108.966 500.676 108.418 501.224 107.741 501.224H106.224C105.548 501.224 105 500.676 105 500ZM130.786 500C130.786 499.324 131.334 498.776 132.01 498.776H133.527C134.204 498.776 134.752 499.324 134.752 500C134.752 500.676 134.204 501.224 133.527 501.224H132.01C131.334 501.224 130.786 500.676 130.786 500Z" fill="#4356E5"/>
<path fill-rule="evenodd" clip-rule="evenodd" d="M283.314 251C284.328 251 285.151 251.822 285.151 252.837V255.133C285.151 256.147 284.328 256.969 283.314 256.969C282.299 256.969 281.477 256.147 281.477 255.133V252.837C281.477 251.822 282.299 251 283.314 251ZM267.459 257.501C268.18 256.787 269.343 256.793 270.057 257.513L271.65 259.12C272.364 259.841 272.358 261.004 271.638 261.718C270.917 262.432 269.754 262.427 269.04 261.706L267.448 260.099C266.734 259.378 266.739 258.216 267.459 257.501ZM299.168 257.501C299.889 258.216 299.894 259.378 299.18 260.099L297.587 261.706C296.873 262.427 295.71 262.432 294.99 261.718C294.269 261.004 294.264 259.841 294.978 259.12L296.571 257.513C297.285 256.793 298.448 256.787 299.168 257.501ZM283.314 263.857C281.316 263.857 279.367 264.491 277.742 265.673C276.118 266.854 274.901 268.523 274.266 270.446C273.63 272.369 273.611 274.445 274.21 276.38C274.809 278.314 275.995 280.007 277.597 281.219C277.663 281.27 277.727 281.325 277.786 281.384C278.319 281.917 278.788 282.507 279.184 283.143H287.443C287.84 282.507 288.308 281.917 288.842 281.384C288.901 281.325 288.964 281.27 289.031 281.219C290.633 280.007 291.819 278.314 292.418 276.38C293.017 274.445 292.997 272.369 292.362 270.446C291.727 268.523 290.51 266.854 288.885 265.673C287.261 264.491 285.312 263.857 283.314 263.857ZM290.123 285.923C290.188 285.815 290.242 285.7 290.284 285.579C290.564 285.023 290.926 284.512 291.358 284.064C293.52 282.391 295.116 280.087 295.927 277.466C296.752 274.801 296.725 271.942 295.85 269.294C294.975 266.645 293.296 264.338 291.046 262.702C288.796 261.066 286.091 260.184 283.314 260.184C280.537 260.184 277.832 261.066 275.582 262.702C273.332 264.338 271.652 266.645 270.777 269.294C269.902 271.942 269.876 274.801 270.701 277.466C271.512 280.087 273.107 282.391 275.269 284.064C275.702 284.512 276.064 285.023 276.344 285.579C276.386 285.7 276.44 285.815 276.504 285.922C276.575 286.088 276.64 286.257 276.697 286.43C277.002 287.355 277.088 288.34 276.946 289.305C276.933 289.393 276.927 289.482 276.927 289.571C276.927 291.271 277.596 292.904 278.792 294.111C279.988 295.319 281.614 296 283.314 296C285.013 296 286.64 295.319 287.836 294.111C289.032 292.904 289.701 291.271 289.701 289.571C289.701 289.482 289.695 289.393 289.682 289.305C289.54 288.34 289.626 287.355 289.931 286.43C289.988 286.257 290.052 286.088 290.123 285.923ZM286.068 286.816H280.56C280.712 287.762 280.727 288.727 280.602 289.682C280.63 290.378 280.916 291.036 281.401 291.525C281.911 292.04 282.6 292.327 283.314 292.327C284.028 292.327 284.717 292.04 285.227 291.525C285.712 291.036 285.998 290.378 286.025 289.682C285.901 288.727 285.916 287.762 286.068 286.816ZM261 273.5C261 272.486 261.822 271.663 262.837 271.663H265.112C266.126 271.663 266.949 272.486 266.949 273.5C266.949 274.514 266.126 275.337 265.112 275.337H262.837C261.822 275.337 261 274.514 261 273.5ZM299.679 273.5C299.679 272.486 300.501 271.663 301.516 271.663H303.791C304.805 271.663 305.628 272.486 305.628 273.5C305.628 274.514 304.805 275.337 303.791 275.337H301.516C300.501 275.337 299.679 274.514 299.679 273.5Z" fill="#FF3843"/>
<path d="M340.459 251C339.277 251 338.142 251.474 337.306 252.318C336.47 253.162 336 254.307 336 255.5V282.5C336 283.693 336.47 284.838 337.306 285.682C338.142 286.526 339.277 287 340.459 287H349.378V293.75C349.378 294.347 349.613 294.919 350.031 295.341C350.45 295.763 351.017 296 351.608 296H352.723C353.28 296 353.838 295.775 354.284 295.347L362.534 287H376.135C377.318 287 378.452 286.526 379.288 285.682C380.125 284.838 380.595 283.693 380.595 282.5V255.5C380.595 254.307 380.125 253.162 379.288 252.318C378.452 251.474 377.318 251 376.135 251H340.459ZM340.459 255.5H376.135V282.5H360.705L353.838 289.43V282.5H340.459V255.5ZM358.721 258.875C356.736 258.875 355.153 259.28 353.949 260.09C352.723 260.9 352.099 262.25 352.21 263.803H356.603C356.603 263.173 356.826 262.7 357.182 262.385C357.628 262.07 358.119 261.912 358.721 261.912C359.412 261.912 360.014 262.093 360.416 262.498C360.817 262.88 361.018 263.375 361.018 264.05C361.018 264.68 360.839 265.242 360.527 265.715C360.148 266.21 359.68 266.615 359.1 266.93C357.941 267.65 357.182 268.28 356.714 268.82C356.291 269.36 356.068 270.125 356.068 271.25H360.527C360.527 270.62 360.639 270.125 360.839 269.72C361.04 269.337 361.419 269 361.999 268.663C363.024 268.19 363.872 267.56 364.518 266.75C365.165 265.917 365.499 265.04 365.499 264.05C365.499 262.475 364.897 261.215 363.693 260.27C362.489 259.347 360.817 258.875 358.721 258.875ZM356.068 273.5V278H360.527V273.5H356.068Z" fill="#4356E5"/>
<path d="M167.973 485C167.184 485 166.428 485.316 165.871 485.879C165.313 486.441 165 487.204 165 488V506C165 506.796 165.313 507.559 165.871 508.121C166.428 508.684 167.184 509 167.973 509H173.919V513.5C173.919 513.898 174.076 514.279 174.354 514.561C174.633 514.842 175.011 515 175.405 515H176.149C176.52 515 176.892 514.85 177.189 514.565L182.689 509H191.757C192.545 509 193.301 508.684 193.859 508.121C194.417 507.559 194.73 506.796 194.73 506V488C194.73 487.204 194.417 486.441 193.859 485.879C193.301 485.316 192.545 485 191.757 485H167.973ZM167.973 488H191.757V506H181.47L176.892 510.62V506H167.973V488ZM180.147 490.25C178.824 490.25 177.769 490.52 176.966 491.06C176.149 491.6 175.732 492.5 175.807 493.535H178.735C178.735 493.115 178.884 492.8 179.122 492.59C179.419 492.38 179.746 492.275 180.147 492.275C180.608 492.275 181.009 492.395 181.277 492.665C181.545 492.92 181.678 493.25 181.678 493.7C181.678 494.12 181.559 494.495 181.351 494.81C181.099 495.14 180.786 495.41 180.4 495.62C179.627 496.1 179.122 496.52 178.809 496.88C178.527 497.24 178.378 497.75 178.378 498.5H181.351C181.351 498.08 181.426 497.75 181.559 497.48C181.693 497.225 181.946 497 182.332 496.775C183.016 496.46 183.581 496.04 184.012 495.5C184.443 494.945 184.666 494.36 184.666 493.7C184.666 492.65 184.265 491.81 183.462 491.18C182.659 490.565 181.545 490.25 180.147 490.25ZM178.378 500V503H181.351V500H178.378Z" fill="#4356E5"/>
<path d="M415.459 251C414.277 251 413.142 251.474 412.306 252.318C411.47 253.162 411 254.307 411 255.5V282.5C411 283.693 411.47 284.838 412.306 285.682C413.142 286.526 414.277 287 415.459 287H424.378V293.75C424.378 294.347 424.613 294.919 425.031 295.341C425.45 295.763 426.017 296 426.608 296H427.723C428.28 296 428.838 295.775 429.284 295.347L437.534 287H451.135C452.318 287 453.452 286.526 454.288 285.682C455.125 284.838 455.595 283.693 455.595 282.5V255.5C455.595 254.307 455.125 253.162 454.288 252.318C453.452 251.474 452.318 251 451.135 251H415.459ZM415.459 255.5H451.135V282.5H435.705L428.838 289.43V282.5H415.459V255.5ZM433.721 258.875C431.736 258.875 430.153 259.28 428.949 260.09C427.723 260.9 427.099 262.25 427.21 263.802H431.603C431.603 263.172 431.826 262.7 432.182 262.385C432.628 262.07 433.119 261.912 433.721 261.912C434.412 261.912 435.014 262.093 435.416 262.498C435.817 262.88 436.018 263.375 436.018 264.05C436.018 264.68 435.839 265.243 435.527 265.715C435.148 266.21 434.68 266.615 434.1 266.93C432.941 267.65 432.182 268.28 431.714 268.82C431.291 269.36 431.068 270.125 431.068 271.25H435.527C435.527 270.62 435.639 270.125 435.839 269.72C436.04 269.337 436.419 269 436.999 268.663C438.024 268.19 438.872 267.56 439.518 266.75C440.165 265.918 440.499 265.04 440.499 264.05C440.499 262.475 439.897 261.215 438.693 260.27C437.489 259.347 435.817 258.875 433.721 258.875ZM431.068 273.5V278H435.527V273.5H431.068Z" fill="#FF3843"/>
<path d="M513.339 270.863C518.806 270.863 523.18 275.277 523.18 280.794C523.18 282.736 522.634 284.568 521.671 286.091L528.408 292.932L525.367 296L518.544 289.225C517.035 290.174 515.241 290.725 513.339 290.725C507.871 290.725 503.497 286.311 503.497 280.794C503.497 275.277 507.871 270.863 513.339 270.863ZM513.339 275.277C511.888 275.277 510.498 275.858 509.472 276.893C508.447 277.927 507.871 279.331 507.871 280.794C507.871 282.257 508.447 283.661 509.472 284.695C510.498 285.73 511.888 286.311 513.339 286.311C514.789 286.311 516.179 285.73 517.205 284.695C518.23 283.661 518.806 282.257 518.806 280.794C518.806 279.331 518.23 277.927 517.205 276.893C516.179 275.858 514.789 275.277 513.339 275.277ZM490.374 251H520.993C523.421 251 525.367 252.964 525.367 255.414V273.136C524.274 271.37 522.765 269.847 520.993 268.656V255.414H490.374V286.311H500.216C500.894 287.967 501.878 289.445 503.081 290.725H490.374C487.947 290.725 486 288.761 486 286.311V255.414C486 252.964 487.947 251 490.374 251ZM494.748 259.828H516.619V264.242H494.748V259.828ZM494.748 268.656H505.749C504 269.759 502.491 271.282 501.31 273.07H494.748V268.656ZM494.748 277.484H499.494C499.254 278.587 499.122 279.691 499.122 280.794V281.897H494.748V277.484Z" fill="#4356E5"/>
<path d="M244.559 498.242C248.204 498.242 251.12 501.184 251.12 504.863C251.12 506.157 250.756 507.379 250.114 508.394L254.605 512.955L252.578 515L248.029 510.483C247.023 511.116 245.828 511.484 244.559 511.484C240.914 511.484 237.998 508.541 237.998 504.863C237.998 501.184 240.914 498.242 244.559 498.242ZM244.559 501.184C243.592 501.184 242.665 501.572 241.982 502.262C241.298 502.952 240.914 503.887 240.914 504.863C240.914 505.838 241.298 506.774 241.982 507.464C242.665 508.153 243.592 508.541 244.559 508.541C245.526 508.541 246.453 508.153 247.137 507.464C247.82 506.774 248.204 505.838 248.204 504.863C248.204 503.887 247.82 502.952 247.137 502.262C246.453 501.572 245.526 501.184 244.559 501.184ZM229.249 485H249.662C251.281 485 252.578 486.309 252.578 487.943V499.757C251.849 498.58 250.843 497.565 249.662 496.77V487.943H229.249V508.541H235.811C236.263 509.644 236.919 510.63 237.721 511.484H229.249C227.631 511.484 226.333 510.174 226.333 508.541V487.943C226.333 486.309 227.631 485 229.249 485ZM232.166 490.885H246.746V493.828H232.166V490.885ZM232.166 496.77H239.5C238.333 497.506 237.327 498.521 236.54 499.713H232.166V496.77ZM232.166 502.656H235.33C235.169 503.391 235.082 504.127 235.082 504.863V505.598H232.166V502.656Z" fill="#4356E5"/>
<path d="M585.339 270.863C590.806 270.863 595.18 275.277 595.18 280.794C595.18 282.736 594.634 284.568 593.671 286.091L600.408 292.932L597.367 296L590.544 289.225C589.035 290.174 587.241 290.725 585.339 290.725C579.871 290.725 575.497 286.311 575.497 280.794C575.497 275.277 579.871 270.863 585.339 270.863ZM585.339 275.277C583.888 275.277 582.498 275.858 581.472 276.893C580.447 277.927 579.871 279.331 579.871 280.794C579.871 282.257 580.447 283.661 581.472 284.695C582.498 285.73 583.888 286.311 585.339 286.311C586.789 286.311 588.179 285.73 589.205 284.695C590.23 283.661 590.806 282.257 590.806 280.794C590.806 279.331 590.23 277.927 589.205 276.893C588.179 275.858 586.789 275.277 585.339 275.277ZM562.374 251H592.993C595.421 251 597.367 252.964 597.367 255.414V273.136C596.274 271.37 594.765 269.847 592.993 268.656V255.414H562.374V286.311H572.216C572.894 287.967 573.878 289.445 575.081 290.725H562.374C559.947 290.725 558 288.761 558 286.311V255.414C558 252.964 559.947 251 562.374 251ZM566.748 259.828H588.619V264.242H566.748V259.828ZM566.748 268.656H577.749C576 269.759 574.491 271.282 573.31 273.07H566.748V268.656ZM566.748 277.484H571.494C571.254 278.587 571.122 279.691 571.122 280.794V281.897H566.748V277.484Z" fill="#FF3843"/>
<path d="M513.155 335.762L509.257 333.738L512.016 328H530.567L533.349 333.738L529.45 335.74L527.873 332.5H514.732L513.155 335.762ZM535.802 341.5H525.88L524.15 334.75H518.455L516.725 341.5H506.803L504 347.238L507.92 349.24L509.519 346H533.086L534.663 349.262L538.584 347.26L535.802 341.5ZM533.94 373H529.407L528.881 370.975L521.303 359.275L513.703 370.975L513.199 373H508.665L514.995 348.25H519.529L518.74 351.288L521.303 355.225L523.843 351.288L523.077 348.25H527.611L533.94 373ZM519.989 357.25L518.017 354.212L515.433 364.292L519.989 357.25ZM527.173 364.27L524.588 354.19L522.617 357.25L527.173 364.27Z" fill="#4356E5"/>
<path d="M474.437 490.175L471.838 488.825L473.677 485H486.045L487.899 488.825L485.3 490.16L484.249 488H475.488L474.437 490.175ZM489.535 494H482.92L481.767 489.5H477.97L476.817 494H470.202L468.333 497.825L470.947 499.16L472.013 497H487.724L488.775 499.175L491.389 497.84L489.535 494ZM488.294 515H485.271L484.921 513.65L479.868 505.85L474.802 513.65L474.466 515H471.443L475.663 498.5H478.686L478.16 500.525L479.868 503.15L481.562 500.525L481.051 498.5H484.074L488.294 515ZM478.992 504.5L477.678 502.475L475.955 509.195L478.992 504.5ZM483.782 509.18L482.059 502.46L480.745 504.5L483.782 509.18Z" fill="#4356E5"/>
<path d="M578.155 335.762L574.257 333.738L577.016 328H595.567L598.349 333.738L594.45 335.74L592.873 332.5H579.732L578.155 335.762ZM600.802 341.5H590.88L589.15 334.75H583.455L581.725 341.5H571.803L569 347.238L572.92 349.24L574.519 346H598.086L599.663 349.262L603.584 347.26L600.802 341.5ZM598.94 373H594.407L593.881 370.975L586.303 359.275L578.703 370.975L578.199 373H573.665L579.995 348.25H584.529L583.74 351.288L586.303 355.225L588.843 351.288L588.077 348.25H592.611L598.94 373ZM584.989 357.25L583.017 354.212L580.433 364.292L584.989 357.25ZM592.173 364.27L589.588 354.19L587.617 357.25L592.173 364.27Z" fill="#FF3843"/>
<path d="M361.206 370.868C360.344 370.868 359.594 370.547 358.956 369.903C358.319 369.26 358 368.503 358 367.633C358 367.292 358.085 366.904 358.254 366.468C358.424 366.032 358.639 365.682 358.9 365.419L360.25 364.057H353.5C352.263 364.057 351.203 363.612 350.321 362.722C349.439 361.832 348.999 360.763 349 359.516V334.541C349 333.292 349.441 332.223 350.323 331.333C351.205 330.443 352.264 329.998 353.5 330H389.5C390.737 330 391.797 330.445 392.679 331.335C393.561 332.225 394.001 333.294 394 334.541V359.516C394 360.765 393.559 361.834 392.677 362.724C391.795 363.614 390.736 364.058 389.5 364.057H382.75L384.1 365.419C384.362 365.684 384.578 366.025 384.748 366.441C384.917 366.857 385.001 367.254 385 367.633C385 368.503 384.681 369.26 384.044 369.903C383.406 370.547 382.656 370.868 381.794 370.868H361.206ZM353.5 359.516H389.5V334.541H353.5V359.516Z" fill="#4356E5"/>
<path d="M413.138 513.579C412.563 513.579 412.063 513.364 411.638 512.935C411.213 512.507 411 512.002 411 511.422C411 511.195 411.057 510.936 411.17 510.645C411.283 510.355 411.426 510.122 411.6 509.946L412.5 509.038H408C407.175 509.038 406.469 508.741 405.881 508.148C405.293 507.554 404.999 506.842 405 506.011V489.361C405 488.528 405.294 487.815 405.882 487.222C406.47 486.628 407.176 486.332 408 486.333H432C432.825 486.333 433.531 486.63 434.119 487.223C434.707 487.817 435.001 488.529 435 489.361V506.011C435 506.843 434.706 507.556 434.118 508.149C433.53 508.743 432.824 509.039 432 509.038H427.5L428.4 509.946C428.575 510.123 428.719 510.35 428.832 510.627C428.945 510.905 429.001 511.17 429 511.422C429 512.002 428.788 512.507 428.363 512.935C427.938 513.364 427.438 513.579 426.863 513.579H413.138ZM408 506.011H432V489.361H408V506.011Z" fill="#4356E5"/>
<path d="M436.206 370.868C435.344 370.868 434.594 370.547 433.956 369.903C433.319 369.26 433 368.503 433 367.633C433 367.292 433.085 366.904 433.254 366.468C433.424 366.032 433.639 365.682 433.9 365.419L435.25 364.057H428.5C427.263 364.057 426.203 363.612 425.321 362.722C424.439 361.832 423.999 360.763 424 359.516V334.541C424 333.292 424.441 332.223 425.323 331.333C426.205 330.443 427.264 329.998 428.5 330H464.5C465.737 330 466.797 330.445 467.679 331.335C468.561 332.225 469.001 333.294 469 334.541V359.516C469 360.765 468.559 361.834 467.677 362.724C466.795 363.614 465.736 364.058 464.5 364.057H457.75L459.1 365.419C459.362 365.684 459.578 366.025 459.748 366.441C459.917 366.857 460.001 367.254 460 367.633C460 368.503 459.681 369.26 459.044 369.903C458.406 370.547 457.656 370.868 456.794 370.868H436.206ZM428.5 359.516H464.5V334.541H428.5V359.516Z" fill="#FF3843"/>
<path fill-rule="evenodd" clip-rule="evenodd" d="M69.4989 326C72.4946 325.997 75.4604 326.593 78.2213 327.754C80.9826 328.915 83.4827 330.616 85.5748 332.758C85.5918 332.775 85.6084 332.793 85.6245 332.811C89.7195 337.008 92.0071 342.641 92 348.502C91.9988 360.911 81.943 370.999 69.5023 371M81.5744 334.07L54.8456 360.292C52.1731 356.968 50.6987 352.811 50.7041 348.502L50.7041 348.5C50.7041 338.086 59.1348 329.673 69.5 329.673L69.5023 329.673C71.9994 329.67 74.4724 330.167 76.7756 331.136C78.5162 331.868 80.1336 332.857 81.5744 334.07ZM57.4244 362.929C58.8656 364.142 60.4833 365.132 62.2244 365.864C64.5276 366.833 67.0006 367.33 69.4977 367.327L69.5 367.327C79.8652 367.327 88.2959 358.914 88.2959 348.5V348.498C88.3011 344.189 86.826 340.032 84.1526 336.708L57.4244 362.929ZM69.4989 326C57.0573 326.001 47.0006 336.089 47 348.499C46.9929 354.385 49.2995 360.041 53.4267 364.244C55.5185 366.385 58.018 368.086 60.7787 369.246C63.5393 370.407 66.5046 371.003 69.5 371" fill="#4356E5"/>
<path fill-rule="evenodd" clip-rule="evenodd" d="M66.4573 333.839C66.4883 333.839 66.5193 333.839 66.5505 333.839L72.5432 333.839C73.8543 333.839 74.9764 333.839 75.8734 333.96C76.8331 334.089 77.7392 334.379 78.4717 335.112C79.2025 335.843 79.4899 336.745 79.6182 337.7C79.7385 338.595 79.7385 339.716 79.7384 341.029V341.212C79.7385 342.526 79.7385 343.647 79.6182 344.542C79.4899 345.496 79.2025 346.398 78.4717 347.129C77.7392 347.862 76.8331 348.152 75.8734 348.281C74.9764 348.402 73.8543 348.402 72.5432 348.402H66.4573C65.1462 348.402 64.0241 348.402 63.1271 348.281C62.1674 348.152 61.2613 347.862 60.5288 347.129C59.798 346.398 59.5106 345.496 59.3823 344.542C59.262 343.647 59.262 342.526 59.2621 341.212C59.2621 341.182 59.2621 341.151 59.2621 341.121C59.2621 341.09 59.2621 341.06 59.2621 341.029C59.262 339.716 59.262 338.595 59.3823 337.7C59.5106 336.745 59.798 335.843 60.5288 335.112C61.2613 334.379 62.1674 334.089 63.1271 333.96C64.0241 333.839 65.1462 333.839 66.4573 333.839ZM63.5008 336.69C62.8544 336.777 62.6338 336.92 62.502 337.051C62.3686 337.185 62.2238 337.411 62.136 338.064C62.0431 338.755 62.0402 339.69 62.0402 341.121C62.0402 342.551 62.0431 343.486 62.136 344.178C62.2238 344.83 62.3686 345.056 62.502 345.19C62.6338 345.322 62.8544 345.464 63.5008 345.551C64.1887 345.644 65.1201 345.647 66.5505 345.647H72.45C73.8804 345.647 74.8118 345.644 75.4997 345.551C76.1461 345.464 76.3667 345.322 76.4985 345.19C76.6319 345.056 76.7767 344.83 76.8645 344.178C76.9574 343.486 76.9603 342.551 76.9603 341.121C76.9603 339.69 76.9574 338.755 76.8645 338.064C76.7767 337.411 76.6319 337.185 76.4985 337.051C76.3667 336.92 76.1461 336.777 75.4997 336.69C74.8118 336.597 73.8804 336.594 72.45 336.594H66.5505C65.1201 336.594 64.1887 336.597 63.5008 336.69ZM69.5003 341.022C69.4816 341.022 69.4611 341.03 69.444 341.047C69.4265 341.064 69.4144 341.091 69.4144 341.121C69.4144 341.151 69.4265 341.177 69.444 341.195C69.4611 341.212 69.4816 341.219 69.5003 341.219C69.5189 341.219 69.5394 341.212 69.5565 341.195C69.574 341.177 69.5861 341.151 69.5861 341.121C69.5861 341.091 69.574 341.064 69.5565 341.047C69.5394 341.03 69.5189 341.022 69.5003 341.022ZM67.4707 339.107C68.0068 338.571 68.7366 338.267 69.5003 338.267C70.2639 338.267 70.9937 338.571 71.5298 339.107C72.0654 339.643 72.3641 340.368 72.3641 341.121C72.3641 341.873 72.0654 342.598 71.5298 343.134C70.9937 343.671 70.2639 343.974 69.5003 343.974C68.7366 343.974 68.0068 343.671 67.4707 343.134C66.9351 342.598 66.6364 341.873 66.6364 341.121C66.6364 340.368 66.9351 339.643 67.4707 339.107Z" fill="#4356E5"/>
<path fill-rule="evenodd" clip-rule="evenodd" d="M65.0752 333.839C65.8423 333.839 66.4642 334.456 66.4642 335.217C66.4642 336.753 65.8547 338.228 64.7659 339.318C63.6766 340.408 62.1966 341.022 60.6506 341.022C59.8835 341.022 59.2616 340.406 59.2616 339.645C59.2616 338.884 59.8835 338.267 60.6506 338.267C61.4516 338.267 62.2224 337.949 62.7926 337.378C63.3633 336.807 63.6861 336.03 63.6861 335.217C63.6861 334.456 64.308 333.839 65.0752 333.839ZM73.9243 333.839C74.6914 333.839 75.3133 334.456 75.3133 335.217C75.3133 336.03 75.6362 336.807 76.2069 337.378C76.7771 337.949 77.5479 338.267 78.3489 338.267C79.116 338.267 79.7379 338.884 79.7379 339.645C79.7379 340.406 79.116 341.022 78.3489 341.022C76.8029 341.022 75.3229 340.408 74.2336 339.318C73.1447 338.228 72.5353 336.753 72.5353 335.217C72.5353 334.456 73.1571 333.839 73.9243 333.839ZM59.2616 342.597C59.2616 341.836 59.8835 341.219 60.6506 341.219C62.1966 341.219 63.6766 341.834 64.7659 342.924C65.8547 344.014 66.4642 345.489 66.4642 347.024C66.4642 347.785 65.8423 348.402 65.0752 348.402C64.308 348.402 63.6861 347.785 63.6861 347.024C63.6861 346.211 63.3633 345.434 62.7926 344.863C62.2224 344.293 61.4516 343.974 60.6506 343.974C59.8835 343.974 59.2616 343.357 59.2616 342.597ZM74.2336 342.924C75.3229 341.834 76.8029 341.219 78.3489 341.219C79.116 341.219 79.7379 341.836 79.7379 342.597C79.7379 343.357 79.116 343.974 78.3489 343.974C77.5479 343.974 76.7771 344.293 76.2069 344.863C75.6362 345.434 75.3133 346.211 75.3133 347.024C75.3133 347.785 74.6914 348.402 73.9243 348.402C73.1571 348.402 72.5353 347.785 72.5353 347.024C72.5353 345.489 73.1447 344.014 74.2336 342.924ZM72.836 352.891C73.2035 353.108 73.5355 353.379 73.8205 353.695C74.1414 354.048 74.388 354.46 74.5466 354.908C74.6213 355.119 74.6758 355.337 74.7097 355.557C74.8522 355.456 74.9963 355.35 75.1424 355.239L77.8193 353.217L77.8293 353.21C78.5425 352.69 79.4034 352.41 80.2883 352.41C81.1732 352.41 82.0341 352.69 82.7473 353.21L82.7575 353.217L82.7676 353.225C84.0967 354.23 84.6405 356.048 83.6762 357.595C83.048 358.603 82.0869 360.021 81.0968 360.939C80.5365 361.459 79.6575 361.43 79.1335 360.874C78.6096 360.318 78.6391 359.446 79.1995 358.927C79.8966 358.28 80.6937 357.14 81.3132 356.146C81.3859 356.029 81.3972 355.923 81.3735 355.819C81.3482 355.709 81.2706 355.561 81.0929 355.423C80.8568 355.255 80.5756 355.165 80.2883 355.165C80.0001 355.165 79.7179 355.255 79.4814 355.425L76.827 357.43C76.8268 357.43 76.8271 357.43 76.827 357.43C75.7573 358.239 74.3995 359.139 72.7007 359.41L72.6945 359.411C72.5336 359.436 72.3642 359.46 72.1868 359.481C72.0911 359.498 71.9944 359.509 71.8973 359.513C70.9338 359.606 69.9636 359.607 69 359.514C68.2364 359.441 67.6774 358.767 67.7514 358.01C67.8254 357.253 68.5044 356.698 69.268 356.772C70.0574 356.848 70.8523 356.847 71.6416 356.769L71.6634 356.748L71.6879 356.727C71.7702 356.656 71.8382 356.568 71.8872 356.469C71.9362 356.369 71.9651 356.261 71.9717 356.149C71.9782 356.037 71.9624 355.926 71.9253 355.821C71.8881 355.716 71.8307 355.62 71.7569 355.539L71.7509 355.533C71.6534 355.424 71.5403 355.332 71.4157 355.259L71.407 355.254C69.7492 354.264 67.505 354.083 65.0858 354.552C62.6839 355.018 60.2931 356.093 58.5094 357.359C57.8857 357.802 57.018 357.659 56.5714 357.041C56.1249 356.422 56.2686 355.562 56.8924 355.119C58.9861 353.632 61.744 352.393 64.5528 351.848C67.3427 351.307 70.3693 351.42 72.836 352.891ZM56.3119 362.357C56.3119 361.596 56.9338 360.979 57.7009 360.979H61.0341C62.62 360.979 64.2232 361.145 65.7642 361.462C68.187 361.96 70.6798 362.016 73.1222 361.625C73.8796 361.504 74.5925 362.015 74.7146 362.766C74.8366 363.517 74.3216 364.224 73.5642 364.345C70.7879 364.789 67.9542 364.726 65.2003 364.16C63.8418 363.881 62.4274 363.734 61.0341 363.734H57.7009C56.9338 363.734 56.3119 363.117 56.3119 362.357Z" fill="#4356E5"/>
<path fill-rule="evenodd" clip-rule="evenodd" d="M299.999 485C301.996 484.998 303.974 485.395 305.814 486.169C307.655 486.943 309.322 488.078 310.717 489.505C310.728 489.517 310.739 489.528 310.75 489.54C313.48 492.339 315.005 496.094 315 500.001C314.999 508.274 308.295 514.999 300.002 515M308.05 490.38L290.23 507.861C288.449 505.645 287.466 502.874 287.469 500.002L287.469 500C287.469 493.058 293.09 487.449 300 487.449L300.002 487.449C301.666 487.447 303.315 487.778 304.85 488.424C306.011 488.912 307.089 489.572 308.05 490.38ZM291.95 509.62C292.91 510.428 293.989 511.088 295.15 511.576C296.685 512.222 298.334 512.553 299.998 512.551L300 512.551C306.91 512.551 312.531 506.942 312.531 500V499.999C312.534 497.126 311.551 494.354 309.768 492.138L291.95 509.62ZM299.999 485C291.705 485 285 491.726 285 499.999C284.995 503.923 286.533 507.694 289.284 510.496C290.679 511.923 292.345 513.057 294.186 513.831C296.026 514.605 298.003 515.002 300 515" fill="#4356E5"/>
<path fill-rule="evenodd" clip-rule="evenodd" d="M297.972 490.226C297.992 490.226 298.013 490.226 298.034 490.226L302.029 490.226C302.903 490.226 303.651 490.226 304.249 490.307C304.889 490.393 305.493 490.586 305.981 491.075C306.468 491.562 306.66 492.164 306.745 492.8C306.826 493.397 306.826 494.144 306.826 495.02V495.141C306.826 496.017 306.826 496.764 306.745 497.361C306.66 497.998 306.468 498.599 305.981 499.086C305.493 499.575 304.889 499.768 304.249 499.854C303.651 499.935 302.903 499.935 302.029 499.935H297.972C297.098 499.935 296.349 499.935 295.751 499.854C295.112 499.768 294.508 499.575 294.019 499.086C293.532 498.599 293.34 497.998 293.255 497.361C293.175 496.764 293.175 496.017 293.175 495.141C293.175 495.121 293.175 495.101 293.175 495.081C293.175 495.06 293.175 495.04 293.175 495.02C293.175 494.144 293.175 493.397 293.255 492.8C293.34 492.164 293.532 491.562 294.019 491.075C294.508 490.586 295.112 490.393 295.751 490.307C296.349 490.226 297.098 490.226 297.972 490.226ZM296.001 492.127C295.57 492.185 295.423 492.28 295.335 492.368C295.246 492.457 295.149 492.607 295.091 493.043C295.029 493.504 295.027 494.127 295.027 495.081C295.027 496.034 295.029 496.658 295.091 497.119C295.149 497.554 295.246 497.704 295.335 497.793C295.423 497.881 295.57 497.976 296.001 498.034C296.459 498.096 297.08 498.098 298.034 498.098H301.967C302.92 498.098 303.541 498.096 304 498.034C304.431 497.976 304.578 497.881 304.666 497.793C304.755 497.704 304.851 497.554 304.91 497.119C304.972 496.658 304.974 496.034 304.974 495.081C304.974 494.127 304.972 493.504 304.91 493.043C304.851 492.607 304.755 492.457 304.666 492.368C304.578 492.28 304.431 492.185 304 492.127C303.541 492.065 302.92 492.063 301.967 492.063H298.034C297.08 492.063 296.459 492.065 296.001 492.127ZM300 495.015C299.988 495.015 299.974 495.02 299.963 495.031C299.951 495.043 299.943 495.06 299.943 495.081C299.943 495.101 299.951 495.118 299.963 495.13C299.974 495.141 299.988 495.146 300 495.146C300.013 495.146 300.026 495.141 300.038 495.13C300.049 495.118 300.057 495.101 300.057 495.081C300.057 495.06 300.049 495.043 300.038 495.031C300.026 495.02 300.013 495.015 300 495.015ZM298.647 493.738C299.005 493.381 299.491 493.178 300 493.178C300.509 493.178 300.996 493.381 301.353 493.738C301.71 494.096 301.909 494.579 301.909 495.081C301.909 495.582 301.71 496.065 301.353 496.423C300.996 496.78 300.509 496.983 300 496.983C299.491 496.983 299.005 496.78 298.647 496.423C298.29 496.065 298.091 495.582 298.091 495.081C298.091 494.579 298.29 494.096 298.647 493.738Z" fill="#4356E5"/>
<path fill-rule="evenodd" clip-rule="evenodd" d="M297.05 490.226C297.562 490.226 297.976 490.637 297.976 491.145C297.976 492.168 297.57 493.152 296.844 493.878C296.118 494.605 295.131 495.015 294.1 495.015C293.589 495.015 293.174 494.604 293.174 494.097C293.174 493.589 293.589 493.178 294.1 493.178C294.634 493.178 295.148 492.966 295.528 492.586C295.909 492.205 296.124 491.687 296.124 491.145C296.124 490.637 296.539 490.226 297.05 490.226ZM302.95 490.226C303.461 490.226 303.876 490.637 303.876 491.145C303.876 491.687 304.091 492.205 304.471 492.586C304.851 492.966 305.365 493.178 305.899 493.178C306.411 493.178 306.825 493.589 306.825 494.097C306.825 494.604 306.411 495.015 305.899 495.015C304.869 495.015 303.882 494.605 303.156 493.878C302.43 493.152 302.024 492.168 302.024 491.145C302.024 490.637 302.438 490.226 302.95 490.226ZM293.174 496.065C293.174 495.557 293.589 495.146 294.1 495.146C295.131 495.146 296.118 495.556 296.844 496.283C297.57 497.009 297.976 497.993 297.976 499.016C297.976 499.524 297.562 499.935 297.05 499.935C296.539 499.935 296.124 499.524 296.124 499.016C296.124 498.474 295.909 497.956 295.528 497.576C295.148 497.195 294.634 496.983 294.1 496.983C293.589 496.983 293.174 496.572 293.174 496.065ZM303.156 496.283C303.882 495.556 304.869 495.146 305.899 495.146C306.411 495.146 306.825 495.557 306.825 496.065C306.825 496.572 306.411 496.983 305.899 496.983C305.365 496.983 304.851 497.195 304.471 497.576C304.091 497.956 303.876 498.474 303.876 499.016C303.876 499.524 303.461 499.935 302.95 499.935C302.438 499.935 302.024 499.524 302.024 499.016C302.024 497.993 302.43 497.009 303.156 496.283ZM302.224 502.927C302.469 503.072 302.69 503.253 302.88 503.463C303.094 503.698 303.259 503.974 303.364 504.272C303.414 504.413 303.451 504.558 303.473 504.704C303.568 504.637 303.664 504.567 303.762 504.493L305.546 503.145L305.553 503.14C306.028 502.794 306.602 502.607 307.192 502.607C307.782 502.607 308.356 502.794 308.832 503.14L308.838 503.145L308.845 503.15C309.731 503.82 310.094 505.032 309.451 506.063C309.032 506.735 308.391 507.681 307.731 508.293C307.358 508.639 306.772 508.62 306.422 508.249C306.073 507.879 306.093 507.298 306.466 506.951C306.931 506.52 307.463 505.76 307.875 505.097C307.924 505.02 307.931 504.948 307.916 504.88C307.899 504.806 307.847 504.707 307.729 504.615C307.571 504.503 307.384 504.443 307.192 504.443C307 504.443 306.812 504.503 306.654 504.616L304.885 505.954C304.885 505.954 304.885 505.953 304.885 505.954C304.172 506.493 303.266 507.093 302.134 507.273L302.13 507.274C302.022 507.291 301.909 507.306 301.791 507.321C301.727 507.332 301.663 507.339 301.598 507.342C300.956 507.404 300.309 507.404 299.667 507.343C299.158 507.294 298.785 506.845 298.834 506.34C298.884 505.835 299.336 505.466 299.845 505.515C300.372 505.565 300.902 505.565 301.428 505.513L301.442 505.499L301.459 505.485C301.513 505.437 301.559 505.379 301.591 505.313C301.624 505.246 301.643 505.174 301.648 505.099C301.652 505.025 301.642 504.95 301.617 504.881C301.592 504.811 301.554 504.747 301.505 504.693L301.501 504.689C301.436 504.616 301.36 504.555 301.277 504.506L301.271 504.503C300.166 503.843 298.67 503.722 297.057 504.035C295.456 504.345 293.862 505.062 292.673 505.906C292.257 506.201 291.679 506.106 291.381 505.694C291.083 505.281 291.179 504.708 291.595 504.413C292.991 503.422 294.829 502.595 296.702 502.232C298.562 501.872 300.58 501.947 302.224 502.927ZM291.208 509.238C291.208 508.731 291.623 508.319 292.134 508.319H294.356C295.413 508.319 296.482 508.43 297.509 508.642C299.125 508.974 300.787 509.011 302.415 508.75C302.92 508.67 303.395 509.01 303.476 509.511C303.558 510.012 303.214 510.483 302.709 510.564C300.859 510.859 298.969 510.818 297.134 510.44C296.228 510.254 295.285 510.156 294.356 510.156H292.134C291.623 510.156 291.208 509.745 291.208 509.238Z" fill="#4356E5"/>
<path fill-rule="evenodd" clip-rule="evenodd" d="M144.499 326C147.495 325.997 150.46 326.593 153.221 327.754C155.983 328.915 158.483 330.616 160.575 332.758C160.592 332.775 160.608 332.793 160.625 332.811C164.72 337.008 167.007 342.641 167 348.502C166.999 360.911 156.943 370.999 144.502 371M156.574 334.07L129.846 360.292C127.173 356.968 125.699 352.811 125.704 348.502L125.704 348.5C125.704 338.086 134.135 329.673 144.5 329.673L144.502 329.673C146.999 329.67 149.472 330.167 151.776 331.136C153.516 331.868 155.134 332.857 156.574 334.07ZM132.424 362.929C133.866 364.142 135.483 365.132 137.224 365.864C139.528 366.833 142.001 367.33 144.498 367.327L144.5 367.327C154.865 367.327 163.296 358.914 163.296 348.5V348.498C163.301 344.189 161.826 340.032 159.153 336.708L132.424 362.929ZM144.499 326C132.057 326.001 122.001 336.089 122 348.499C121.993 354.385 124.299 360.041 128.427 364.244C130.518 366.385 133.018 368.086 135.779 369.246C138.539 370.407 141.505 371.003 144.5 371" fill="#FF3843"/>
<path fill-rule="evenodd" clip-rule="evenodd" d="M141.457 333.839C141.488 333.839 141.519 333.839 141.551 333.839L147.543 333.839C148.854 333.839 149.976 333.839 150.873 333.96C151.833 334.089 152.739 334.379 153.472 335.112C154.203 335.843 154.49 336.745 154.618 337.7C154.739 338.595 154.738 339.716 154.738 341.029V341.212C154.738 342.526 154.739 343.647 154.618 344.542C154.49 345.496 154.203 346.398 153.472 347.129C152.739 347.862 151.833 348.152 150.873 348.281C149.976 348.402 148.854 348.402 147.543 348.402H141.457C140.146 348.402 139.024 348.402 138.127 348.281C137.167 348.152 136.261 347.862 135.529 347.129C134.798 346.398 134.511 345.496 134.382 344.542C134.262 343.647 134.262 342.526 134.262 341.212C134.262 341.182 134.262 341.151 134.262 341.121C134.262 341.09 134.262 341.06 134.262 341.029C134.262 339.716 134.262 338.595 134.382 337.7C134.511 336.745 134.798 335.843 135.529 335.112C136.261 334.379 137.167 334.089 138.127 333.96C139.024 333.839 140.146 333.839 141.457 333.839ZM138.501 336.69C137.854 336.777 137.634 336.92 137.502 337.051C137.369 337.185 137.224 337.411 137.136 338.064C137.043 338.755 137.04 339.69 137.04 341.121C137.04 342.551 137.043 343.486 137.136 344.178C137.224 344.83 137.369 345.056 137.502 345.19C137.634 345.322 137.854 345.464 138.501 345.551C139.189 345.644 140.12 345.647 141.551 345.647H147.45C148.88 345.647 149.812 345.644 150.5 345.551C151.146 345.464 151.367 345.322 151.498 345.19C151.632 345.056 151.777 344.83 151.864 344.178C151.957 343.486 151.96 342.551 151.96 341.121C151.96 339.69 151.957 338.755 151.864 338.064C151.777 337.411 151.632 337.185 151.498 337.051C151.367 336.92 151.146 336.777 150.5 336.69C149.812 336.597 148.88 336.594 147.45 336.594H141.551C140.12 336.594 139.189 336.597 138.501 336.69ZM144.5 341.022C144.482 341.022 144.461 341.03 144.444 341.047C144.427 341.064 144.414 341.091 144.414 341.121C144.414 341.151 144.427 341.177 144.444 341.195C144.461 341.212 144.482 341.219 144.5 341.219C144.519 341.219 144.539 341.212 144.556 341.195C144.574 341.177 144.586 341.151 144.586 341.121C144.586 341.091 144.574 341.064 144.556 341.047C144.539 341.03 144.519 341.022 144.5 341.022ZM142.471 339.107C143.007 338.571 143.737 338.267 144.5 338.267C145.264 338.267 145.994 338.571 146.53 339.107C147.065 339.643 147.364 340.368 147.364 341.121C147.364 341.873 147.065 342.598 146.53 343.134C145.994 343.671 145.264 343.974 144.5 343.974C143.737 343.974 143.007 343.671 142.471 343.134C141.935 342.598 141.636 341.873 141.636 341.121C141.636 340.368 141.935 339.643 142.471 339.107Z" fill="#FF3843"/>
<path fill-rule="evenodd" clip-rule="evenodd" d="M140.075 333.839C140.842 333.839 141.464 334.456 141.464 335.217C141.464 336.753 140.855 338.228 139.766 339.318C138.677 340.408 137.197 341.022 135.651 341.022C134.883 341.022 134.262 340.406 134.262 339.645C134.262 338.884 134.883 338.267 135.651 338.267C136.452 338.267 137.222 337.949 137.793 337.378C138.363 336.807 138.686 336.03 138.686 335.217C138.686 334.456 139.308 333.839 140.075 333.839ZM148.924 333.839C149.691 333.839 150.313 334.456 150.313 335.217C150.313 336.03 150.636 336.807 151.207 337.378C151.777 337.949 152.548 338.267 153.349 338.267C154.116 338.267 154.738 338.884 154.738 339.645C154.738 340.406 154.116 341.022 153.349 341.022C151.803 341.022 150.323 340.408 149.234 339.318C148.145 338.228 147.535 336.753 147.535 335.217C147.535 334.456 148.157 333.839 148.924 333.839ZM134.262 342.597C134.262 341.836 134.883 341.219 135.651 341.219C137.197 341.219 138.677 341.834 139.766 342.924C140.855 344.014 141.464 345.489 141.464 347.024C141.464 347.785 140.842 348.402 140.075 348.402C139.308 348.402 138.686 347.785 138.686 347.024C138.686 346.211 138.363 345.434 137.793 344.863C137.222 344.293 136.452 343.974 135.651 343.974C134.883 343.974 134.262 343.357 134.262 342.597ZM149.234 342.924C150.323 341.834 151.803 341.219 153.349 341.219C154.116 341.219 154.738 341.836 154.738 342.597C154.738 343.357 154.116 343.974 153.349 343.974C152.548 343.974 151.777 344.293 151.207 344.863C150.636 345.434 150.313 346.211 150.313 347.024C150.313 347.785 149.691 348.402 148.924 348.402C148.157 348.402 147.535 347.785 147.535 347.024C147.535 345.489 148.145 344.014 149.234 342.924ZM147.836 352.891C148.204 353.108 148.535 353.379 148.82 353.695C149.141 354.048 149.388 354.46 149.547 354.908C149.621 355.119 149.676 355.337 149.71 355.557C149.852 355.456 149.996 355.35 150.142 355.239L152.819 353.217L152.829 353.21C153.543 352.69 154.403 352.41 155.288 352.41C156.173 352.41 157.034 352.69 157.747 353.21L157.758 353.217L157.768 353.225C159.097 354.23 159.641 356.048 158.676 357.595C158.048 358.603 157.087 360.021 156.097 360.939C155.536 361.459 154.657 361.43 154.134 360.874C153.61 360.318 153.639 359.446 154.2 358.927C154.897 358.28 155.694 357.14 156.313 356.146C156.386 356.029 156.397 355.923 156.373 355.819C156.348 355.709 156.271 355.561 156.093 355.423C155.857 355.255 155.576 355.165 155.288 355.165C155 355.165 154.718 355.255 154.481 355.425L151.827 357.43C151.827 357.43 151.827 357.43 151.827 357.43C150.757 358.239 149.399 359.139 147.701 359.41L147.694 359.411C147.534 359.436 147.364 359.46 147.187 359.481C147.091 359.498 146.994 359.509 146.897 359.513C145.934 359.606 144.964 359.607 144 359.514C143.236 359.441 142.677 358.767 142.751 358.01C142.825 357.253 143.504 356.698 144.268 356.772C145.057 356.848 145.852 356.847 146.642 356.769L146.663 356.748L146.688 356.727C146.77 356.656 146.838 356.568 146.887 356.469C146.936 356.369 146.965 356.261 146.972 356.149C146.978 356.037 146.962 355.926 146.925 355.821C146.888 355.716 146.831 355.62 146.757 355.539L146.751 355.533C146.653 355.424 146.54 355.332 146.416 355.259L146.407 355.254C144.749 354.264 142.505 354.083 140.086 354.552C137.684 355.018 135.293 356.093 133.509 357.359C132.886 357.802 132.018 357.659 131.571 357.041C131.125 356.422 131.269 355.562 131.892 355.119C133.986 353.632 136.744 352.393 139.553 351.848C142.343 351.307 145.369 351.42 147.836 352.891ZM131.312 362.357C131.312 361.596 131.934 360.979 132.701 360.979H136.034C137.62 360.979 139.223 361.145 140.764 361.462C143.187 361.96 145.68 362.016 148.122 361.625C148.88 361.504 149.593 362.015 149.715 362.766C149.837 363.517 149.322 364.224 148.564 364.345C145.788 364.789 142.954 364.726 140.2 364.16C138.842 363.881 137.427 363.734 136.034 363.734H132.701C131.934 363.734 131.312 363.117 131.312 362.357Z" fill="#FF3843"/>
<path d="M228.7 348.137L218.238 337.675C218.763 337.45 219.297 337.281 219.842 337.169C220.386 337.056 220.939 337 221.5 337C223.712 337 225.578 337.76 227.098 339.279C228.617 340.799 229.376 342.664 229.375 344.875C229.375 345.437 229.319 345.991 229.206 346.535C229.094 347.08 228.925 347.614 228.7 348.137ZM207.663 361.975C209.575 360.512 211.713 359.359 214.075 358.514C216.438 357.67 218.913 357.248 221.5 357.25C222.175 357.25 222.822 357.278 223.442 357.335C224.061 357.392 224.708 357.476 225.381 357.587L220.431 352.637C218.669 352.412 217.16 351.671 215.904 350.414C214.649 349.157 213.908 347.648 213.681 345.887L207.269 339.475C206.069 341.012 205.141 342.71 204.486 344.567C203.83 346.424 203.502 348.401 203.5 350.5C203.5 352.712 203.866 354.794 204.598 356.744C205.33 358.694 206.352 360.437 207.663 361.975ZM235.675 361.525C236.875 359.987 237.812 358.291 238.487 356.435C239.162 354.58 239.5 352.601 239.5 350.5C239.5 345.512 237.747 341.265 234.242 337.758C230.736 334.251 226.489 332.498 221.5 332.5C219.4 332.5 217.422 332.837 215.565 333.512C213.708 334.187 212.011 335.125 210.475 336.325L235.675 361.525ZM221.5 373C218.425 373 215.519 372.409 212.781 371.227C210.044 370.045 207.653 368.432 205.608 366.389C203.565 364.346 201.953 361.956 200.771 359.219C199.589 356.481 198.999 353.575 199 350.5C199 347.387 199.591 344.471 200.773 341.752C201.955 339.032 203.568 336.652 205.611 334.61C207.654 332.566 210.043 330.953 212.779 329.773C215.515 328.593 218.422 328.001 221.5 328C224.612 328 227.528 328.591 230.248 329.773C232.967 330.955 235.348 332.567 237.39 334.61C239.434 336.653 241.046 339.035 242.227 341.754C243.407 344.474 243.998 347.389 244 350.5C244 353.575 243.409 356.481 242.227 359.219C241.045 361.956 239.433 364.347 237.39 366.392C235.347 368.435 232.965 370.047 230.246 371.229C227.526 372.411 224.611 373.001 221.5 373Z" fill="#4356E5"/>
<path d="M364.8 498.425L357.825 491.45C358.175 491.3 358.531 491.187 358.894 491.112C359.257 491.037 359.626 491 360 491C361.475 491 362.719 491.506 363.732 492.519C364.745 493.532 365.251 494.776 365.25 496.25C365.25 496.625 365.213 496.994 365.138 497.357C365.063 497.72 364.95 498.076 364.8 498.425ZM350.775 507.65C352.05 506.675 353.475 505.906 355.05 505.343C356.625 504.78 358.275 504.499 360 504.5C360.45 504.5 360.882 504.519 361.295 504.557C361.707 504.595 362.139 504.651 362.588 504.725L359.287 501.425C358.112 501.275 357.107 500.781 356.27 499.943C355.433 499.105 354.939 498.099 354.788 496.925L350.513 492.65C349.713 493.675 349.094 494.806 348.657 496.044C348.22 497.282 348.001 498.601 348 500C348 501.475 348.244 502.862 348.732 504.162C349.22 505.462 349.901 506.625 350.775 507.65ZM369.45 507.35C370.25 506.325 370.875 505.194 371.325 503.957C371.775 502.72 372 501.401 372 500C372 496.675 370.831 493.843 368.494 491.505C366.157 489.167 363.326 487.999 360 488C358.6 488 357.281 488.225 356.043 488.675C354.805 489.125 353.674 489.75 352.65 490.55L369.45 507.35ZM360 515C357.95 515 356.013 514.606 354.188 513.818C352.363 513.03 350.769 511.955 349.406 510.593C348.044 509.231 346.969 507.637 346.181 505.812C345.393 503.987 344.999 502.05 345 500C345 497.925 345.394 495.981 346.182 494.168C346.97 492.355 348.045 490.768 349.407 489.407C350.769 488.044 352.362 486.969 354.186 486.182C356.01 485.395 357.948 485.001 360 485C362.075 485 364.019 485.394 365.832 486.182C367.645 486.97 369.232 488.045 370.593 489.407C371.956 490.769 373.031 492.356 373.818 494.169C374.605 495.982 374.999 497.926 375 500C375 502.05 374.606 503.987 373.818 505.812C373.03 507.637 371.955 509.231 370.593 510.594C369.231 511.956 367.643 513.031 365.83 513.819C364.018 514.607 362.074 515.001 360 515Z" fill="#4356E5"/>
<path d="M303.7 348.137L293.238 337.675C293.763 337.45 294.297 337.281 294.842 337.169C295.386 337.056 295.939 337 296.5 337C298.712 337 300.578 337.76 302.098 339.279C303.617 340.799 304.376 342.664 304.375 344.875C304.375 345.437 304.319 345.991 304.206 346.535C304.094 347.08 303.925 347.614 303.7 348.137ZM282.663 361.975C284.575 360.512 286.713 359.359 289.075 358.514C291.438 357.67 293.913 357.248 296.5 357.25C297.175 357.25 297.822 357.278 298.442 357.335C299.061 357.392 299.708 357.476 300.381 357.587L295.431 352.637C293.669 352.412 292.16 351.671 290.904 350.414C289.649 349.157 288.908 347.648 288.681 345.887L282.269 339.475C281.069 341.012 280.141 342.71 279.486 344.567C278.83 346.424 278.502 348.401 278.5 350.5C278.5 352.712 278.866 354.794 279.598 356.744C280.33 358.694 281.352 360.437 282.663 361.975ZM310.675 361.525C311.875 359.987 312.812 358.291 313.487 356.435C314.162 354.58 314.5 352.601 314.5 350.5C314.5 345.512 312.747 341.265 309.242 337.758C305.736 334.251 301.489 332.498 296.5 332.5C294.4 332.5 292.422 332.837 290.565 333.512C288.708 334.187 287.011 335.125 285.475 336.325L310.675 361.525ZM296.5 373C293.425 373 290.519 372.409 287.781 371.227C285.044 370.045 282.653 368.432 280.608 366.389C278.565 364.346 276.953 361.956 275.771 359.219C274.589 356.481 273.999 353.575 274 350.5C274 347.387 274.591 344.471 275.773 341.752C276.955 339.032 278.568 336.652 280.611 334.61C282.654 332.566 285.043 330.953 287.779 329.773C290.515 328.593 293.422 328.001 296.5 328C299.612 328 302.528 328.591 305.248 329.773C307.967 330.955 310.348 332.567 312.39 334.61C314.434 336.653 316.046 339.035 317.227 341.754C318.407 344.474 318.998 347.389 319 350.5C319 353.575 318.409 356.481 317.227 359.219C316.045 361.956 314.433 364.347 312.39 366.392C310.347 368.435 307.965 370.047 305.246 371.229C302.526 372.411 299.611 373.001 296.5 373Z" fill="#FF3843"/>
<circle cx="58" cy="420" r="8.5" stroke="#4356E5"/>
<rect x="57.2186" y="414.913" width="1.56522" height="10.1739" fill="#4356E5"/>
<rect x="63.0878" y="419.218" width="1.56522" height="10.1739" transform="rotate(90 63.0878 419.218)" fill="#4356E5"/>
<path d="M100.914 420.127C100.914 421.143 101.212 422.135 101.771 422.979C102.33 423.823 103.125 424.481 104.054 424.87C104.984 425.258 106.007 425.36 106.993 425.162C107.98 424.964 108.887 424.475 109.598 423.757C110.309 423.039 110.794 422.125 110.99 421.129C111.187 420.133 111.086 419.101 110.701 418.163C110.316 417.225 109.664 416.423 108.827 415.859C107.991 415.295 107.007 414.994 106.001 414.994C104.544 414.993 103.142 415.558 102.088 416.574" stroke="#4356E5" stroke-width="2" stroke-linecap="round" stroke-linejoin="round"/>
<path d="M102.479 414.994L102.088 416.574L103.653 416.968" stroke="#4356E5" stroke-width="2" stroke-linecap="round" stroke-linejoin="round"/>
<circle cx="106" cy="420" r="8.5" stroke="#4356E5"/>
<circle cx="160" cy="418" r="9.1066" transform="rotate(-45 160 418)" stroke="white" stroke-width="3"/>
<path d="M170.19 430.311C170.776 430.897 171.725 430.897 172.311 430.311C172.897 429.725 172.897 428.776 172.311 428.19L170.19 430.311ZM165.19 425.311L170.19 430.311L172.311 428.19L167.311 423.19L165.19 425.311Z" fill="white"/>
<circle cx="224.265" cy="418" r="9.1066" transform="rotate(-45 224.265 418)" stroke="#4356E5" stroke-width="3"/>
<path d="M234.454 430.311C235.04 430.897 235.99 430.897 236.576 430.311C237.162 429.725 237.162 428.776 236.576 428.19L234.454 430.311ZM229.454 425.311L234.454 430.311L236.576 428.19L231.576 423.19L229.454 425.311Z" fill="#4356E5"/>
<circle cx="288.529" cy="418" r="9.1066" transform="rotate(-45 288.529 418)" stroke="#FF3843" stroke-width="3"/>
<path d="M298.719 430.311C299.305 430.897 300.255 430.897 300.84 430.311C301.426 429.725 301.426 428.776 300.84 428.19L298.719 430.311ZM293.719 425.311L298.719 430.311L300.84 428.19L295.84 423.19L293.719 425.311Z" fill="#FF3843"/>
<circle cx="358.986" cy="428" r="24.5" fill="white" fill-opacity="0.5" stroke="#E7E8F0"/>
<path d="M361.986 419L352.986 428" stroke="#878899" stroke-width="3.5" stroke-linecap="square"/>
<path d="M361.986 437L352.986 428" stroke="#878899" stroke-width="3.5" stroke-linecap="square"/>
<circle cx="25" cy="25" r="24.5" transform="matrix(-1 0 0 1 463.986 403)" fill="white" fill-opacity="0.5" stroke="#E7E8F0"/>
<path d="M435.986 419L444.986 428" stroke="#878899" stroke-width="3.5" stroke-linecap="square"/>
<path d="M435.986 437L444.986 428" stroke="#878899" stroke-width="3.5" stroke-linecap="square"/>
<path d="M549.317 413.45C549.05 413.183 548.883 412.967 548.817 412.8C548.75 412.6 548.717 412.233 548.717 411.7V405.7C548.717 404.867 548.833 404.433 549.067 404.4C549.3 404.367 549.75 404.7 550.417 405.4L570.017 426C570.283 426.267 570.433 426.483 570.467 426.65C570.533 426.783 570.567 427.05 570.567 427.45V430.95C570.567 431.317 570.533 431.55 570.467 431.65C570.433 431.75 570.283 431.95 570.017 432.25L550.417 452.85C549.75 453.55 549.3 453.883 549.067 453.85C548.833 453.817 548.717 453.383 548.717 452.55V446.55C548.717 446.017 548.75 445.667 548.817 445.5C548.883 445.3 549.05 445.067 549.317 444.8L564.167 429.5C564.367 429.267 564.367 429.017 564.167 428.75L549.317 413.45Z" fill="#878899"/>
<path d="M522.683 413.45C522.95 413.183 523.117 412.967 523.183 412.8C523.25 412.6 523.283 412.233 523.283 411.7V405.7C523.283 404.867 523.167 404.433 522.933 404.4C522.7 404.367 522.25 404.7 521.583 405.4L501.983 426C501.717 426.267 501.567 426.483 501.533 426.65C501.467 426.783 501.433 427.05 501.433 427.45V430.95C501.433 431.317 501.467 431.55 501.533 431.65C501.567 431.75 501.717 431.95 501.983 432.25L521.583 452.85C522.25 453.55 522.7 453.883 522.933 453.85C523.167 453.817 523.283 453.383 523.283 452.55V446.55C523.283 446.017 523.25 445.667 523.183 445.5C523.117 445.3 522.95 445.067 522.683 444.8L507.833 429.5C507.633 429.267 507.633 429.017 507.833 428.75L522.683 413.45Z" fill="#878899"/>
</svg>
